<mxfile modified="2022-03-03T01:32:07.055Z" host="app.diagrams.net" agent="5.0 (Windows NT 10.0; Win64; x64) AppleWebKit/537.36 (KHTML, like Gecko) Chrome/98.0.4758.102 Safari/537.36" etag="eGnl6-7JXnNfwDqnTQAF" version="16.6.4" type="github" pages="6">
  <diagram id="d1ab7348-05c3-a1e3-ca4d-12c340fd6b49" name="Page-1">
    <mxGraphModel dx="1422" dy="762" grid="1" gridSize="10" guides="1" tooltips="1" connect="1" arrows="1" fold="1" page="1" pageScale="1" pageWidth="1169" pageHeight="827" background="none" math="0" shadow="0">
      <root>
        <mxCell id="0" />
        <mxCell id="1" parent="0" />
        <mxCell id="2" value="&lt;b&gt;Google &lt;/b&gt;Cloud Platform" style="fillColor=#F6F6F6;strokeColor=none;shadow=0;gradientColor=none;fontSize=14;align=left;spacing=10;fontColor=#717171;9E9E9E;verticalAlign=top;spacingTop=-4;fontStyle=0;spacingLeft=40;html=1;" parent="1" vertex="1">
          <mxGeometry x="240" y="100" width="810" height="590" as="geometry" />
        </mxCell>
        <mxCell id="3" value="" style="shape=mxgraph.gcp2.google_cloud_platform;fillColor=#F6F6F6;strokeColor=none;shadow=0;gradientColor=none;" parent="2" vertex="1">
          <mxGeometry width="23" height="20" relative="1" as="geometry">
            <mxPoint x="20" y="10" as="offset" />
          </mxGeometry>
        </mxCell>
        <mxCell id="4" value="Elastic Cluster" style="rounded=1;absoluteArcSize=1;arcSize=2;html=1;strokeColor=none;gradientColor=none;shadow=0;dashed=0;fontSize=12;fontColor=#9E9E9E;align=left;verticalAlign=top;spacing=10;spacingTop=-4;fillColor=#FFEBEE;" parent="1" vertex="1">
          <mxGeometry x="580" y="440" width="200" height="130" as="geometry" />
        </mxCell>
        <mxCell id="5" value="Storage" style="rounded=1;absoluteArcSize=1;arcSize=2;html=1;strokeColor=none;gradientColor=none;shadow=0;dashed=0;fontSize=12;fontColor=#9E9E9E;align=left;verticalAlign=top;spacing=10;spacingTop=-4;fillColor=#E1F5FE;" parent="1" vertex="1">
          <mxGeometry x="850" y="260" width="180" height="250" as="geometry" />
        </mxCell>
        <mxCell id="6" value="Ingest" style="rounded=1;absoluteArcSize=1;arcSize=2;html=1;strokeColor=none;gradientColor=none;shadow=0;dashed=0;fontSize=12;fontColor=#9E9E9E;align=left;verticalAlign=top;spacing=10;spacingTop=-4;fillColor=#E1F5FE;" parent="1" vertex="1">
          <mxGeometry x="400" y="300" width="380" height="110" as="geometry" />
        </mxCell>
        <mxCell id="50" style="edgeStyle=orthogonalEdgeStyle;rounded=0;html=1;labelBackgroundColor=none;startFill=1;startSize=4;endArrow=blockThin;endFill=1;endSize=4;jettySize=auto;orthogonalLoop=1;strokeColor=#9E9E9E;strokeWidth=2;fontSize=12;fontColor=#000000;align=left;dashed=0;" parent="1" source="7" target="26" edge="1">
          <mxGeometry relative="1" as="geometry" />
        </mxCell>
        <mxCell id="7" value="Scientist" style="rounded=1;absoluteArcSize=1;arcSize=2;html=1;strokeColor=none;gradientColor=none;shadow=0;dashed=0;fontSize=12;fontColor=#9E9E9E;align=left;verticalAlign=top;spacing=10;spacingTop=-4;fillColor=#F3E5F5;" parent="1" vertex="1">
          <mxGeometry x="70" y="560" width="110" height="120" as="geometry" />
        </mxCell>
        <mxCell id="49" style="edgeStyle=orthogonalEdgeStyle;rounded=0;html=1;labelBackgroundColor=none;startFill=1;startSize=4;endArrow=none;endFill=0;endSize=4;jettySize=auto;orthogonalLoop=1;strokeColor=#9E9E9E;strokeWidth=2;fontSize=12;fontColor=#000000;align=left;dashed=0;" parent="1" source="8" target="7" edge="1">
          <mxGeometry relative="1" as="geometry" />
        </mxCell>
        <mxCell id="56" value="Carrier&lt;br style=&quot;font-size: 10px;&quot;&gt;Interconnect&lt;br style=&quot;font-size: 10px;&quot;&gt;" style="edgeStyle=orthogonalEdgeStyle;rounded=0;html=1;labelBackgroundColor=none;startFill=1;startSize=4;endArrow=blockThin;endFill=1;endSize=4;jettySize=auto;orthogonalLoop=1;strokeColor=#9E9E9E;strokeWidth=2;fontSize=10;fontColor=#9E9E9E;align=center;dashed=0;verticalAlign=bottom;" parent="1" source="8" target="2" edge="1">
          <mxGeometry relative="1" as="geometry">
            <Array as="points">
              <mxPoint x="200" y="190" />
              <mxPoint x="200" y="190" />
            </Array>
          </mxGeometry>
        </mxCell>
        <mxCell id="8" value="High&lt;br&gt;Throughput&lt;br&gt;Genome&lt;br&gt;Sequences&lt;br&gt;" style="rounded=1;absoluteArcSize=1;arcSize=2;html=1;strokeColor=none;gradientColor=none;shadow=0;dashed=0;fontSize=12;fontColor=#9E9E9E;align=left;verticalAlign=top;spacing=10;spacingTop=-4;fillColor=#F1F8E9;" parent="1" vertex="1">
          <mxGeometry x="70" y="110" width="110" height="430" as="geometry" />
        </mxCell>
        <mxCell id="9" value="Architecture: LifeSciences &amp;gt; Genomics, Secondary Analysis" style="fillColor=#4DA1F5;strokeColor=none;shadow=1;gradientColor=none;fontSize=14;align=left;spacingLeft=50;fontColor=#ffffff;html=1;" parent="1" vertex="1">
          <mxGeometry x="20" y="40" width="1090" height="40" as="geometry" />
        </mxCell>
        <mxCell id="10" value="" style="strokeColor=#dddddd;fillColor=#ffffff;shadow=1;strokeWidth=1;rounded=1;absoluteArcSize=1;arcSize=2;labelPosition=center;verticalLabelPosition=middle;align=center;verticalAlign=bottom;spacingLeft=0;fontColor=#999999;fontSize=12;whiteSpace=wrap;spacingBottom=2;html=1;" parent="1" vertex="1">
          <mxGeometry x="90" y="180" width="70" height="70" as="geometry" />
        </mxCell>
        <mxCell id="11" value="" style="dashed=0;connectable=0;html=1;fillColor=#757575;strokeColor=none;shape=mxgraph.gcp2.mobile_devices;part=1;" parent="10" vertex="1">
          <mxGeometry x="0.5" width="50" height="36.5" relative="1" as="geometry">
            <mxPoint x="-25" y="16.75" as="offset" />
          </mxGeometry>
        </mxCell>
        <mxCell id="12" value="" style="strokeColor=#dddddd;fillColor=#ffffff;shadow=1;strokeWidth=1;rounded=1;absoluteArcSize=1;arcSize=2;labelPosition=center;verticalLabelPosition=middle;align=center;verticalAlign=bottom;spacingLeft=0;fontColor=#999999;fontSize=12;whiteSpace=wrap;spacingBottom=2;html=1;" parent="1" vertex="1">
          <mxGeometry x="90" y="270" width="70" height="70" as="geometry" />
        </mxCell>
        <mxCell id="13" value="" style="dashed=0;connectable=0;html=1;fillColor=#757575;strokeColor=none;shape=mxgraph.gcp2.mobile_devices;part=1;" parent="12" vertex="1">
          <mxGeometry x="0.5" width="50" height="36.5" relative="1" as="geometry">
            <mxPoint x="-25" y="16.75" as="offset" />
          </mxGeometry>
        </mxCell>
        <mxCell id="14" value="" style="strokeColor=#dddddd;fillColor=#ffffff;shadow=1;strokeWidth=1;rounded=1;absoluteArcSize=1;arcSize=2;labelPosition=center;verticalLabelPosition=middle;align=center;verticalAlign=bottom;spacingLeft=0;fontColor=#999999;fontSize=12;whiteSpace=wrap;spacingBottom=2;html=1;" parent="1" vertex="1">
          <mxGeometry x="90" y="360" width="70" height="70" as="geometry" />
        </mxCell>
        <mxCell id="15" value="" style="dashed=0;connectable=0;html=1;fillColor=#757575;strokeColor=none;shape=mxgraph.gcp2.mobile_devices;part=1;" parent="14" vertex="1">
          <mxGeometry x="0.5" width="50" height="36.5" relative="1" as="geometry">
            <mxPoint x="-25" y="16.75" as="offset" />
          </mxGeometry>
        </mxCell>
        <mxCell id="16" value="" style="strokeColor=#dddddd;fillColor=#ffffff;shadow=1;strokeWidth=1;rounded=1;absoluteArcSize=1;arcSize=2;labelPosition=center;verticalLabelPosition=middle;align=center;verticalAlign=bottom;spacingLeft=0;fontColor=#999999;fontSize=12;whiteSpace=wrap;spacingBottom=2;html=1;" parent="1" vertex="1">
          <mxGeometry x="90" y="450" width="70" height="70" as="geometry" />
        </mxCell>
        <mxCell id="17" value="" style="dashed=0;connectable=0;html=1;fillColor=#757575;strokeColor=none;shape=mxgraph.gcp2.mobile_devices;part=1;" parent="16" vertex="1">
          <mxGeometry x="0.5" width="50" height="36.5" relative="1" as="geometry">
            <mxPoint x="-25" y="16.75" as="offset" />
          </mxGeometry>
        </mxCell>
        <mxCell id="18" value="" style="strokeColor=#dddddd;fillColor=#ffffff;shadow=1;strokeWidth=1;rounded=1;absoluteArcSize=1;arcSize=2;labelPosition=center;verticalLabelPosition=middle;align=center;verticalAlign=bottom;spacingLeft=0;fontColor=#999999;fontSize=12;whiteSpace=wrap;spacingBottom=2;html=1;" parent="1" vertex="1">
          <mxGeometry x="90" y="590" width="70" height="70" as="geometry" />
        </mxCell>
        <mxCell id="19" value="" style="dashed=0;connectable=0;html=1;fillColor=#757575;strokeColor=none;shape=mxgraph.gcp2.laptop;part=1;" parent="18" vertex="1">
          <mxGeometry x="0.5" width="50" height="33" relative="1" as="geometry">
            <mxPoint x="-25" y="18.5" as="offset" />
          </mxGeometry>
        </mxCell>
        <mxCell id="39" style="edgeStyle=orthogonalEdgeStyle;rounded=0;html=1;labelBackgroundColor=none;startFill=1;startSize=4;endArrow=blockThin;endFill=1;endSize=4;jettySize=auto;orthogonalLoop=1;strokeColor=#4284F3;strokeWidth=2;fontSize=12;fontColor=#000000;align=left;dashed=0;startArrow=blockThin;" parent="1" source="20" target="10" edge="1">
          <mxGeometry relative="1" as="geometry">
            <Array as="points">
              <mxPoint x="210" y="360" />
              <mxPoint x="210" y="215" />
            </Array>
          </mxGeometry>
        </mxCell>
        <mxCell id="40" style="edgeStyle=orthogonalEdgeStyle;rounded=0;html=1;labelBackgroundColor=none;startFill=1;startSize=4;endArrow=blockThin;endFill=1;endSize=4;jettySize=auto;orthogonalLoop=1;strokeColor=#4284F3;strokeWidth=2;fontSize=12;fontColor=#000000;align=left;dashed=0;startArrow=blockThin;" parent="1" source="20" target="12" edge="1">
          <mxGeometry relative="1" as="geometry" />
        </mxCell>
        <mxCell id="41" style="edgeStyle=orthogonalEdgeStyle;rounded=0;html=1;labelBackgroundColor=none;startFill=1;startSize=4;endArrow=blockThin;endFill=1;endSize=4;jettySize=auto;orthogonalLoop=1;strokeColor=#4284F3;strokeWidth=2;fontSize=12;fontColor=#000000;align=left;dashed=0;startArrow=blockThin;" parent="1" source="20" target="14" edge="1">
          <mxGeometry relative="1" as="geometry" />
        </mxCell>
        <mxCell id="42" style="edgeStyle=orthogonalEdgeStyle;rounded=0;html=1;labelBackgroundColor=none;startFill=1;startSize=4;endArrow=blockThin;endFill=1;endSize=4;jettySize=auto;orthogonalLoop=1;strokeColor=#4284F3;strokeWidth=2;fontSize=12;fontColor=#000000;align=left;dashed=0;startArrow=blockThin;" parent="1" source="20" target="16" edge="1">
          <mxGeometry relative="1" as="geometry">
            <Array as="points">
              <mxPoint x="210" y="360" />
              <mxPoint x="210" y="485" />
            </Array>
          </mxGeometry>
        </mxCell>
        <mxCell id="43" style="edgeStyle=orthogonalEdgeStyle;rounded=0;html=1;labelBackgroundColor=none;startFill=1;startSize=4;endArrow=blockThin;endFill=1;endSize=4;jettySize=auto;orthogonalLoop=1;strokeColor=#4284F3;strokeWidth=2;fontSize=12;fontColor=#000000;align=left;dashed=0;" parent="1" source="20" target="22" edge="1">
          <mxGeometry relative="1" as="geometry" />
        </mxCell>
        <mxCell id="20" value="" style="strokeColor=#dddddd;fillColor=#ffffff;shadow=1;strokeWidth=1;rounded=1;absoluteArcSize=1;arcSize=2;fontSize=11;fontColor=#9E9E9E;align=center;html=1;" parent="1" vertex="1">
          <mxGeometry x="260" y="330" width="110" height="60" as="geometry" />
        </mxCell>
        <mxCell id="21" value="Cloud&#xa;Network" style="dashed=0;connectable=0;html=1;fillColor=#5184F3;strokeColor=none;shape=mxgraph.gcp2.hexIcon;prIcon=cloud_network;part=1;labelPosition=right;verticalLabelPosition=middle;align=left;verticalAlign=middle;spacingLeft=5;fontColor=#999999;fontSize=12;" parent="20" vertex="1">
          <mxGeometry y="0.5" width="44" height="39" relative="1" as="geometry">
            <mxPoint x="5" y="-19.5" as="offset" />
          </mxGeometry>
        </mxCell>
        <mxCell id="44" style="edgeStyle=orthogonalEdgeStyle;rounded=0;html=1;labelBackgroundColor=none;startFill=1;startSize=4;endArrow=blockThin;endFill=1;endSize=4;jettySize=auto;orthogonalLoop=1;strokeColor=#4284F3;strokeWidth=2;fontSize=12;fontColor=#000000;align=left;dashed=0;startArrow=blockThin;" parent="1" source="22" target="24" edge="1">
          <mxGeometry relative="1" as="geometry" />
        </mxCell>
        <mxCell id="22" value="" style="strokeColor=#dddddd;fillColor=#ffffff;shadow=1;strokeWidth=1;rounded=1;absoluteArcSize=1;arcSize=2;fontSize=11;fontColor=#9E9E9E;align=center;html=1;" parent="1" vertex="1">
          <mxGeometry x="420" y="330" width="130" height="60" as="geometry" />
        </mxCell>
        <mxCell id="23" value="Cloud Load&#xa;Balancing" style="dashed=0;connectable=0;html=1;fillColor=#5184F3;strokeColor=none;shape=mxgraph.gcp2.hexIcon;prIcon=cloud_load_balancing;part=1;labelPosition=right;verticalLabelPosition=middle;align=left;verticalAlign=middle;spacingLeft=5;fontColor=#999999;fontSize=12;" parent="22" vertex="1">
          <mxGeometry y="0.5" width="44" height="39" relative="1" as="geometry">
            <mxPoint x="5" y="-19.5" as="offset" />
          </mxGeometry>
        </mxCell>
        <mxCell id="45" style="edgeStyle=orthogonalEdgeStyle;rounded=0;html=1;labelBackgroundColor=none;startFill=1;startSize=4;endArrow=blockThin;endFill=1;endSize=4;jettySize=auto;orthogonalLoop=1;strokeColor=#4284F3;strokeWidth=2;fontSize=12;fontColor=#000000;align=left;dashed=0;" parent="1" source="24" target="30" edge="1">
          <mxGeometry relative="1" as="geometry">
            <Array as="points">
              <mxPoint x="830" y="360" />
              <mxPoint x="830" y="310" />
            </Array>
          </mxGeometry>
        </mxCell>
        <mxCell id="47" style="edgeStyle=orthogonalEdgeStyle;rounded=0;html=1;labelBackgroundColor=none;startFill=1;startSize=4;endArrow=blockThin;endFill=1;endSize=4;jettySize=auto;orthogonalLoop=1;strokeColor=#9E9E9E;strokeWidth=2;fontSize=12;fontColor=#000000;align=left;dashed=0;" parent="1" source="24" target="34" edge="1">
          <mxGeometry relative="1" as="geometry">
            <Array as="points">
              <mxPoint x="830" y="360" />
              <mxPoint x="830" y="465" />
            </Array>
          </mxGeometry>
        </mxCell>
        <mxCell id="55" style="edgeStyle=orthogonalEdgeStyle;rounded=0;html=1;labelBackgroundColor=none;startFill=1;startSize=4;endArrow=blockThin;endFill=1;endSize=4;jettySize=auto;orthogonalLoop=1;strokeColor=#4284F3;strokeWidth=2;fontSize=12;fontColor=#000000;align=left;dashed=0;" parent="1" source="24" target="4" edge="1">
          <mxGeometry relative="1" as="geometry">
            <Array as="points">
              <mxPoint x="680" y="410" />
              <mxPoint x="680" y="410" />
            </Array>
          </mxGeometry>
        </mxCell>
        <mxCell id="24" value="" style="shape=mxgraph.gcp2.doubleRect;strokeColor=#dddddd;fillColor=#ffffff;shadow=1;strokeWidth=1;fontSize=11;fontColor=#9E9E9E;align=center;html=1;" parent="1" vertex="1">
          <mxGeometry x="595" y="326" width="168" height="68" as="geometry" />
        </mxCell>
        <mxCell id="25" value="&lt;font color=&quot;#000000&quot;&gt;Ingest Server&lt;/font&gt;&lt;br&gt;Compute Engine" style="dashed=0;connectable=0;html=1;fillColor=#5184F3;strokeColor=none;shape=mxgraph.gcp2.hexIcon;prIcon=compute_engine;part=1;labelPosition=right;verticalLabelPosition=middle;align=left;verticalAlign=middle;spacingLeft=5;fontColor=#999999;fontSize=12;" parent="24" vertex="1">
          <mxGeometry y="0.5" width="44" height="39" relative="1" as="geometry">
            <mxPoint x="5" y="-19.5" as="offset" />
          </mxGeometry>
        </mxCell>
        <mxCell id="51" style="edgeStyle=orthogonalEdgeStyle;rounded=0;html=1;labelBackgroundColor=none;startFill=1;startSize=4;endArrow=blockThin;endFill=1;endSize=4;jettySize=auto;orthogonalLoop=1;strokeColor=#9E9E9E;strokeWidth=2;fontSize=12;fontColor=#000000;align=left;dashed=0;startArrow=blockThin;" parent="1" source="26" target="36" edge="1">
          <mxGeometry relative="1" as="geometry">
            <Array as="points">
              <mxPoint x="740" y="620" />
              <mxPoint x="740" y="620" />
            </Array>
          </mxGeometry>
        </mxCell>
        <mxCell id="26" value="" style="strokeColor=#dddddd;fillColor=#ffffff;shadow=1;strokeWidth=1;rounded=1;absoluteArcSize=1;arcSize=2;fontSize=11;fontColor=#9E9E9E;align=center;html=1;" parent="1" vertex="1">
          <mxGeometry x="260" y="590" width="145" height="60" as="geometry" />
        </mxCell>
        <mxCell id="27" value="&lt;font color=&quot;#000000&quot;&gt;Lab notebooks&lt;/font&gt;&lt;br&gt;Cloud Datalab" style="dashed=0;connectable=0;html=1;fillColor=#5184F3;strokeColor=none;shape=mxgraph.gcp2.hexIcon;prIcon=cloud_datalab;part=1;labelPosition=right;verticalLabelPosition=middle;align=left;verticalAlign=middle;spacingLeft=5;fontColor=#999999;fontSize=12;" parent="26" vertex="1">
          <mxGeometry y="0.5" width="44" height="39" relative="1" as="geometry">
            <mxPoint x="5" y="-19.5" as="offset" />
          </mxGeometry>
        </mxCell>
        <mxCell id="48" style="edgeStyle=orthogonalEdgeStyle;rounded=0;html=1;labelBackgroundColor=none;startFill=1;startSize=4;endArrow=none;endFill=0;endSize=4;jettySize=auto;orthogonalLoop=1;strokeColor=#9E9E9E;strokeWidth=2;fontSize=12;fontColor=#000000;align=left;dashed=0;startArrow=blockThin;" parent="1" source="4" target="24" edge="1">
          <mxGeometry relative="1" as="geometry">
            <Array as="points">
              <mxPoint x="830" y="509" />
              <mxPoint x="830" y="360" />
            </Array>
          </mxGeometry>
        </mxCell>
        <mxCell id="28" value="" style="shape=mxgraph.gcp2.doubleRect;strokeColor=#dddddd;fillColor=#ffffff;shadow=1;strokeWidth=1;fontSize=11;fontColor=#9E9E9E;align=center;html=1;" parent="1" vertex="1">
          <mxGeometry x="595" y="470" width="165" height="78" as="geometry" />
        </mxCell>
        <mxCell id="29" value="&lt;font color=&quot;#000000&quot;&gt;HPC Cluster&lt;/font&gt;&lt;br&gt;Compute Engine&lt;hr&gt;&lt;font style=&quot;font-size: 11px&quot;&gt;10 Nodes&lt;/font&gt;" style="dashed=0;connectable=0;html=1;fillColor=#5184F3;strokeColor=none;shape=mxgraph.gcp2.hexIcon;prIcon=compute_engine;part=1;labelPosition=right;verticalLabelPosition=middle;align=left;verticalAlign=top;spacingLeft=5;fontColor=#999999;fontSize=12;spacingTop=-8;" parent="28" vertex="1">
          <mxGeometry width="44" height="39" relative="1" as="geometry">
            <mxPoint x="5" y="7" as="offset" />
          </mxGeometry>
        </mxCell>
        <mxCell id="30" value="" style="strokeColor=#dddddd;fillColor=#ffffff;shadow=1;strokeWidth=1;rounded=1;absoluteArcSize=1;arcSize=2;fontSize=11;fontColor=#9E9E9E;align=center;html=1;" parent="1" vertex="1">
          <mxGeometry x="860" y="296" width="160" height="60" as="geometry" />
        </mxCell>
        <mxCell id="31" value="&lt;font color=&quot;#000000&quot;&gt;Metadata&lt;/font&gt;&lt;br&gt;Cloud SQL" style="dashed=0;connectable=0;html=1;fillColor=#5184F3;strokeColor=none;shape=mxgraph.gcp2.hexIcon;prIcon=cloud_sql;part=1;labelPosition=right;verticalLabelPosition=middle;align=left;verticalAlign=middle;spacingLeft=5;fontColor=#999999;fontSize=12;" parent="30" vertex="1">
          <mxGeometry y="0.5" width="44" height="39" relative="1" as="geometry">
            <mxPoint x="5" y="-19.5" as="offset" />
          </mxGeometry>
        </mxCell>
        <mxCell id="32" value="" style="strokeColor=#dddddd;fillColor=#ffffff;shadow=1;strokeWidth=1;rounded=1;absoluteArcSize=1;arcSize=2;fontSize=11;fontColor=#9E9E9E;align=center;html=1;" parent="1" vertex="1">
          <mxGeometry x="860" y="365" width="160" height="60" as="geometry" />
        </mxCell>
        <mxCell id="33" value="&lt;font color=&quot;#000000&quot;&gt;Raw Datafiles&lt;/font&gt;&lt;br&gt;Cloud Storage" style="dashed=0;connectable=0;html=1;fillColor=#5184F3;strokeColor=none;shape=mxgraph.gcp2.hexIcon;prIcon=cloud_storage;part=1;labelPosition=right;verticalLabelPosition=middle;align=left;verticalAlign=middle;spacingLeft=5;fontColor=#999999;fontSize=12;" parent="32" vertex="1">
          <mxGeometry y="0.5" width="44" height="39" relative="1" as="geometry">
            <mxPoint x="5" y="-19.5" as="offset" />
          </mxGeometry>
        </mxCell>
        <mxCell id="34" value="" style="strokeColor=#dddddd;fillColor=#ffffff;shadow=1;strokeWidth=1;rounded=1;absoluteArcSize=1;arcSize=2;fontSize=11;fontColor=#9E9E9E;align=center;html=1;" parent="1" vertex="1">
          <mxGeometry x="860" y="435" width="160" height="60" as="geometry" />
        </mxCell>
        <mxCell id="35" value="&lt;font color=&quot;#000000&quot;&gt;Processed Data&lt;/font&gt;&lt;br&gt;Cloud Storage" style="dashed=0;connectable=0;html=1;fillColor=#5184F3;strokeColor=none;shape=mxgraph.gcp2.hexIcon;prIcon=cloud_storage;part=1;labelPosition=right;verticalLabelPosition=middle;align=left;verticalAlign=middle;spacingLeft=5;fontColor=#999999;fontSize=12;" parent="34" vertex="1">
          <mxGeometry y="0.5" width="44" height="39" relative="1" as="geometry">
            <mxPoint x="5" y="-19.5" as="offset" />
          </mxGeometry>
        </mxCell>
        <mxCell id="36" value="Analytics" style="rounded=1;absoluteArcSize=1;arcSize=2;html=1;strokeColor=none;gradientColor=none;shadow=0;dashed=0;fontSize=12;fontColor=#9E9E9E;align=left;verticalAlign=top;spacing=10;spacingTop=-4;fillColor=#E1F5FE;" parent="1" vertex="1">
          <mxGeometry x="850" y="560" width="180" height="100" as="geometry" />
        </mxCell>
        <mxCell id="52" style="edgeStyle=orthogonalEdgeStyle;rounded=0;html=1;labelBackgroundColor=none;startFill=1;startSize=4;endArrow=blockThin;endFill=1;endSize=4;jettySize=auto;orthogonalLoop=1;strokeColor=#9E9E9E;strokeWidth=2;fontSize=12;fontColor=#000000;align=left;dashed=0;startArrow=blockThin;" parent="1" source="36" target="5" edge="1">
          <mxGeometry relative="1" as="geometry" />
        </mxCell>
        <mxCell id="37" value="" style="strokeColor=#dddddd;fillColor=#ffffff;shadow=1;strokeWidth=1;rounded=1;absoluteArcSize=1;arcSize=2;fontSize=11;fontColor=#9E9E9E;align=center;html=1;" parent="1" vertex="1">
          <mxGeometry x="860" y="590" width="160" height="60" as="geometry" />
        </mxCell>
        <mxCell id="38" value="&lt;font color=&quot;#000000&quot;&gt;Online Analytics&lt;/font&gt;&lt;br&gt;BigQuery" style="dashed=0;connectable=0;html=1;fillColor=#5184F3;strokeColor=none;shape=mxgraph.gcp2.hexIcon;prIcon=bigquery;part=1;labelPosition=right;verticalLabelPosition=middle;align=left;verticalAlign=middle;spacingLeft=5;fontColor=#999999;fontSize=12;" parent="37" vertex="1">
          <mxGeometry y="0.5" width="44" height="39" relative="1" as="geometry">
            <mxPoint x="5" y="-19.5" as="offset" />
          </mxGeometry>
        </mxCell>
        <mxCell id="46" style="edgeStyle=orthogonalEdgeStyle;rounded=0;html=1;labelBackgroundColor=none;startFill=1;startSize=4;endArrow=blockThin;endFill=1;endSize=4;jettySize=auto;orthogonalLoop=1;strokeColor=#4284F3;strokeWidth=2;fontSize=12;fontColor=#000000;align=left;dashed=0;" parent="1" source="24" target="32" edge="1">
          <mxGeometry relative="1" as="geometry">
            <Array as="points">
              <mxPoint x="830" y="360" />
              <mxPoint x="830" y="405" />
            </Array>
          </mxGeometry>
        </mxCell>
      </root>
    </mxGraphModel>
  </diagram>
  <diagram id="B3jOmvk1aEXctnTMs61U" name="Elements">
    <mxGraphModel dx="981" dy="526" grid="1" gridSize="10" guides="1" tooltips="1" connect="1" arrows="1" fold="1" page="1" pageScale="1" pageWidth="850" pageHeight="1100" math="0" shadow="0">
      <root>
        <mxCell id="YqKSDlxre1iZ1ZDImAOT-0" />
        <mxCell id="YqKSDlxre1iZ1ZDImAOT-1" parent="YqKSDlxre1iZ1ZDImAOT-0" />
        <mxCell id="YqKSDlxre1iZ1ZDImAOT-14" value="" style="group;strokeColor=none;" vertex="1" connectable="0" parent="YqKSDlxre1iZ1ZDImAOT-1">
          <mxGeometry x="450" y="20" width="50" height="50" as="geometry" />
        </mxCell>
        <mxCell id="YqKSDlxre1iZ1ZDImAOT-5" value="" style="ellipse;whiteSpace=wrap;html=1;aspect=fixed;strokeColor=#10739e;fillColor=#b1ddf0;strokeWidth=2;" vertex="1" parent="YqKSDlxre1iZ1ZDImAOT-14">
          <mxGeometry width="50" height="50" as="geometry" />
        </mxCell>
        <mxCell id="YqKSDlxre1iZ1ZDImAOT-13" value="" style="group" vertex="1" connectable="0" parent="YqKSDlxre1iZ1ZDImAOT-14">
          <mxGeometry x="12.5" y="17.8125" width="25" height="14.375" as="geometry" />
        </mxCell>
        <mxCell id="YqKSDlxre1iZ1ZDImAOT-11" value="" style="html=1;shadow=0;dashed=0;align=center;verticalAlign=middle;shape=mxgraph.arrows2.arrow;dy=0.56;dx=7.44;notch=0;strokeColor=none;strokeWidth=3;fillColor=#0D4E6E;" vertex="1" parent="YqKSDlxre1iZ1ZDImAOT-13">
          <mxGeometry width="25" height="6.875" as="geometry" />
        </mxCell>
        <mxCell id="YqKSDlxre1iZ1ZDImAOT-12" value="" style="html=1;shadow=0;dashed=0;align=center;verticalAlign=middle;shape=mxgraph.arrows2.arrow;dy=0.56;dx=7.44;notch=0;strokeColor=none;strokeWidth=3;fillColor=#0D4E6E;rotation=-180;" vertex="1" parent="YqKSDlxre1iZ1ZDImAOT-13">
          <mxGeometry y="7.5" width="25" height="6.875" as="geometry" />
        </mxCell>
        <mxCell id="YqKSDlxre1iZ1ZDImAOT-15" value="" style="html=1;shadow=0;dashed=0;align=center;verticalAlign=middle;shape=mxgraph.arrows2.arrow;dy=0.56;dx=7.44;notch=0;strokeColor=none;strokeWidth=3;fillColor=#0D4E6E;" vertex="1" parent="YqKSDlxre1iZ1ZDImAOT-1">
          <mxGeometry x="40" y="174.5" width="40" height="11" as="geometry" />
        </mxCell>
        <mxCell id="YqKSDlxre1iZ1ZDImAOT-16" value="" style="group" vertex="1" connectable="0" parent="YqKSDlxre1iZ1ZDImAOT-1">
          <mxGeometry x="120" y="169.5" width="40" height="21" as="geometry" />
        </mxCell>
        <mxCell id="YqKSDlxre1iZ1ZDImAOT-9" value="" style="html=1;shadow=0;dashed=0;align=center;verticalAlign=middle;shape=mxgraph.arrows2.arrow;dy=0.56;dx=7.44;notch=0;strokeColor=none;strokeWidth=3;fillColor=#0D4E6E;" vertex="1" parent="YqKSDlxre1iZ1ZDImAOT-16">
          <mxGeometry width="40" height="11" as="geometry" />
        </mxCell>
        <mxCell id="YqKSDlxre1iZ1ZDImAOT-10" value="" style="html=1;shadow=0;dashed=0;align=center;verticalAlign=middle;shape=mxgraph.arrows2.arrow;dy=0.56;dx=7.44;notch=0;strokeColor=none;strokeWidth=3;fillColor=#0D4E6E;rotation=-180;" vertex="1" parent="YqKSDlxre1iZ1ZDImAOT-16">
          <mxGeometry y="10" width="40" height="11" as="geometry" />
        </mxCell>
        <mxCell id="YqKSDlxre1iZ1ZDImAOT-18" value="" style="rounded=1;whiteSpace=wrap;html=1;strokeColor=#4D4D4D;strokeWidth=1;fillColor=#b1ddf0;arcSize=3;" vertex="1" parent="YqKSDlxre1iZ1ZDImAOT-1">
          <mxGeometry x="40" y="200" width="120" height="120" as="geometry" />
        </mxCell>
        <mxCell id="YqKSDlxre1iZ1ZDImAOT-19" value="" style="rounded=1;whiteSpace=wrap;html=1;strokeWidth=1;strokeColor=none;" vertex="1" parent="YqKSDlxre1iZ1ZDImAOT-1">
          <mxGeometry x="50" y="210" width="100" height="20" as="geometry" />
        </mxCell>
        <mxCell id="YqKSDlxre1iZ1ZDImAOT-20" value="" style="rounded=1;whiteSpace=wrap;html=1;strokeWidth=1;strokeColor=none;" vertex="1" parent="YqKSDlxre1iZ1ZDImAOT-1">
          <mxGeometry x="50" y="237" width="100" height="20" as="geometry" />
        </mxCell>
        <mxCell id="YqKSDlxre1iZ1ZDImAOT-21" value="" style="rounded=1;whiteSpace=wrap;html=1;strokeWidth=1;strokeColor=none;" vertex="1" parent="YqKSDlxre1iZ1ZDImAOT-1">
          <mxGeometry x="50" y="264" width="100" height="20" as="geometry" />
        </mxCell>
        <mxCell id="YqKSDlxre1iZ1ZDImAOT-22" value="" style="rounded=1;whiteSpace=wrap;html=1;strokeWidth=1;strokeColor=none;" vertex="1" parent="YqKSDlxre1iZ1ZDImAOT-1">
          <mxGeometry x="50" y="291" width="100" height="20" as="geometry" />
        </mxCell>
        <mxCell id="YqKSDlxre1iZ1ZDImAOT-29" value="&lt;div style=&quot;font-size: 12px;&quot;&gt;&lt;span style=&quot;font-size: 12px;&quot;&gt;PRODUCER&lt;/span&gt;&lt;/div&gt;" style="rounded=1;whiteSpace=wrap;html=1;strokeWidth=1;strokeColor=#4D4D4D;fillColor=#f0a30a;fontColor=#666666;fontSize=12;fontStyle=1;fontFamily=Verdana;verticalAlign=middle;align=center;arcSize=5;" vertex="1" parent="YqKSDlxre1iZ1ZDImAOT-1">
          <mxGeometry x="40" y="80" width="100" height="50" as="geometry" />
        </mxCell>
        <mxCell id="YqKSDlxre1iZ1ZDImAOT-30" value="&lt;div style=&quot;font-size: 12px&quot;&gt;&lt;span style=&quot;font-size: 12px&quot;&gt;CONSUMER&lt;/span&gt;&lt;/div&gt;" style="rounded=1;whiteSpace=wrap;html=1;strokeWidth=1;strokeColor=#4D4D4D;fillColor=#60a917;fontColor=#666666;fontSize=12;fontStyle=1;fontFamily=Verdana;verticalAlign=middle;align=center;arcSize=8;" vertex="1" parent="YqKSDlxre1iZ1ZDImAOT-1">
          <mxGeometry x="160" y="80" width="100" height="50" as="geometry" />
        </mxCell>
        <mxCell id="YqKSDlxre1iZ1ZDImAOT-36" value="" style="group" vertex="1" connectable="0" parent="YqKSDlxre1iZ1ZDImAOT-1">
          <mxGeometry x="450" y="100" width="70" height="60" as="geometry" />
        </mxCell>
        <mxCell id="YqKSDlxre1iZ1ZDImAOT-31" value="" style="rounded=1;whiteSpace=wrap;html=1;strokeColor=#4D4D4D;strokeWidth=1;fillColor=#b1ddf0;arcSize=3;" vertex="1" parent="YqKSDlxre1iZ1ZDImAOT-36">
          <mxGeometry width="70" height="60" as="geometry" />
        </mxCell>
        <mxCell id="YqKSDlxre1iZ1ZDImAOT-32" value="" style="rounded=1;whiteSpace=wrap;html=1;strokeWidth=1;strokeColor=none;" vertex="1" parent="YqKSDlxre1iZ1ZDImAOT-36">
          <mxGeometry x="5.833333333333333" y="5" width="58.333333333333336" height="10" as="geometry" />
        </mxCell>
        <mxCell id="YqKSDlxre1iZ1ZDImAOT-33" value="" style="rounded=1;whiteSpace=wrap;html=1;strokeWidth=1;strokeColor=none;" vertex="1" parent="YqKSDlxre1iZ1ZDImAOT-36">
          <mxGeometry x="5.833333333333333" y="18.5" width="58.333333333333336" height="10" as="geometry" />
        </mxCell>
        <mxCell id="YqKSDlxre1iZ1ZDImAOT-34" value="" style="rounded=1;whiteSpace=wrap;html=1;strokeWidth=1;strokeColor=none;" vertex="1" parent="YqKSDlxre1iZ1ZDImAOT-36">
          <mxGeometry x="5.833333333333333" y="32" width="58.333333333333336" height="10" as="geometry" />
        </mxCell>
        <mxCell id="YqKSDlxre1iZ1ZDImAOT-35" value="" style="rounded=1;whiteSpace=wrap;html=1;strokeWidth=1;strokeColor=#BD7000;fillColor=#f0a30a;fontColor=#000000;" vertex="1" parent="YqKSDlxre1iZ1ZDImAOT-36">
          <mxGeometry x="5.833333333333333" y="45.5" width="58.333333333333336" height="10" as="geometry" />
        </mxCell>
        <mxCell id="upHrF801UyjuBYo0aSro-0" value="&lt;font&gt;&lt;span&gt;BROKER&lt;/span&gt;&lt;/font&gt;" style="rounded=1;whiteSpace=wrap;html=1;strokeColor=#666666;strokeWidth=2;fillColor=#bac8d3;arcSize=3;verticalAlign=top;fontFamily=Helvetica;fontStyle=1;fontColor=#4D4D4D;" vertex="1" parent="YqKSDlxre1iZ1ZDImAOT-1">
          <mxGeometry x="230" y="191" width="250" height="120" as="geometry" />
        </mxCell>
        <mxCell id="upHrF801UyjuBYo0aSro-2" value="&lt;div style=&quot;font-size: 12px&quot;&gt;&lt;span style=&quot;font-size: 12px&quot;&gt;BROKER&lt;/span&gt;&lt;/div&gt;" style="rounded=1;whiteSpace=wrap;html=1;strokeWidth=1;strokeColor=#666666;fillColor=#bac8d3;fontSize=12;fontStyle=1;fontFamily=Verdana;verticalAlign=middle;align=center;fontColor=#4D4D4D;arcSize=8;" vertex="1" parent="YqKSDlxre1iZ1ZDImAOT-1">
          <mxGeometry x="280" y="80" width="100" height="50" as="geometry" />
        </mxCell>
        <mxCell id="upHrF801UyjuBYo0aSro-3" value="&lt;div style=&quot;font-size: 12px;&quot;&gt;&lt;span style=&quot;font-size: 12px;&quot;&gt;PRODUCER&lt;/span&gt;&lt;/div&gt;" style="rounded=1;whiteSpace=wrap;html=1;strokeWidth=1;strokeColor=#4D4D4D;fillColor=#f0a30a;fontColor=#666666;fontSize=12;fontStyle=1;fontFamily=Verdana;verticalAlign=middle;align=center;" vertex="1" parent="YqKSDlxre1iZ1ZDImAOT-1">
          <mxGeometry x="40" y="20" width="100" height="20" as="geometry" />
        </mxCell>
        <mxCell id="upHrF801UyjuBYo0aSro-4" value="&lt;div style=&quot;font-size: 12px&quot;&gt;&lt;span style=&quot;font-size: 12px&quot;&gt;CONSUMER&lt;/span&gt;&lt;/div&gt;" style="rounded=1;whiteSpace=wrap;html=1;strokeWidth=1;strokeColor=#4D4D4D;fillColor=#60a917;fontColor=#666666;fontSize=12;fontStyle=1;fontFamily=Verdana;verticalAlign=middle;align=center;" vertex="1" parent="YqKSDlxre1iZ1ZDImAOT-1">
          <mxGeometry x="160" y="20" width="100" height="20" as="geometry" />
        </mxCell>
        <mxCell id="upHrF801UyjuBYo0aSro-5" value="&lt;div style=&quot;font-size: 12px&quot;&gt;&lt;span style=&quot;font-size: 12px&quot;&gt;BROKER&lt;/span&gt;&lt;/div&gt;" style="rounded=1;whiteSpace=wrap;html=1;strokeWidth=1;strokeColor=#666666;fillColor=#bac8d3;fontSize=12;fontStyle=1;fontFamily=Verdana;verticalAlign=middle;align=center;fontColor=#4D4D4D;" vertex="1" parent="YqKSDlxre1iZ1ZDImAOT-1">
          <mxGeometry x="280" y="20" width="100" height="20" as="geometry" />
        </mxCell>
        <mxCell id="6WgnbKtkuNcWpFQeK_3L-21" value="" style="group" vertex="1" connectable="0" parent="YqKSDlxre1iZ1ZDImAOT-1">
          <mxGeometry x="40" y="400" width="370" height="90" as="geometry" />
        </mxCell>
        <mxCell id="6WgnbKtkuNcWpFQeK_3L-6" value="" style="rounded=1;whiteSpace=wrap;html=1;strokeColor=#4D4D4D;strokeWidth=1;fillColor=#b1ddf0;arcSize=3;" vertex="1" parent="6WgnbKtkuNcWpFQeK_3L-21">
          <mxGeometry width="370" height="90" as="geometry" />
        </mxCell>
        <mxCell id="6WgnbKtkuNcWpFQeK_3L-7" value="" style="rounded=1;whiteSpace=wrap;html=1;strokeWidth=1;strokeColor=#BD7000;fillColor=#f0a30a;fontColor=#000000;" vertex="1" parent="6WgnbKtkuNcWpFQeK_3L-21">
          <mxGeometry x="11" y="10" width="20" height="70" as="geometry" />
        </mxCell>
        <mxCell id="6WgnbKtkuNcWpFQeK_3L-10" value="" style="rounded=1;whiteSpace=wrap;html=1;strokeWidth=1;strokeColor=#BD7000;fillColor=#f0a30a;fontColor=#000000;" vertex="1" parent="6WgnbKtkuNcWpFQeK_3L-21">
          <mxGeometry x="40" y="10" width="20" height="70" as="geometry" />
        </mxCell>
        <mxCell id="6WgnbKtkuNcWpFQeK_3L-11" value="" style="rounded=1;whiteSpace=wrap;html=1;strokeWidth=1;strokeColor=none;" vertex="1" parent="6WgnbKtkuNcWpFQeK_3L-21">
          <mxGeometry x="70" y="10" width="20" height="70" as="geometry" />
        </mxCell>
        <mxCell id="6WgnbKtkuNcWpFQeK_3L-12" value="" style="rounded=1;whiteSpace=wrap;html=1;strokeWidth=1;strokeColor=none;" vertex="1" parent="6WgnbKtkuNcWpFQeK_3L-21">
          <mxGeometry x="100" y="10" width="20" height="70" as="geometry" />
        </mxCell>
        <mxCell id="6WgnbKtkuNcWpFQeK_3L-13" value="" style="rounded=1;whiteSpace=wrap;html=1;strokeWidth=1;strokeColor=none;" vertex="1" parent="6WgnbKtkuNcWpFQeK_3L-21">
          <mxGeometry x="160" y="10" width="20" height="70" as="geometry" />
        </mxCell>
        <mxCell id="6WgnbKtkuNcWpFQeK_3L-14" value="" style="rounded=1;whiteSpace=wrap;html=1;strokeWidth=1;strokeColor=none;" vertex="1" parent="6WgnbKtkuNcWpFQeK_3L-21">
          <mxGeometry x="130" y="10" width="20" height="70" as="geometry" />
        </mxCell>
        <mxCell id="6WgnbKtkuNcWpFQeK_3L-15" value="" style="rounded=1;whiteSpace=wrap;html=1;strokeWidth=1;strokeColor=none;" vertex="1" parent="6WgnbKtkuNcWpFQeK_3L-21">
          <mxGeometry x="190" y="10" width="20" height="70" as="geometry" />
        </mxCell>
        <mxCell id="6WgnbKtkuNcWpFQeK_3L-16" value="" style="rounded=1;whiteSpace=wrap;html=1;strokeWidth=1;strokeColor=none;" vertex="1" parent="6WgnbKtkuNcWpFQeK_3L-21">
          <mxGeometry x="219" y="10" width="20" height="70" as="geometry" />
        </mxCell>
        <mxCell id="6WgnbKtkuNcWpFQeK_3L-17" value="" style="rounded=1;whiteSpace=wrap;html=1;strokeWidth=1;strokeColor=none;" vertex="1" parent="6WgnbKtkuNcWpFQeK_3L-21">
          <mxGeometry x="249" y="10" width="20" height="70" as="geometry" />
        </mxCell>
        <mxCell id="6WgnbKtkuNcWpFQeK_3L-18" value="" style="rounded=1;whiteSpace=wrap;html=1;strokeWidth=1;strokeColor=none;" vertex="1" parent="6WgnbKtkuNcWpFQeK_3L-21">
          <mxGeometry x="279" y="10" width="20" height="70" as="geometry" />
        </mxCell>
        <mxCell id="6WgnbKtkuNcWpFQeK_3L-19" value="" style="rounded=1;whiteSpace=wrap;html=1;strokeWidth=1;strokeColor=none;" vertex="1" parent="6WgnbKtkuNcWpFQeK_3L-21">
          <mxGeometry x="339" y="10" width="20" height="70" as="geometry" />
        </mxCell>
        <mxCell id="6WgnbKtkuNcWpFQeK_3L-20" value="" style="rounded=1;whiteSpace=wrap;html=1;strokeWidth=1;strokeColor=none;" vertex="1" parent="6WgnbKtkuNcWpFQeK_3L-21">
          <mxGeometry x="309" y="10" width="20" height="70" as="geometry" />
        </mxCell>
        <mxCell id="3ZVJbkMtzbxR_xoNudZL-0" value="&lt;font style=&quot;font-size: 14px;&quot;&gt;&lt;span style=&quot;font-size: 14px;&quot;&gt;Connection&lt;/span&gt;&lt;/font&gt;" style="rounded=1;whiteSpace=wrap;html=1;strokeWidth=1;arcSize=1;verticalAlign=top;fontFamily=Helvetica;fontStyle=1;fillColor=#eeeeee;strokeColor=#666666;fontSize=14;" vertex="1" parent="YqKSDlxre1iZ1ZDImAOT-1">
          <mxGeometry x="100" y="570" width="310" height="220" as="geometry" />
        </mxCell>
        <mxCell id="3ZVJbkMtzbxR_xoNudZL-1" value="" style="shape=cylinder3;whiteSpace=wrap;html=1;boundedLbl=1;backgroundOutline=1;size=9.793103448275815;rounded=1;labelBackgroundColor=none;fontFamily=Verdana;fontSize=10;strokeColor=#999999;strokeWidth=1;fillColor=#D4E1F5;rotation=90;gradientColor=none;" vertex="1" parent="YqKSDlxre1iZ1ZDImAOT-1">
          <mxGeometry x="166.88" y="550" width="176.25" height="278.75" as="geometry" />
        </mxCell>
        <mxCell id="3ZVJbkMtzbxR_xoNudZL-15" value="" style="group" vertex="1" connectable="0" parent="YqKSDlxre1iZ1ZDImAOT-1">
          <mxGeometry x="129.635" y="614.2449999999999" width="238.75" height="43.12000000000012" as="geometry" />
        </mxCell>
        <mxCell id="3ZVJbkMtzbxR_xoNudZL-11" value="" style="shape=cylinder3;whiteSpace=wrap;html=1;boundedLbl=1;backgroundOutline=1;size=5.385000000000105;rounded=1;labelBackgroundColor=none;fontFamily=Verdana;fontSize=10;strokeColor=#999999;strokeWidth=1;fillColor=#D4E1F5;rotation=90;gradientColor=none;" vertex="1" parent="3ZVJbkMtzbxR_xoNudZL-15">
          <mxGeometry x="97.815" y="-97.81499999999994" width="43.12" height="238.75" as="geometry" />
        </mxCell>
        <mxCell id="3ZVJbkMtzbxR_xoNudZL-14" value="Channel" style="text;html=1;resizable=0;autosize=1;align=center;verticalAlign=middle;points=[];fillColor=none;strokeColor=none;rounded=0;labelBackgroundColor=none;fontFamily=Verdana;fontSize=11;fontColor=#666666;fontStyle=2" vertex="1" parent="3ZVJbkMtzbxR_xoNudZL-15">
          <mxGeometry x="87.245" y="11.555000000000064" width="60" height="20" as="geometry" />
        </mxCell>
        <mxCell id="3ZVJbkMtzbxR_xoNudZL-17" value="" style="group" vertex="1" connectable="0" parent="YqKSDlxre1iZ1ZDImAOT-1">
          <mxGeometry x="120.005" y="670.0049999999999" width="238.75" height="43.12000000000012" as="geometry" />
        </mxCell>
        <mxCell id="3ZVJbkMtzbxR_xoNudZL-18" value="" style="shape=cylinder3;whiteSpace=wrap;html=1;boundedLbl=1;backgroundOutline=1;size=5.385000000000105;rounded=1;labelBackgroundColor=none;fontFamily=Verdana;fontSize=10;strokeColor=#999999;strokeWidth=1;fillColor=#D4E1F5;rotation=90;gradientColor=none;" vertex="1" parent="3ZVJbkMtzbxR_xoNudZL-17">
          <mxGeometry x="97.815" y="-97.81499999999994" width="43.12" height="238.75" as="geometry" />
        </mxCell>
        <mxCell id="3ZVJbkMtzbxR_xoNudZL-19" value="Channel" style="text;html=1;resizable=0;autosize=1;align=center;verticalAlign=middle;points=[];fillColor=none;strokeColor=none;rounded=0;labelBackgroundColor=none;fontFamily=Verdana;fontSize=11;fontColor=#666666;fontStyle=2" vertex="1" parent="3ZVJbkMtzbxR_xoNudZL-17">
          <mxGeometry x="87.245" y="11.555000000000064" width="60" height="20" as="geometry" />
        </mxCell>
        <mxCell id="3ZVJbkMtzbxR_xoNudZL-20" value="" style="group" vertex="1" connectable="0" parent="YqKSDlxre1iZ1ZDImAOT-1">
          <mxGeometry x="129.635" y="725.0049999999999" width="238.75" height="43.12000000000012" as="geometry" />
        </mxCell>
        <mxCell id="3ZVJbkMtzbxR_xoNudZL-21" value="" style="shape=cylinder3;whiteSpace=wrap;html=1;boundedLbl=1;backgroundOutline=1;size=5.385000000000105;rounded=1;labelBackgroundColor=none;fontFamily=Verdana;fontSize=10;strokeColor=#999999;strokeWidth=1;fillColor=#D4E1F5;rotation=90;gradientColor=none;" vertex="1" parent="3ZVJbkMtzbxR_xoNudZL-20">
          <mxGeometry x="97.815" y="-97.81499999999994" width="43.12" height="238.75" as="geometry" />
        </mxCell>
        <mxCell id="3ZVJbkMtzbxR_xoNudZL-22" value="Channel" style="text;html=1;resizable=0;autosize=1;align=center;verticalAlign=middle;points=[];fillColor=none;strokeColor=none;rounded=0;labelBackgroundColor=none;fontFamily=Verdana;fontSize=11;fontColor=#666666;fontStyle=2" vertex="1" parent="3ZVJbkMtzbxR_xoNudZL-20">
          <mxGeometry x="87.245" y="11.555000000000064" width="60" height="20" as="geometry" />
        </mxCell>
      </root>
    </mxGraphModel>
  </diagram>
  <diagram id="TBWlPr29oDK_GVAUnm6x" name="AMQP">
    <mxGraphModel dx="981" dy="526" grid="1" gridSize="10" guides="1" tooltips="1" connect="1" arrows="1" fold="1" page="1" pageScale="1" pageWidth="850" pageHeight="1100" math="0" shadow="0">
      <root>
        <mxCell id="TxGssMW9WVWjq3D_41pU-0" />
        <mxCell id="TxGssMW9WVWjq3D_41pU-1" parent="TxGssMW9WVWjq3D_41pU-0" />
        <mxCell id="ya0wc5rrFNln5pxrfxZn-0" value="&lt;font&gt;&lt;span&gt;BROKER&lt;/span&gt;&lt;/font&gt;" style="rounded=1;whiteSpace=wrap;html=1;strokeColor=#666666;strokeWidth=2;fillColor=#bac8d3;arcSize=3;verticalAlign=top;fontFamily=Helvetica;fontStyle=1;fontColor=#4D4D4D;" vertex="1" parent="TxGssMW9WVWjq3D_41pU-1">
          <mxGeometry x="220" y="166" width="250" height="120" as="geometry" />
        </mxCell>
        <mxCell id="ya0wc5rrFNln5pxrfxZn-12" value="" style="edgeStyle=orthogonalEdgeStyle;rounded=0;orthogonalLoop=1;jettySize=auto;html=1;fontFamily=Helvetica;fontSize=12;fontColor=#4D4D4D;endArrow=open;endFill=0;strokeColor=#999999;strokeWidth=5;fillColor=#0D4E6E;" edge="1" parent="TxGssMW9WVWjq3D_41pU-1" target="k5pS3350jTBpCERLVuQG-6">
          <mxGeometry relative="1" as="geometry">
            <mxPoint x="440" y="240" as="sourcePoint" />
          </mxGeometry>
        </mxCell>
        <mxCell id="ya0wc5rrFNln5pxrfxZn-22" value="" style="edgeStyle=orthogonalEdgeStyle;rounded=0;orthogonalLoop=1;jettySize=auto;html=1;fontFamily=Verdana;fontSize=8;fontColor=#4D4D4D;endArrow=open;endFill=0;strokeColor=#999999;strokeWidth=5;fillColor=#0D4E6E;entryX=0;entryY=0.5;entryDx=0;entryDy=0;" edge="1" parent="TxGssMW9WVWjq3D_41pU-1" source="P5JGzwoiEiimYcwTsbBA-0" target="k5pS3350jTBpCERLVuQG-15">
          <mxGeometry relative="1" as="geometry">
            <mxPoint x="220" y="240" as="targetPoint" />
          </mxGeometry>
        </mxCell>
        <mxCell id="P5JGzwoiEiimYcwTsbBA-0" value="&lt;div style=&quot;font-size: 12px;&quot;&gt;&lt;span style=&quot;font-size: 12px;&quot;&gt;PRODUCER&lt;/span&gt;&lt;/div&gt;" style="rounded=1;whiteSpace=wrap;html=1;strokeWidth=2;strokeColor=#4D4D4D;fillColor=#f0a30a;fontColor=#666666;fontSize=12;fontStyle=1;fontFamily=Verdana;verticalAlign=middle;align=center;" vertex="1" parent="TxGssMW9WVWjq3D_41pU-1">
          <mxGeometry x="30" y="230" width="100" height="20" as="geometry" />
        </mxCell>
        <mxCell id="k5pS3350jTBpCERLVuQG-0" value="" style="group;strokeColor=none;" vertex="1" connectable="0" parent="TxGssMW9WVWjq3D_41pU-1">
          <mxGeometry x="240" y="30" width="50" height="50" as="geometry" />
        </mxCell>
        <mxCell id="k5pS3350jTBpCERLVuQG-1" value="" style="ellipse;whiteSpace=wrap;html=1;aspect=fixed;strokeColor=#10739e;fillColor=#b1ddf0;strokeWidth=2;" vertex="1" parent="k5pS3350jTBpCERLVuQG-0">
          <mxGeometry width="50" height="50" as="geometry" />
        </mxCell>
        <mxCell id="k5pS3350jTBpCERLVuQG-2" value="" style="group" vertex="1" connectable="0" parent="k5pS3350jTBpCERLVuQG-0">
          <mxGeometry x="12.5" y="17.8125" width="25" height="14.375" as="geometry" />
        </mxCell>
        <mxCell id="k5pS3350jTBpCERLVuQG-3" value="" style="html=1;shadow=0;dashed=0;align=center;verticalAlign=middle;shape=mxgraph.arrows2.arrow;dy=0.56;dx=7.44;notch=0;strokeColor=none;strokeWidth=3;fillColor=#0D4E6E;" vertex="1" parent="k5pS3350jTBpCERLVuQG-2">
          <mxGeometry width="25" height="6.875" as="geometry" />
        </mxCell>
        <mxCell id="k5pS3350jTBpCERLVuQG-4" value="" style="html=1;shadow=0;dashed=0;align=center;verticalAlign=middle;shape=mxgraph.arrows2.arrow;dy=0.56;dx=7.44;notch=0;strokeColor=none;strokeWidth=3;fillColor=#0D4E6E;rotation=-180;" vertex="1" parent="k5pS3350jTBpCERLVuQG-2">
          <mxGeometry y="7.5" width="25" height="6.875" as="geometry" />
        </mxCell>
        <mxCell id="k5pS3350jTBpCERLVuQG-5" value="&lt;div style=&quot;font-size: 12px;&quot;&gt;&lt;span style=&quot;font-size: 12px;&quot;&gt;PRODUCER&lt;/span&gt;&lt;/div&gt;" style="rounded=1;whiteSpace=wrap;html=1;strokeWidth=2;strokeColor=#4D4D4D;fillColor=#f0a30a;fontColor=#666666;fontSize=12;fontStyle=1;fontFamily=Verdana;verticalAlign=middle;align=center;" vertex="1" parent="TxGssMW9WVWjq3D_41pU-1">
          <mxGeometry x="80" y="20" width="100" height="20" as="geometry" />
        </mxCell>
        <mxCell id="k5pS3350jTBpCERLVuQG-6" value="&lt;div style=&quot;font-size: 12px&quot;&gt;&lt;span style=&quot;font-size: 12px&quot;&gt;CONSUMER&lt;/span&gt;&lt;/div&gt;" style="rounded=1;whiteSpace=wrap;html=1;strokeWidth=2;strokeColor=#4D4D4D;fillColor=#97D077;fontColor=#666666;fontSize=12;fontStyle=1;fontFamily=Verdana;verticalAlign=middle;align=center;" vertex="1" parent="TxGssMW9WVWjq3D_41pU-1">
          <mxGeometry x="560" y="230" width="100" height="20" as="geometry" />
        </mxCell>
        <mxCell id="k5pS3350jTBpCERLVuQG-7" value="" style="group;strokeWidth=2;" vertex="1" connectable="0" parent="TxGssMW9WVWjq3D_41pU-1">
          <mxGeometry x="340" y="25" width="70" height="60" as="geometry" />
        </mxCell>
        <mxCell id="k5pS3350jTBpCERLVuQG-8" value="" style="rounded=1;whiteSpace=wrap;html=1;strokeColor=#4D4D4D;strokeWidth=2;fillColor=#b1ddf0;arcSize=3;" vertex="1" parent="k5pS3350jTBpCERLVuQG-7">
          <mxGeometry width="70" height="60" as="geometry" />
        </mxCell>
        <mxCell id="k5pS3350jTBpCERLVuQG-9" value="" style="rounded=1;whiteSpace=wrap;html=1;strokeWidth=1;strokeColor=none;" vertex="1" parent="k5pS3350jTBpCERLVuQG-7">
          <mxGeometry x="5.833333333333333" y="5" width="58.333333333333336" height="10" as="geometry" />
        </mxCell>
        <mxCell id="k5pS3350jTBpCERLVuQG-10" value="" style="rounded=1;whiteSpace=wrap;html=1;strokeWidth=1;strokeColor=none;" vertex="1" parent="k5pS3350jTBpCERLVuQG-7">
          <mxGeometry x="5.833333333333333" y="18.5" width="58.333333333333336" height="10" as="geometry" />
        </mxCell>
        <mxCell id="k5pS3350jTBpCERLVuQG-11" value="" style="rounded=1;whiteSpace=wrap;html=1;strokeWidth=1;strokeColor=none;" vertex="1" parent="k5pS3350jTBpCERLVuQG-7">
          <mxGeometry x="5.833333333333333" y="32" width="58.333333333333336" height="10" as="geometry" />
        </mxCell>
        <mxCell id="k5pS3350jTBpCERLVuQG-12" value="" style="rounded=1;whiteSpace=wrap;html=1;strokeWidth=1;strokeColor=#BD7000;fillColor=#f0a30a;fontColor=#000000;" vertex="1" parent="k5pS3350jTBpCERLVuQG-7">
          <mxGeometry x="5.833333333333333" y="45.5" width="58.333333333333336" height="10" as="geometry" />
        </mxCell>
        <mxCell id="k5pS3350jTBpCERLVuQG-14" value="" style="group;strokeColor=none;" vertex="1" connectable="0" parent="TxGssMW9WVWjq3D_41pU-1">
          <mxGeometry x="240" y="215" width="50" height="50" as="geometry" />
        </mxCell>
        <mxCell id="k5pS3350jTBpCERLVuQG-15" value="" style="ellipse;whiteSpace=wrap;html=1;aspect=fixed;strokeColor=#10739e;fillColor=#b1ddf0;strokeWidth=2;" vertex="1" parent="k5pS3350jTBpCERLVuQG-14">
          <mxGeometry width="50" height="50" as="geometry" />
        </mxCell>
        <mxCell id="k5pS3350jTBpCERLVuQG-16" value="" style="group" vertex="1" connectable="0" parent="k5pS3350jTBpCERLVuQG-14">
          <mxGeometry x="12.5" y="17.8125" width="25" height="14.375" as="geometry" />
        </mxCell>
        <mxCell id="k5pS3350jTBpCERLVuQG-17" value="" style="html=1;shadow=0;dashed=0;align=center;verticalAlign=middle;shape=mxgraph.arrows2.arrow;dy=0.56;dx=7.44;notch=0;strokeColor=none;strokeWidth=3;fillColor=#0D4E6E;" vertex="1" parent="k5pS3350jTBpCERLVuQG-16">
          <mxGeometry width="25" height="6.875" as="geometry" />
        </mxCell>
        <mxCell id="k5pS3350jTBpCERLVuQG-18" value="" style="html=1;shadow=0;dashed=0;align=center;verticalAlign=middle;shape=mxgraph.arrows2.arrow;dy=0.56;dx=7.44;notch=0;strokeColor=none;strokeWidth=3;fillColor=#0D4E6E;rotation=-180;" vertex="1" parent="k5pS3350jTBpCERLVuQG-16">
          <mxGeometry y="7.5" width="25" height="6.875" as="geometry" />
        </mxCell>
        <mxCell id="ya0wc5rrFNln5pxrfxZn-1" value="" style="group;strokeWidth=2;" vertex="1" connectable="0" parent="TxGssMW9WVWjq3D_41pU-1">
          <mxGeometry x="376" y="212" width="65" height="55" as="geometry" />
        </mxCell>
        <mxCell id="ya0wc5rrFNln5pxrfxZn-2" value="" style="rounded=1;whiteSpace=wrap;html=1;strokeColor=#4D4D4D;strokeWidth=2;fillColor=#b1ddf0;arcSize=3;" vertex="1" parent="ya0wc5rrFNln5pxrfxZn-1">
          <mxGeometry width="65" height="54.99999999999999" as="geometry" />
        </mxCell>
        <mxCell id="ya0wc5rrFNln5pxrfxZn-3" value="" style="rounded=1;whiteSpace=wrap;html=1;strokeWidth=1;strokeColor=none;" vertex="1" parent="ya0wc5rrFNln5pxrfxZn-1">
          <mxGeometry x="5.416666666666666" y="4.583333333333333" width="54.16666666666667" height="9.166666666666666" as="geometry" />
        </mxCell>
        <mxCell id="ya0wc5rrFNln5pxrfxZn-4" value="" style="rounded=1;whiteSpace=wrap;html=1;strokeWidth=1;strokeColor=none;" vertex="1" parent="ya0wc5rrFNln5pxrfxZn-1">
          <mxGeometry x="5.416666666666666" y="16.958333333333332" width="54.16666666666667" height="9.166666666666666" as="geometry" />
        </mxCell>
        <mxCell id="ya0wc5rrFNln5pxrfxZn-5" value="" style="rounded=1;whiteSpace=wrap;html=1;strokeWidth=1;strokeColor=none;" vertex="1" parent="ya0wc5rrFNln5pxrfxZn-1">
          <mxGeometry x="5.416666666666666" y="29.333333333333332" width="54.16666666666667" height="9.166666666666666" as="geometry" />
        </mxCell>
        <mxCell id="ya0wc5rrFNln5pxrfxZn-6" value="" style="rounded=1;whiteSpace=wrap;html=1;strokeWidth=1;strokeColor=#BD7000;fillColor=#f0a30a;fontColor=#000000;" vertex="1" parent="ya0wc5rrFNln5pxrfxZn-1">
          <mxGeometry x="5.416666666666666" y="41.70833333333333" width="54.16666666666667" height="9.166666666666666" as="geometry" />
        </mxCell>
        <mxCell id="ya0wc5rrFNln5pxrfxZn-10" value="" style="edgeStyle=orthogonalEdgeStyle;rounded=0;orthogonalLoop=1;jettySize=auto;html=1;fontFamily=Helvetica;fontSize=12;fontColor=#4D4D4D;endArrow=open;endFill=0;strokeColor=#999999;strokeWidth=5;fillColor=#0D4E6E;" edge="1" parent="TxGssMW9WVWjq3D_41pU-1" source="k5pS3350jTBpCERLVuQG-15" target="ya0wc5rrFNln5pxrfxZn-2">
          <mxGeometry relative="1" as="geometry" />
        </mxCell>
        <mxCell id="ya0wc5rrFNln5pxrfxZn-14" value="&lt;i&gt;Routes&lt;br&gt;&lt;/i&gt;&lt;br&gt;&amp;nbsp;&lt;br&gt;" style="edgeLabel;html=1;align=center;verticalAlign=middle;resizable=0;points=[];fontSize=9;fontFamily=Verdana;fontColor=#4D4D4D;labelBackgroundColor=none;fontStyle=0" vertex="1" connectable="0" parent="ya0wc5rrFNln5pxrfxZn-10">
          <mxGeometry x="-0.3013" y="-1" relative="1" as="geometry">
            <mxPoint as="offset" />
          </mxGeometry>
        </mxCell>
        <mxCell id="ya0wc5rrFNln5pxrfxZn-15" value="Exchange" style="text;html=1;resizable=0;autosize=1;align=center;verticalAlign=middle;points=[];fillColor=none;strokeColor=none;rounded=0;labelBackgroundColor=none;fontFamily=Verdana;fontSize=9;fontColor=#4D4D4D;fontStyle=1" vertex="1" parent="TxGssMW9WVWjq3D_41pU-1">
          <mxGeometry x="235" y="195" width="60" height="20" as="geometry" />
        </mxCell>
        <mxCell id="ya0wc5rrFNln5pxrfxZn-16" value="Queue" style="text;html=1;resizable=0;autosize=1;align=center;verticalAlign=middle;points=[];fillColor=none;strokeColor=none;rounded=0;labelBackgroundColor=none;fontFamily=Verdana;fontSize=9;fontColor=#4D4D4D;fontStyle=1" vertex="1" parent="TxGssMW9WVWjq3D_41pU-1">
          <mxGeometry x="381" y="194" width="50" height="20" as="geometry" />
        </mxCell>
        <mxCell id="k5pS3350jTBpCERLVuQG-27" value="&lt;font&gt;&lt;i&gt;&lt;font style=&quot;font-size: 8px&quot;&gt;Publish&lt;/font&gt;&lt;br&gt;&lt;br&gt;&lt;br&gt;&lt;/i&gt;&lt;/font&gt;" style="shape=message;html=1;whiteSpace=wrap;html=1;outlineConnect=0;rounded=1;fontFamily=Verdana;fontSize=12;fontColor=#666666;strokeColor=#999999;strokeWidth=1;fillColor=#FFD966;" vertex="1" parent="TxGssMW9WVWjq3D_41pU-1">
          <mxGeometry x="156" y="232.5" width="30" height="15" as="geometry" />
        </mxCell>
        <mxCell id="ya0wc5rrFNln5pxrfxZn-21" value="&lt;font&gt;&lt;i&gt;&lt;font style=&quot;font-size: 8px&quot;&gt;Consume&lt;br&gt;&lt;/font&gt;&lt;br&gt;&lt;br&gt;&lt;br&gt;&lt;/i&gt;&lt;/font&gt;" style="shape=message;html=1;whiteSpace=wrap;html=1;outlineConnect=0;rounded=1;fontFamily=Verdana;fontSize=12;fontColor=#666666;strokeColor=#999999;strokeWidth=1;fillColor=#FFD966;" vertex="1" parent="TxGssMW9WVWjq3D_41pU-1">
          <mxGeometry x="490" y="230" width="30" height="17.5" as="geometry" />
        </mxCell>
      </root>
    </mxGraphModel>
  </diagram>
  <diagram id="W9-Bfpmc93cgk8y08wyh" name="Exchange Types">
    <mxGraphModel dx="813" dy="435" grid="1" gridSize="10" guides="1" tooltips="1" connect="1" arrows="1" fold="1" page="1" pageScale="1" pageWidth="850" pageHeight="1100" math="0" shadow="0">
      <root>
        <mxCell id="Zjn0NVzMZ8w1wKH9n_04-0" />
        <mxCell id="Zjn0NVzMZ8w1wKH9n_04-1" parent="Zjn0NVzMZ8w1wKH9n_04-0" />
        <mxCell id="bxoCQ-I3rHgEAsj8swqi-0" value="&lt;font&gt;&lt;span&gt;Fanout Exchange Routing&lt;/span&gt;&lt;/font&gt;" style="rounded=1;whiteSpace=wrap;html=1;strokeWidth=2;arcSize=0;verticalAlign=top;fontFamily=Helvetica;fontStyle=1;" vertex="1" parent="Zjn0NVzMZ8w1wKH9n_04-1">
          <mxGeometry x="160" y="40" width="640" height="280" as="geometry" />
        </mxCell>
        <mxCell id="FwyX75T9QJ3T9Jq4nIdr-0" value="" style="group;strokeColor=none;" vertex="1" connectable="0" parent="Zjn0NVzMZ8w1wKH9n_04-1">
          <mxGeometry x="421" y="169.5" width="50" height="50" as="geometry" />
        </mxCell>
        <mxCell id="FwyX75T9QJ3T9Jq4nIdr-1" value="" style="ellipse;whiteSpace=wrap;html=1;aspect=fixed;strokeColor=#10739e;fillColor=#b1ddf0;strokeWidth=2;" vertex="1" parent="FwyX75T9QJ3T9Jq4nIdr-0">
          <mxGeometry width="50" height="50" as="geometry" />
        </mxCell>
        <mxCell id="FwyX75T9QJ3T9Jq4nIdr-2" value="" style="group" vertex="1" connectable="0" parent="FwyX75T9QJ3T9Jq4nIdr-0">
          <mxGeometry x="12.5" y="17.8125" width="25" height="14.375" as="geometry" />
        </mxCell>
        <mxCell id="FwyX75T9QJ3T9Jq4nIdr-3" value="" style="html=1;shadow=0;dashed=0;align=center;verticalAlign=middle;shape=mxgraph.arrows2.arrow;dy=0.56;dx=7.44;notch=0;strokeColor=none;strokeWidth=3;fillColor=#0D4E6E;" vertex="1" parent="FwyX75T9QJ3T9Jq4nIdr-2">
          <mxGeometry width="25" height="6.875" as="geometry" />
        </mxCell>
        <mxCell id="FwyX75T9QJ3T9Jq4nIdr-4" value="" style="html=1;shadow=0;dashed=0;align=center;verticalAlign=middle;shape=mxgraph.arrows2.arrow;dy=0.56;dx=7.44;notch=0;strokeColor=none;strokeWidth=3;fillColor=#0D4E6E;rotation=-180;" vertex="1" parent="FwyX75T9QJ3T9Jq4nIdr-2">
          <mxGeometry y="7.5" width="25" height="6.875" as="geometry" />
        </mxCell>
        <mxCell id="FwyX75T9QJ3T9Jq4nIdr-12" value="" style="group" vertex="1" connectable="0" parent="Zjn0NVzMZ8w1wKH9n_04-1">
          <mxGeometry x="653" y="64.5" width="70" height="79" as="geometry" />
        </mxCell>
        <mxCell id="FwyX75T9QJ3T9Jq4nIdr-5" value="" style="group;strokeWidth=2;" vertex="1" connectable="0" parent="FwyX75T9QJ3T9Jq4nIdr-12">
          <mxGeometry y="19" width="70" height="60" as="geometry" />
        </mxCell>
        <mxCell id="FwyX75T9QJ3T9Jq4nIdr-6" value="" style="rounded=1;whiteSpace=wrap;html=1;strokeColor=#4D4D4D;strokeWidth=2;fillColor=#b1ddf0;arcSize=3;" vertex="1" parent="FwyX75T9QJ3T9Jq4nIdr-5">
          <mxGeometry width="70" height="60" as="geometry" />
        </mxCell>
        <mxCell id="FwyX75T9QJ3T9Jq4nIdr-7" value="" style="rounded=1;whiteSpace=wrap;html=1;strokeWidth=1;strokeColor=none;" vertex="1" parent="FwyX75T9QJ3T9Jq4nIdr-5">
          <mxGeometry x="5.833333333333333" y="5" width="58.333333333333336" height="10" as="geometry" />
        </mxCell>
        <mxCell id="FwyX75T9QJ3T9Jq4nIdr-8" value="" style="rounded=1;whiteSpace=wrap;html=1;strokeWidth=1;strokeColor=none;" vertex="1" parent="FwyX75T9QJ3T9Jq4nIdr-5">
          <mxGeometry x="5.833333333333333" y="18.5" width="58.333333333333336" height="10" as="geometry" />
        </mxCell>
        <mxCell id="FwyX75T9QJ3T9Jq4nIdr-9" value="" style="rounded=1;whiteSpace=wrap;html=1;strokeWidth=1;strokeColor=none;" vertex="1" parent="FwyX75T9QJ3T9Jq4nIdr-5">
          <mxGeometry x="5.833333333333333" y="32" width="58.333333333333336" height="10" as="geometry" />
        </mxCell>
        <mxCell id="FwyX75T9QJ3T9Jq4nIdr-10" value="" style="rounded=1;whiteSpace=wrap;html=1;strokeWidth=1;strokeColor=#BD7000;fillColor=#f0a30a;fontColor=#000000;" vertex="1" parent="FwyX75T9QJ3T9Jq4nIdr-5">
          <mxGeometry x="5.833333333333333" y="45.5" width="58.333333333333336" height="10" as="geometry" />
        </mxCell>
        <mxCell id="FwyX75T9QJ3T9Jq4nIdr-11" value="SMS Queue" style="text;html=1;resizable=0;autosize=1;align=center;verticalAlign=middle;points=[];fillColor=none;strokeColor=none;rounded=0;labelBackgroundColor=none;fontFamily=Verdana;fontSize=8;fontColor=#4D4D4D;" vertex="1" parent="FwyX75T9QJ3T9Jq4nIdr-12">
          <mxGeometry x="2" width="60" height="20" as="geometry" />
        </mxCell>
        <mxCell id="FwyX75T9QJ3T9Jq4nIdr-13" value="Routes" style="edgeStyle=elbowEdgeStyle;rounded=0;orthogonalLoop=1;jettySize=auto;html=1;exitX=0.977;exitY=0.641;exitDx=0;exitDy=0;entryX=0;entryY=0.5;entryDx=0;entryDy=0;fontFamily=Verdana;fontSize=6;fontColor=#4D4D4D;endArrow=open;endFill=0;strokeColor=#999999;strokeWidth=3;fillColor=#0D4E6E;labelBackgroundColor=none;fontStyle=2;exitPerimeter=0;align=left;" edge="1" parent="Zjn0NVzMZ8w1wKH9n_04-1" source="FwyX75T9QJ3T9Jq4nIdr-1" target="FwyX75T9QJ3T9Jq4nIdr-47">
          <mxGeometry x="0.003" y="-5" relative="1" as="geometry">
            <mxPoint as="offset" />
          </mxGeometry>
        </mxCell>
        <mxCell id="FwyX75T9QJ3T9Jq4nIdr-37" value="" style="group" vertex="1" connectable="0" parent="Zjn0NVzMZ8w1wKH9n_04-1">
          <mxGeometry x="653" y="145.5" width="70" height="79" as="geometry" />
        </mxCell>
        <mxCell id="FwyX75T9QJ3T9Jq4nIdr-38" value="" style="group;strokeWidth=2;" vertex="1" connectable="0" parent="FwyX75T9QJ3T9Jq4nIdr-37">
          <mxGeometry y="19" width="70" height="60" as="geometry" />
        </mxCell>
        <mxCell id="FwyX75T9QJ3T9Jq4nIdr-39" value="" style="rounded=1;whiteSpace=wrap;html=1;strokeColor=#4D4D4D;strokeWidth=2;fillColor=#b1ddf0;arcSize=3;" vertex="1" parent="FwyX75T9QJ3T9Jq4nIdr-38">
          <mxGeometry width="70" height="60" as="geometry" />
        </mxCell>
        <mxCell id="FwyX75T9QJ3T9Jq4nIdr-40" value="" style="rounded=1;whiteSpace=wrap;html=1;strokeWidth=1;strokeColor=none;" vertex="1" parent="FwyX75T9QJ3T9Jq4nIdr-38">
          <mxGeometry x="5.833333333333333" y="5" width="58.333333333333336" height="10" as="geometry" />
        </mxCell>
        <mxCell id="FwyX75T9QJ3T9Jq4nIdr-41" value="" style="rounded=1;whiteSpace=wrap;html=1;strokeWidth=1;strokeColor=none;" vertex="1" parent="FwyX75T9QJ3T9Jq4nIdr-38">
          <mxGeometry x="5.833333333333333" y="18.5" width="58.333333333333336" height="10" as="geometry" />
        </mxCell>
        <mxCell id="FwyX75T9QJ3T9Jq4nIdr-42" value="" style="rounded=1;whiteSpace=wrap;html=1;strokeWidth=1;strokeColor=none;" vertex="1" parent="FwyX75T9QJ3T9Jq4nIdr-38">
          <mxGeometry x="5.833333333333333" y="32" width="58.333333333333336" height="10" as="geometry" />
        </mxCell>
        <mxCell id="FwyX75T9QJ3T9Jq4nIdr-43" value="" style="rounded=1;whiteSpace=wrap;html=1;strokeWidth=1;strokeColor=#BD7000;fillColor=#f0a30a;fontColor=#000000;" vertex="1" parent="FwyX75T9QJ3T9Jq4nIdr-38">
          <mxGeometry x="5.833333333333333" y="45.5" width="58.333333333333336" height="10" as="geometry" />
        </mxCell>
        <mxCell id="FwyX75T9QJ3T9Jq4nIdr-44" value="Email Queue" style="text;html=1;resizable=0;autosize=1;align=center;verticalAlign=middle;points=[];fillColor=none;strokeColor=none;rounded=0;labelBackgroundColor=none;fontFamily=Verdana;fontSize=8;fontColor=#4D4D4D;" vertex="1" parent="FwyX75T9QJ3T9Jq4nIdr-37">
          <mxGeometry x="-3" width="70" height="20" as="geometry" />
        </mxCell>
        <mxCell id="FwyX75T9QJ3T9Jq4nIdr-45" value="" style="group" vertex="1" connectable="0" parent="Zjn0NVzMZ8w1wKH9n_04-1">
          <mxGeometry x="653" y="226.5" width="72" height="79" as="geometry" />
        </mxCell>
        <mxCell id="FwyX75T9QJ3T9Jq4nIdr-46" value="" style="group;strokeWidth=2;" vertex="1" connectable="0" parent="FwyX75T9QJ3T9Jq4nIdr-45">
          <mxGeometry y="19" width="70" height="60" as="geometry" />
        </mxCell>
        <mxCell id="FwyX75T9QJ3T9Jq4nIdr-47" value="" style="rounded=1;whiteSpace=wrap;html=1;strokeColor=#4D4D4D;strokeWidth=2;fillColor=#b1ddf0;arcSize=3;" vertex="1" parent="FwyX75T9QJ3T9Jq4nIdr-46">
          <mxGeometry width="70" height="60" as="geometry" />
        </mxCell>
        <mxCell id="FwyX75T9QJ3T9Jq4nIdr-48" value="" style="rounded=1;whiteSpace=wrap;html=1;strokeWidth=1;strokeColor=none;" vertex="1" parent="FwyX75T9QJ3T9Jq4nIdr-46">
          <mxGeometry x="5.833333333333333" y="5" width="58.333333333333336" height="10" as="geometry" />
        </mxCell>
        <mxCell id="FwyX75T9QJ3T9Jq4nIdr-49" value="" style="rounded=1;whiteSpace=wrap;html=1;strokeWidth=1;strokeColor=none;" vertex="1" parent="FwyX75T9QJ3T9Jq4nIdr-46">
          <mxGeometry x="5.833333333333333" y="18.5" width="58.333333333333336" height="10" as="geometry" />
        </mxCell>
        <mxCell id="FwyX75T9QJ3T9Jq4nIdr-50" value="" style="rounded=1;whiteSpace=wrap;html=1;strokeWidth=1;strokeColor=none;" vertex="1" parent="FwyX75T9QJ3T9Jq4nIdr-46">
          <mxGeometry x="5.833333333333333" y="32" width="58.333333333333336" height="10" as="geometry" />
        </mxCell>
        <mxCell id="FwyX75T9QJ3T9Jq4nIdr-51" value="" style="rounded=1;whiteSpace=wrap;html=1;strokeWidth=1;strokeColor=#BD7000;fillColor=#f0a30a;fontColor=#000000;" vertex="1" parent="FwyX75T9QJ3T9Jq4nIdr-46">
          <mxGeometry x="5.833333333333333" y="45.5" width="58.333333333333336" height="10" as="geometry" />
        </mxCell>
        <mxCell id="FwyX75T9QJ3T9Jq4nIdr-52" value="WeChat Queue" style="text;html=1;resizable=0;autosize=1;align=center;verticalAlign=middle;points=[];fillColor=none;strokeColor=none;rounded=0;labelBackgroundColor=none;fontFamily=Verdana;fontSize=8;fontColor=#4D4D4D;" vertex="1" parent="FwyX75T9QJ3T9Jq4nIdr-45">
          <mxGeometry x="-8" width="80" height="20" as="geometry" />
        </mxCell>
        <mxCell id="FwyX75T9QJ3T9Jq4nIdr-53" style="edgeStyle=elbowEdgeStyle;rounded=0;orthogonalLoop=1;jettySize=auto;html=1;entryX=0;entryY=0.5;entryDx=0;entryDy=0;fontFamily=Verdana;fontSize=8;fontColor=#4D4D4D;endArrow=open;endFill=0;strokeColor=#999999;strokeWidth=3;fillColor=#0D4E6E;exitX=0.966;exitY=0.333;exitDx=0;exitDy=0;exitPerimeter=0;align=left;" edge="1" parent="Zjn0NVzMZ8w1wKH9n_04-1" source="FwyX75T9QJ3T9Jq4nIdr-1" target="FwyX75T9QJ3T9Jq4nIdr-6">
          <mxGeometry relative="1" as="geometry">
            <mxPoint x="470" y="194" as="sourcePoint" />
            <mxPoint x="663" y="303.5" as="targetPoint" />
          </mxGeometry>
        </mxCell>
        <mxCell id="FwyX75T9QJ3T9Jq4nIdr-55" value="Routes" style="edgeLabel;html=1;align=center;verticalAlign=middle;resizable=0;points=[];fontSize=6;fontFamily=Verdana;fontColor=#4D4D4D;labelBackgroundColor=none;fontStyle=2" vertex="1" connectable="0" parent="FwyX75T9QJ3T9Jq4nIdr-53">
          <mxGeometry x="0.14" y="-8" relative="1" as="geometry">
            <mxPoint as="offset" />
          </mxGeometry>
        </mxCell>
        <mxCell id="FwyX75T9QJ3T9Jq4nIdr-54" style="edgeStyle=orthogonalEdgeStyle;curved=1;rounded=0;orthogonalLoop=1;jettySize=auto;html=1;entryX=0;entryY=0.5;entryDx=0;entryDy=0;fontFamily=Verdana;fontSize=8;fontColor=#4D4D4D;endArrow=open;endFill=0;strokeColor=#999999;strokeWidth=3;fillColor=#0D4E6E;exitX=1;exitY=0.5;exitDx=0;exitDy=0;" edge="1" parent="Zjn0NVzMZ8w1wKH9n_04-1" source="FwyX75T9QJ3T9Jq4nIdr-1" target="FwyX75T9QJ3T9Jq4nIdr-39">
          <mxGeometry relative="1" as="geometry">
            <mxPoint x="433" y="204.5" as="sourcePoint" />
            <mxPoint x="663" y="103.5" as="targetPoint" />
          </mxGeometry>
        </mxCell>
        <mxCell id="FwyX75T9QJ3T9Jq4nIdr-56" value="Routes" style="edgeLabel;html=1;align=center;verticalAlign=middle;resizable=0;points=[];fontSize=6;fontFamily=Verdana;fontColor=#4D4D4D;labelBackgroundColor=none;fontStyle=2" vertex="1" connectable="0" parent="FwyX75T9QJ3T9Jq4nIdr-54">
          <mxGeometry x="0.2092" y="-1" relative="1" as="geometry">
            <mxPoint as="offset" />
          </mxGeometry>
        </mxCell>
        <mxCell id="bxoCQ-I3rHgEAsj8swqi-1" value="&lt;font&gt;&lt;span&gt;Direct Exchange Routing&lt;/span&gt;&lt;/font&gt;" style="rounded=1;whiteSpace=wrap;html=1;strokeWidth=2;arcSize=0;verticalAlign=top;fontFamily=Helvetica;fontStyle=1;" vertex="1" parent="Zjn0NVzMZ8w1wKH9n_04-1">
          <mxGeometry x="160" y="360" width="640" height="280" as="geometry" />
        </mxCell>
        <mxCell id="bxoCQ-I3rHgEAsj8swqi-2" value="" style="group;strokeColor=none;" vertex="1" connectable="0" parent="Zjn0NVzMZ8w1wKH9n_04-1">
          <mxGeometry x="416" y="489.5" width="50" height="50" as="geometry" />
        </mxCell>
        <mxCell id="bxoCQ-I3rHgEAsj8swqi-3" value="" style="ellipse;whiteSpace=wrap;html=1;aspect=fixed;strokeColor=#10739e;fillColor=#b1ddf0;strokeWidth=2;" vertex="1" parent="bxoCQ-I3rHgEAsj8swqi-2">
          <mxGeometry width="50" height="50" as="geometry" />
        </mxCell>
        <mxCell id="bxoCQ-I3rHgEAsj8swqi-4" value="" style="group" vertex="1" connectable="0" parent="bxoCQ-I3rHgEAsj8swqi-2">
          <mxGeometry x="12.5" y="17.8125" width="25" height="14.375" as="geometry" />
        </mxCell>
        <mxCell id="bxoCQ-I3rHgEAsj8swqi-5" value="" style="html=1;shadow=0;dashed=0;align=center;verticalAlign=middle;shape=mxgraph.arrows2.arrow;dy=0.56;dx=7.44;notch=0;strokeColor=none;strokeWidth=3;fillColor=#0D4E6E;" vertex="1" parent="bxoCQ-I3rHgEAsj8swqi-4">
          <mxGeometry width="25" height="6.875" as="geometry" />
        </mxCell>
        <mxCell id="bxoCQ-I3rHgEAsj8swqi-6" value="" style="html=1;shadow=0;dashed=0;align=center;verticalAlign=middle;shape=mxgraph.arrows2.arrow;dy=0.56;dx=7.44;notch=0;strokeColor=none;strokeWidth=3;fillColor=#0D4E6E;rotation=-180;" vertex="1" parent="bxoCQ-I3rHgEAsj8swqi-4">
          <mxGeometry y="7.5" width="25" height="6.875" as="geometry" />
        </mxCell>
        <mxCell id="bxoCQ-I3rHgEAsj8swqi-7" value="" style="group" vertex="1" connectable="0" parent="Zjn0NVzMZ8w1wKH9n_04-1">
          <mxGeometry x="656" y="384.5" width="70" height="79" as="geometry" />
        </mxCell>
        <mxCell id="bxoCQ-I3rHgEAsj8swqi-8" value="" style="group;strokeWidth=2;" vertex="1" connectable="0" parent="bxoCQ-I3rHgEAsj8swqi-7">
          <mxGeometry y="19" width="70" height="60" as="geometry" />
        </mxCell>
        <mxCell id="bxoCQ-I3rHgEAsj8swqi-9" value="" style="rounded=1;whiteSpace=wrap;html=1;strokeColor=#4D4D4D;strokeWidth=2;fillColor=#b1ddf0;arcSize=3;" vertex="1" parent="bxoCQ-I3rHgEAsj8swqi-8">
          <mxGeometry width="70" height="60" as="geometry" />
        </mxCell>
        <mxCell id="bxoCQ-I3rHgEAsj8swqi-10" value="" style="rounded=1;whiteSpace=wrap;html=1;strokeWidth=1;strokeColor=none;" vertex="1" parent="bxoCQ-I3rHgEAsj8swqi-8">
          <mxGeometry x="5.833333333333333" y="5" width="58.333333333333336" height="10" as="geometry" />
        </mxCell>
        <mxCell id="bxoCQ-I3rHgEAsj8swqi-11" value="" style="rounded=1;whiteSpace=wrap;html=1;strokeWidth=1;strokeColor=none;" vertex="1" parent="bxoCQ-I3rHgEAsj8swqi-8">
          <mxGeometry x="5.833333333333333" y="18.5" width="58.333333333333336" height="10" as="geometry" />
        </mxCell>
        <mxCell id="bxoCQ-I3rHgEAsj8swqi-12" value="" style="rounded=1;whiteSpace=wrap;html=1;strokeWidth=1;strokeColor=none;" vertex="1" parent="bxoCQ-I3rHgEAsj8swqi-8">
          <mxGeometry x="5.833333333333333" y="32" width="58.333333333333336" height="10" as="geometry" />
        </mxCell>
        <mxCell id="bxoCQ-I3rHgEAsj8swqi-13" value="" style="rounded=1;whiteSpace=wrap;html=1;strokeWidth=1;strokeColor=#BD7000;fillColor=#f0a30a;fontColor=#000000;" vertex="1" parent="bxoCQ-I3rHgEAsj8swqi-8">
          <mxGeometry x="5.833333333333333" y="45.5" width="58.333333333333336" height="10" as="geometry" />
        </mxCell>
        <mxCell id="bxoCQ-I3rHgEAsj8swqi-14" value="SMS Queue" style="text;html=1;resizable=0;autosize=1;align=center;verticalAlign=middle;points=[];fillColor=none;strokeColor=none;rounded=0;labelBackgroundColor=none;fontFamily=Verdana;fontSize=8;fontColor=#4D4D4D;" vertex="1" parent="bxoCQ-I3rHgEAsj8swqi-7">
          <mxGeometry x="2" width="60" height="20" as="geometry" />
        </mxCell>
        <mxCell id="bxoCQ-I3rHgEAsj8swqi-15" value="RoutingKey=wechat" style="edgeStyle=orthogonalEdgeStyle;curved=1;rounded=0;orthogonalLoop=1;jettySize=auto;html=1;exitX=1;exitY=0.5;exitDx=0;exitDy=0;entryX=0;entryY=0.5;entryDx=0;entryDy=0;fontFamily=Verdana;fontSize=6;fontColor=#4D4D4D;endArrow=open;endFill=0;strokeColor=#82b366;strokeWidth=3;fillColor=#d5e8d4;labelBackgroundColor=none;fontStyle=2;gradientColor=#97d077;" edge="1" parent="Zjn0NVzMZ8w1wKH9n_04-1" source="bxoCQ-I3rHgEAsj8swqi-3" target="bxoCQ-I3rHgEAsj8swqi-26">
          <mxGeometry x="0.003" y="-5" relative="1" as="geometry">
            <mxPoint as="offset" />
          </mxGeometry>
        </mxCell>
        <mxCell id="bxoCQ-I3rHgEAsj8swqi-16" value="" style="group" vertex="1" connectable="0" parent="Zjn0NVzMZ8w1wKH9n_04-1">
          <mxGeometry x="656" y="465.5" width="70" height="79" as="geometry" />
        </mxCell>
        <mxCell id="bxoCQ-I3rHgEAsj8swqi-17" value="" style="group;strokeWidth=2;" vertex="1" connectable="0" parent="bxoCQ-I3rHgEAsj8swqi-16">
          <mxGeometry y="19" width="70" height="60" as="geometry" />
        </mxCell>
        <mxCell id="bxoCQ-I3rHgEAsj8swqi-18" value="" style="rounded=1;whiteSpace=wrap;html=1;strokeColor=#4D4D4D;strokeWidth=2;fillColor=#b1ddf0;arcSize=3;" vertex="1" parent="bxoCQ-I3rHgEAsj8swqi-17">
          <mxGeometry width="70" height="60" as="geometry" />
        </mxCell>
        <mxCell id="bxoCQ-I3rHgEAsj8swqi-19" value="" style="rounded=1;whiteSpace=wrap;html=1;strokeWidth=1;strokeColor=none;" vertex="1" parent="bxoCQ-I3rHgEAsj8swqi-17">
          <mxGeometry x="5.833333333333333" y="5" width="58.333333333333336" height="10" as="geometry" />
        </mxCell>
        <mxCell id="bxoCQ-I3rHgEAsj8swqi-20" value="" style="rounded=1;whiteSpace=wrap;html=1;strokeWidth=1;strokeColor=none;" vertex="1" parent="bxoCQ-I3rHgEAsj8swqi-17">
          <mxGeometry x="5.833333333333333" y="18.5" width="58.333333333333336" height="10" as="geometry" />
        </mxCell>
        <mxCell id="bxoCQ-I3rHgEAsj8swqi-21" value="" style="rounded=1;whiteSpace=wrap;html=1;strokeWidth=1;strokeColor=none;" vertex="1" parent="bxoCQ-I3rHgEAsj8swqi-17">
          <mxGeometry x="5.833333333333333" y="32" width="58.333333333333336" height="10" as="geometry" />
        </mxCell>
        <mxCell id="bxoCQ-I3rHgEAsj8swqi-22" value="" style="rounded=1;whiteSpace=wrap;html=1;strokeWidth=1;strokeColor=#BD7000;fillColor=#f0a30a;fontColor=#000000;" vertex="1" parent="bxoCQ-I3rHgEAsj8swqi-17">
          <mxGeometry x="5.833333333333333" y="45.5" width="58.333333333333336" height="10" as="geometry" />
        </mxCell>
        <mxCell id="bxoCQ-I3rHgEAsj8swqi-23" value="Email Queue" style="text;html=1;resizable=0;autosize=1;align=center;verticalAlign=middle;points=[];fillColor=none;strokeColor=none;rounded=0;labelBackgroundColor=none;fontFamily=Verdana;fontSize=8;fontColor=#4D4D4D;" vertex="1" parent="bxoCQ-I3rHgEAsj8swqi-16">
          <mxGeometry x="-3" width="70" height="20" as="geometry" />
        </mxCell>
        <mxCell id="bxoCQ-I3rHgEAsj8swqi-24" value="" style="group" vertex="1" connectable="0" parent="Zjn0NVzMZ8w1wKH9n_04-1">
          <mxGeometry x="656" y="546.5" width="72" height="79" as="geometry" />
        </mxCell>
        <mxCell id="bxoCQ-I3rHgEAsj8swqi-25" value="" style="group;strokeWidth=2;" vertex="1" connectable="0" parent="bxoCQ-I3rHgEAsj8swqi-24">
          <mxGeometry y="19" width="70" height="60" as="geometry" />
        </mxCell>
        <mxCell id="bxoCQ-I3rHgEAsj8swqi-26" value="" style="rounded=1;whiteSpace=wrap;html=1;strokeColor=#4D4D4D;strokeWidth=2;fillColor=#b1ddf0;arcSize=3;" vertex="1" parent="bxoCQ-I3rHgEAsj8swqi-25">
          <mxGeometry width="70" height="60" as="geometry" />
        </mxCell>
        <mxCell id="bxoCQ-I3rHgEAsj8swqi-27" value="" style="rounded=1;whiteSpace=wrap;html=1;strokeWidth=1;strokeColor=none;" vertex="1" parent="bxoCQ-I3rHgEAsj8swqi-25">
          <mxGeometry x="5.833333333333333" y="5" width="58.333333333333336" height="10" as="geometry" />
        </mxCell>
        <mxCell id="bxoCQ-I3rHgEAsj8swqi-28" value="" style="rounded=1;whiteSpace=wrap;html=1;strokeWidth=1;strokeColor=none;" vertex="1" parent="bxoCQ-I3rHgEAsj8swqi-25">
          <mxGeometry x="5.833333333333333" y="18.5" width="58.333333333333336" height="10" as="geometry" />
        </mxCell>
        <mxCell id="bxoCQ-I3rHgEAsj8swqi-29" value="" style="rounded=1;whiteSpace=wrap;html=1;strokeWidth=1;strokeColor=none;" vertex="1" parent="bxoCQ-I3rHgEAsj8swqi-25">
          <mxGeometry x="5.833333333333333" y="32" width="58.333333333333336" height="10" as="geometry" />
        </mxCell>
        <mxCell id="bxoCQ-I3rHgEAsj8swqi-30" value="" style="rounded=1;whiteSpace=wrap;html=1;strokeWidth=1;strokeColor=#BD7000;fillColor=#f0a30a;fontColor=#000000;" vertex="1" parent="bxoCQ-I3rHgEAsj8swqi-25">
          <mxGeometry x="5.833333333333333" y="45.5" width="58.333333333333336" height="10" as="geometry" />
        </mxCell>
        <mxCell id="bxoCQ-I3rHgEAsj8swqi-31" value="WeChat Queue" style="text;html=1;resizable=0;autosize=1;align=center;verticalAlign=middle;points=[];fillColor=none;strokeColor=none;rounded=0;labelBackgroundColor=none;fontFamily=Verdana;fontSize=8;fontColor=#4D4D4D;" vertex="1" parent="bxoCQ-I3rHgEAsj8swqi-24">
          <mxGeometry x="-8" width="80" height="20" as="geometry" />
        </mxCell>
        <mxCell id="bxoCQ-I3rHgEAsj8swqi-32" style="edgeStyle=orthogonalEdgeStyle;curved=1;rounded=0;orthogonalLoop=1;jettySize=auto;html=1;entryX=0;entryY=0.5;entryDx=0;entryDy=0;fontFamily=Verdana;fontSize=8;fontColor=none;endArrow=open;endFill=0;strokeColor=#10739e;strokeWidth=3;fillColor=#b1ddf0;noLabel=1;exitX=1;exitY=0.5;exitDx=0;exitDy=0;" edge="1" parent="Zjn0NVzMZ8w1wKH9n_04-1" target="bxoCQ-I3rHgEAsj8swqi-9" source="bxoCQ-I3rHgEAsj8swqi-3">
          <mxGeometry relative="1" as="geometry">
            <mxPoint x="470" y="514" as="sourcePoint" />
            <mxPoint x="666" y="623.5" as="targetPoint" />
          </mxGeometry>
        </mxCell>
        <mxCell id="bxoCQ-I3rHgEAsj8swqi-33" value="RoutingKey=sms" style="edgeLabel;html=1;align=center;verticalAlign=middle;resizable=0;points=[];fontSize=6;fontFamily=Verdana;fontColor=#4D4D4D;labelBackgroundColor=none;fontStyle=2" vertex="1" connectable="0" parent="bxoCQ-I3rHgEAsj8swqi-32">
          <mxGeometry x="0.14" y="-8" relative="1" as="geometry">
            <mxPoint as="offset" />
          </mxGeometry>
        </mxCell>
        <mxCell id="bxoCQ-I3rHgEAsj8swqi-34" style="edgeStyle=orthogonalEdgeStyle;curved=1;rounded=0;orthogonalLoop=1;jettySize=auto;html=1;entryX=0;entryY=0.5;entryDx=0;entryDy=0;fontFamily=Verdana;fontSize=8;fontColor=#4D4D4D;endArrow=open;endFill=0;strokeColor=#0e8088;strokeWidth=3;fillColor=#b0e3e6;exitX=1;exitY=0.5;exitDx=0;exitDy=0;" edge="1" parent="Zjn0NVzMZ8w1wKH9n_04-1" source="bxoCQ-I3rHgEAsj8swqi-3" target="bxoCQ-I3rHgEAsj8swqi-18">
          <mxGeometry relative="1" as="geometry">
            <mxPoint x="470" y="515" as="sourcePoint" />
            <mxPoint x="666" y="423.5" as="targetPoint" />
          </mxGeometry>
        </mxCell>
        <mxCell id="bxoCQ-I3rHgEAsj8swqi-35" value="RoutingKey=email&lt;br&gt;&amp;nbsp;&amp;nbsp;&lt;br&gt;&amp;nbsp;&amp;nbsp;" style="edgeLabel;html=1;align=center;verticalAlign=middle;resizable=0;points=[];fontSize=6;fontFamily=Verdana;fontColor=#4D4D4D;labelBackgroundColor=none;fontStyle=2" vertex="1" connectable="0" parent="bxoCQ-I3rHgEAsj8swqi-34">
          <mxGeometry x="0.2092" y="-1" relative="1" as="geometry">
            <mxPoint as="offset" />
          </mxGeometry>
        </mxCell>
        <mxCell id="cEU_Xj_qlOn2lcmnm1g4-0" value="&lt;font&gt;&lt;span&gt;Topic Exchange Routing&lt;/span&gt;&lt;/font&gt;" style="rounded=1;whiteSpace=wrap;html=1;strokeWidth=2;arcSize=0;verticalAlign=top;fontFamily=Helvetica;fontStyle=1;" vertex="1" parent="Zjn0NVzMZ8w1wKH9n_04-1">
          <mxGeometry x="160" y="680" width="640" height="370" as="geometry" />
        </mxCell>
        <mxCell id="cEU_Xj_qlOn2lcmnm1g4-1" value="" style="group;strokeColor=none;" vertex="1" connectable="0" parent="Zjn0NVzMZ8w1wKH9n_04-1">
          <mxGeometry x="420" y="849.5" width="50" height="50" as="geometry" />
        </mxCell>
        <mxCell id="cEU_Xj_qlOn2lcmnm1g4-2" value="" style="ellipse;whiteSpace=wrap;html=1;aspect=fixed;strokeColor=#10739e;fillColor=#b1ddf0;strokeWidth=2;" vertex="1" parent="cEU_Xj_qlOn2lcmnm1g4-1">
          <mxGeometry width="50" height="50" as="geometry" />
        </mxCell>
        <mxCell id="cEU_Xj_qlOn2lcmnm1g4-3" value="" style="group" vertex="1" connectable="0" parent="cEU_Xj_qlOn2lcmnm1g4-1">
          <mxGeometry x="12.5" y="17.8125" width="25" height="14.375" as="geometry" />
        </mxCell>
        <mxCell id="cEU_Xj_qlOn2lcmnm1g4-4" value="" style="html=1;shadow=0;dashed=0;align=center;verticalAlign=middle;shape=mxgraph.arrows2.arrow;dy=0.56;dx=7.44;notch=0;strokeColor=none;strokeWidth=3;fillColor=#0D4E6E;" vertex="1" parent="cEU_Xj_qlOn2lcmnm1g4-3">
          <mxGeometry width="25" height="6.875" as="geometry" />
        </mxCell>
        <mxCell id="cEU_Xj_qlOn2lcmnm1g4-5" value="" style="html=1;shadow=0;dashed=0;align=center;verticalAlign=middle;shape=mxgraph.arrows2.arrow;dy=0.56;dx=7.44;notch=0;strokeColor=none;strokeWidth=3;fillColor=#0D4E6E;rotation=-180;" vertex="1" parent="cEU_Xj_qlOn2lcmnm1g4-3">
          <mxGeometry y="7.5" width="25" height="6.875" as="geometry" />
        </mxCell>
        <mxCell id="cEU_Xj_qlOn2lcmnm1g4-6" value="" style="group" vertex="1" connectable="0" parent="Zjn0NVzMZ8w1wKH9n_04-1">
          <mxGeometry x="658" y="704.5" width="70" height="79" as="geometry" />
        </mxCell>
        <mxCell id="cEU_Xj_qlOn2lcmnm1g4-7" value="" style="group;strokeWidth=2;" vertex="1" connectable="0" parent="cEU_Xj_qlOn2lcmnm1g4-6">
          <mxGeometry y="19" width="70" height="60" as="geometry" />
        </mxCell>
        <mxCell id="cEU_Xj_qlOn2lcmnm1g4-8" value="" style="rounded=1;whiteSpace=wrap;html=1;strokeColor=#4D4D4D;strokeWidth=2;fillColor=#b1ddf0;arcSize=3;" vertex="1" parent="cEU_Xj_qlOn2lcmnm1g4-7">
          <mxGeometry width="70" height="60" as="geometry" />
        </mxCell>
        <mxCell id="cEU_Xj_qlOn2lcmnm1g4-9" value="" style="rounded=1;whiteSpace=wrap;html=1;strokeWidth=1;strokeColor=none;" vertex="1" parent="cEU_Xj_qlOn2lcmnm1g4-7">
          <mxGeometry x="5.833333333333333" y="5" width="58.333333333333336" height="10" as="geometry" />
        </mxCell>
        <mxCell id="cEU_Xj_qlOn2lcmnm1g4-10" value="" style="rounded=1;whiteSpace=wrap;html=1;strokeWidth=1;strokeColor=none;" vertex="1" parent="cEU_Xj_qlOn2lcmnm1g4-7">
          <mxGeometry x="5.833333333333333" y="18.5" width="58.333333333333336" height="10" as="geometry" />
        </mxCell>
        <mxCell id="cEU_Xj_qlOn2lcmnm1g4-11" value="" style="rounded=1;whiteSpace=wrap;html=1;strokeWidth=1;strokeColor=none;" vertex="1" parent="cEU_Xj_qlOn2lcmnm1g4-7">
          <mxGeometry x="5.833333333333333" y="32" width="58.333333333333336" height="10" as="geometry" />
        </mxCell>
        <mxCell id="cEU_Xj_qlOn2lcmnm1g4-12" value="" style="rounded=1;whiteSpace=wrap;html=1;strokeWidth=1;strokeColor=#BD7000;fillColor=#f0a30a;fontColor=#000000;" vertex="1" parent="cEU_Xj_qlOn2lcmnm1g4-7">
          <mxGeometry x="5.833333333333333" y="45.5" width="58.333333333333336" height="10" as="geometry" />
        </mxCell>
        <mxCell id="cEU_Xj_qlOn2lcmnm1g4-13" value="INFO Queue" style="text;html=1;resizable=0;autosize=1;align=center;verticalAlign=middle;points=[];fillColor=none;strokeColor=none;rounded=0;labelBackgroundColor=none;fontFamily=Verdana;fontSize=8;fontColor=#4D4D4D;" vertex="1" parent="cEU_Xj_qlOn2lcmnm1g4-6">
          <mxGeometry x="2" width="60" height="20" as="geometry" />
        </mxCell>
        <mxCell id="cEU_Xj_qlOn2lcmnm1g4-14" value="RoutingKey=producer1.*" style="edgeStyle=elbowEdgeStyle;rounded=0;orthogonalLoop=1;jettySize=auto;html=1;exitX=0.986;exitY=0.596;exitDx=0;exitDy=0;entryX=0;entryY=0.5;entryDx=0;entryDy=0;fontFamily=Verdana;fontSize=6;fontColor=#4D4D4D;endArrow=open;endFill=0;strokeColor=#82B366;strokeWidth=3;fillColor=#d5e8d4;labelBackgroundColor=none;fontStyle=2;gradientColor=#97d077;exitPerimeter=0;" edge="1" parent="Zjn0NVzMZ8w1wKH9n_04-1" source="cEU_Xj_qlOn2lcmnm1g4-2" target="cEU_Xj_qlOn2lcmnm1g4-25">
          <mxGeometry x="0.5731" y="6" relative="1" as="geometry">
            <mxPoint y="1" as="offset" />
          </mxGeometry>
        </mxCell>
        <mxCell id="cEU_Xj_qlOn2lcmnm1g4-15" value="" style="group" vertex="1" connectable="0" parent="Zjn0NVzMZ8w1wKH9n_04-1">
          <mxGeometry x="658" y="785.5" width="70" height="79" as="geometry" />
        </mxCell>
        <mxCell id="cEU_Xj_qlOn2lcmnm1g4-16" value="" style="group;strokeWidth=2;" vertex="1" connectable="0" parent="cEU_Xj_qlOn2lcmnm1g4-15">
          <mxGeometry y="19" width="70" height="60" as="geometry" />
        </mxCell>
        <mxCell id="cEU_Xj_qlOn2lcmnm1g4-17" value="" style="rounded=1;whiteSpace=wrap;html=1;strokeColor=#4D4D4D;strokeWidth=2;fillColor=#b1ddf0;arcSize=3;" vertex="1" parent="cEU_Xj_qlOn2lcmnm1g4-16">
          <mxGeometry width="70" height="60" as="geometry" />
        </mxCell>
        <mxCell id="cEU_Xj_qlOn2lcmnm1g4-18" value="" style="rounded=1;whiteSpace=wrap;html=1;strokeWidth=1;strokeColor=none;" vertex="1" parent="cEU_Xj_qlOn2lcmnm1g4-16">
          <mxGeometry x="5.833333333333333" y="5" width="58.333333333333336" height="10" as="geometry" />
        </mxCell>
        <mxCell id="cEU_Xj_qlOn2lcmnm1g4-19" value="" style="rounded=1;whiteSpace=wrap;html=1;strokeWidth=1;strokeColor=none;" vertex="1" parent="cEU_Xj_qlOn2lcmnm1g4-16">
          <mxGeometry x="5.833333333333333" y="18.5" width="58.333333333333336" height="10" as="geometry" />
        </mxCell>
        <mxCell id="cEU_Xj_qlOn2lcmnm1g4-20" value="" style="rounded=1;whiteSpace=wrap;html=1;strokeWidth=1;strokeColor=none;" vertex="1" parent="cEU_Xj_qlOn2lcmnm1g4-16">
          <mxGeometry x="5.833333333333333" y="32" width="58.333333333333336" height="10" as="geometry" />
        </mxCell>
        <mxCell id="cEU_Xj_qlOn2lcmnm1g4-21" value="" style="rounded=1;whiteSpace=wrap;html=1;strokeWidth=1;strokeColor=#BD7000;fillColor=#f0a30a;fontColor=#000000;" vertex="1" parent="cEU_Xj_qlOn2lcmnm1g4-16">
          <mxGeometry x="5.833333333333333" y="45.5" width="58.333333333333336" height="10" as="geometry" />
        </mxCell>
        <mxCell id="cEU_Xj_qlOn2lcmnm1g4-22" value="ERROR Queue" style="text;html=1;resizable=0;autosize=1;align=center;verticalAlign=middle;points=[];fillColor=none;strokeColor=none;rounded=0;labelBackgroundColor=none;fontFamily=Verdana;fontSize=8;fontColor=#4D4D4D;" vertex="1" parent="cEU_Xj_qlOn2lcmnm1g4-15">
          <mxGeometry x="-3" width="70" height="20" as="geometry" />
        </mxCell>
        <mxCell id="cEU_Xj_qlOn2lcmnm1g4-23" value="" style="group" vertex="1" connectable="0" parent="Zjn0NVzMZ8w1wKH9n_04-1">
          <mxGeometry x="658" y="866.5" width="72" height="79" as="geometry" />
        </mxCell>
        <mxCell id="cEU_Xj_qlOn2lcmnm1g4-24" value="" style="group;strokeWidth=2;" vertex="1" connectable="0" parent="cEU_Xj_qlOn2lcmnm1g4-23">
          <mxGeometry y="19" width="70" height="60" as="geometry" />
        </mxCell>
        <mxCell id="cEU_Xj_qlOn2lcmnm1g4-25" value="" style="rounded=1;whiteSpace=wrap;html=1;strokeColor=#4D4D4D;strokeWidth=2;fillColor=#b1ddf0;arcSize=3;" vertex="1" parent="cEU_Xj_qlOn2lcmnm1g4-24">
          <mxGeometry width="70" height="60" as="geometry" />
        </mxCell>
        <mxCell id="cEU_Xj_qlOn2lcmnm1g4-26" value="" style="rounded=1;whiteSpace=wrap;html=1;strokeWidth=1;strokeColor=none;" vertex="1" parent="cEU_Xj_qlOn2lcmnm1g4-24">
          <mxGeometry x="5.833333333333333" y="5" width="58.333333333333336" height="10" as="geometry" />
        </mxCell>
        <mxCell id="cEU_Xj_qlOn2lcmnm1g4-27" value="" style="rounded=1;whiteSpace=wrap;html=1;strokeWidth=1;strokeColor=none;" vertex="1" parent="cEU_Xj_qlOn2lcmnm1g4-24">
          <mxGeometry x="5.833333333333333" y="18.5" width="58.333333333333336" height="10" as="geometry" />
        </mxCell>
        <mxCell id="cEU_Xj_qlOn2lcmnm1g4-28" value="" style="rounded=1;whiteSpace=wrap;html=1;strokeWidth=1;strokeColor=none;" vertex="1" parent="cEU_Xj_qlOn2lcmnm1g4-24">
          <mxGeometry x="5.833333333333333" y="32" width="58.333333333333336" height="10" as="geometry" />
        </mxCell>
        <mxCell id="cEU_Xj_qlOn2lcmnm1g4-29" value="" style="rounded=1;whiteSpace=wrap;html=1;strokeWidth=1;strokeColor=#BD7000;fillColor=#f0a30a;fontColor=#000000;" vertex="1" parent="cEU_Xj_qlOn2lcmnm1g4-24">
          <mxGeometry x="5.833333333333333" y="45.5" width="58.333333333333336" height="10" as="geometry" />
        </mxCell>
        <mxCell id="cEU_Xj_qlOn2lcmnm1g4-30" value="Producer1 Queue" style="text;html=1;resizable=0;autosize=1;align=center;verticalAlign=middle;points=[];fillColor=none;strokeColor=none;rounded=0;labelBackgroundColor=none;fontFamily=Verdana;fontSize=8;fontColor=#4D4D4D;" vertex="1" parent="cEU_Xj_qlOn2lcmnm1g4-23">
          <mxGeometry x="-8" width="80" height="20" as="geometry" />
        </mxCell>
        <mxCell id="cEU_Xj_qlOn2lcmnm1g4-31" style="edgeStyle=elbowEdgeStyle;rounded=0;orthogonalLoop=1;jettySize=auto;html=1;entryX=0;entryY=0.5;entryDx=0;entryDy=0;fontFamily=Verdana;fontSize=8;fontColor=none;endArrow=open;endFill=0;strokeColor=#3399FF;strokeWidth=3;fillColor=#b1ddf0;noLabel=1;exitX=0.894;exitY=0.23;exitDx=0;exitDy=0;exitPerimeter=0;" edge="1" parent="Zjn0NVzMZ8w1wKH9n_04-1" target="cEU_Xj_qlOn2lcmnm1g4-8" source="cEU_Xj_qlOn2lcmnm1g4-2">
          <mxGeometry relative="1" as="geometry">
            <mxPoint x="428" y="834.5" as="sourcePoint" />
            <mxPoint x="668" y="943.5" as="targetPoint" />
            <Array as="points">
              <mxPoint x="530" y="810" />
            </Array>
          </mxGeometry>
        </mxCell>
        <mxCell id="cEU_Xj_qlOn2lcmnm1g4-32" value="RoutingKey=#.info" style="edgeLabel;html=1;align=center;verticalAlign=middle;resizable=0;points=[];fontSize=6;fontFamily=Verdana;fontColor=#4D4D4D;labelBackgroundColor=none;fontStyle=2" vertex="1" connectable="0" parent="cEU_Xj_qlOn2lcmnm1g4-31">
          <mxGeometry x="0.14" y="-8" relative="1" as="geometry">
            <mxPoint x="22" y="6" as="offset" />
          </mxGeometry>
        </mxCell>
        <mxCell id="cEU_Xj_qlOn2lcmnm1g4-33" style="edgeStyle=elbowEdgeStyle;rounded=0;orthogonalLoop=1;jettySize=auto;html=1;entryX=0;entryY=0.5;entryDx=0;entryDy=0;fontFamily=Verdana;fontSize=8;fontColor=#4D4D4D;endArrow=open;endFill=0;strokeColor=#FF6666;strokeWidth=3;fillColor=#b0e3e6;exitX=0.974;exitY=0.379;exitDx=0;exitDy=0;exitPerimeter=0;" edge="1" parent="Zjn0NVzMZ8w1wKH9n_04-1" source="cEU_Xj_qlOn2lcmnm1g4-2" target="cEU_Xj_qlOn2lcmnm1g4-17">
          <mxGeometry relative="1" as="geometry">
            <mxPoint x="438" y="844.5" as="sourcePoint" />
            <mxPoint x="668" y="743.5" as="targetPoint" />
          </mxGeometry>
        </mxCell>
        <mxCell id="cEU_Xj_qlOn2lcmnm1g4-34" value="RoutingKey=#.error&amp;nbsp;&amp;nbsp;" style="edgeLabel;html=1;align=center;verticalAlign=middle;resizable=0;points=[];fontSize=6;fontFamily=Verdana;fontColor=#4D4D4D;labelBackgroundColor=none;fontStyle=2" vertex="1" connectable="0" parent="cEU_Xj_qlOn2lcmnm1g4-33">
          <mxGeometry x="0.2092" y="-1" relative="1" as="geometry">
            <mxPoint x="30" y="6" as="offset" />
          </mxGeometry>
        </mxCell>
        <mxCell id="cEU_Xj_qlOn2lcmnm1g4-35" value="&lt;font style=&quot;font-size: 7px;&quot;&gt;Exchange&lt;/font&gt;" style="text;html=1;resizable=0;autosize=1;align=center;verticalAlign=middle;points=[];fillColor=none;strokeColor=none;rounded=0;labelBackgroundColor=none;fontFamily=Verdana;fontSize=7;fontColor=#666666;fontStyle=1" vertex="1" parent="Zjn0NVzMZ8w1wKH9n_04-1">
          <mxGeometry x="421" y="836.5" width="50" height="10" as="geometry" />
        </mxCell>
        <mxCell id="cEU_Xj_qlOn2lcmnm1g4-36" value="" style="group" vertex="1" connectable="0" parent="Zjn0NVzMZ8w1wKH9n_04-1">
          <mxGeometry x="658" y="948" width="72" height="79" as="geometry" />
        </mxCell>
        <mxCell id="cEU_Xj_qlOn2lcmnm1g4-37" value="" style="group;strokeWidth=2;" vertex="1" connectable="0" parent="cEU_Xj_qlOn2lcmnm1g4-36">
          <mxGeometry y="19" width="70" height="60" as="geometry" />
        </mxCell>
        <mxCell id="cEU_Xj_qlOn2lcmnm1g4-38" value="" style="rounded=1;whiteSpace=wrap;html=1;strokeColor=#4D4D4D;strokeWidth=2;fillColor=#b1ddf0;arcSize=3;" vertex="1" parent="cEU_Xj_qlOn2lcmnm1g4-37">
          <mxGeometry width="70" height="60" as="geometry" />
        </mxCell>
        <mxCell id="cEU_Xj_qlOn2lcmnm1g4-39" value="" style="rounded=1;whiteSpace=wrap;html=1;strokeWidth=1;strokeColor=none;" vertex="1" parent="cEU_Xj_qlOn2lcmnm1g4-37">
          <mxGeometry x="5.833333333333333" y="5" width="58.333333333333336" height="10" as="geometry" />
        </mxCell>
        <mxCell id="cEU_Xj_qlOn2lcmnm1g4-40" value="" style="rounded=1;whiteSpace=wrap;html=1;strokeWidth=1;strokeColor=none;" vertex="1" parent="cEU_Xj_qlOn2lcmnm1g4-37">
          <mxGeometry x="5.833333333333333" y="18.5" width="58.333333333333336" height="10" as="geometry" />
        </mxCell>
        <mxCell id="cEU_Xj_qlOn2lcmnm1g4-41" value="" style="rounded=1;whiteSpace=wrap;html=1;strokeWidth=1;strokeColor=none;" vertex="1" parent="cEU_Xj_qlOn2lcmnm1g4-37">
          <mxGeometry x="5.833333333333333" y="32" width="58.333333333333336" height="10" as="geometry" />
        </mxCell>
        <mxCell id="cEU_Xj_qlOn2lcmnm1g4-42" value="" style="rounded=1;whiteSpace=wrap;html=1;strokeWidth=1;strokeColor=#BD7000;fillColor=#f0a30a;fontColor=#000000;" vertex="1" parent="cEU_Xj_qlOn2lcmnm1g4-37">
          <mxGeometry x="5.833333333333333" y="45.5" width="58.333333333333336" height="10" as="geometry" />
        </mxCell>
        <mxCell id="cEU_Xj_qlOn2lcmnm1g4-43" value="Producer2 Queue" style="text;html=1;resizable=0;autosize=1;align=center;verticalAlign=middle;points=[];fillColor=none;strokeColor=none;rounded=0;labelBackgroundColor=none;fontFamily=Verdana;fontSize=8;fontColor=#4D4D4D;" vertex="1" parent="cEU_Xj_qlOn2lcmnm1g4-36">
          <mxGeometry x="-8" width="80" height="20" as="geometry" />
        </mxCell>
        <mxCell id="cEU_Xj_qlOn2lcmnm1g4-44" style="edgeStyle=elbowEdgeStyle;rounded=0;orthogonalLoop=1;jettySize=auto;html=1;entryX=0;entryY=0.5;entryDx=0;entryDy=0;fontFamily=Verdana;fontSize=8;fontColor=none;endArrow=open;endFill=0;strokeColor=#10739E;strokeWidth=3;fillColor=#b1ddf0;noLabel=1;exitX=0.883;exitY=0.79;exitDx=0;exitDy=0;exitPerimeter=0;" edge="1" parent="Zjn0NVzMZ8w1wKH9n_04-1" source="cEU_Xj_qlOn2lcmnm1g4-2" target="cEU_Xj_qlOn2lcmnm1g4-38">
          <mxGeometry relative="1" as="geometry">
            <mxPoint x="437.99999999999955" y="884.5" as="sourcePoint" />
            <mxPoint x="668" y="763.5" as="targetPoint" />
            <Array as="points">
              <mxPoint x="530" y="940" />
            </Array>
          </mxGeometry>
        </mxCell>
        <mxCell id="cEU_Xj_qlOn2lcmnm1g4-45" value="RoutingKey=producer2.*" style="edgeLabel;html=1;align=center;verticalAlign=middle;resizable=0;points=[];fontSize=6;fontFamily=Verdana;fontColor=#4D4D4D;labelBackgroundColor=none;fontStyle=2" vertex="1" connectable="0" parent="cEU_Xj_qlOn2lcmnm1g4-44">
          <mxGeometry x="0.14" y="-8" relative="1" as="geometry">
            <mxPoint x="48" y="-8" as="offset" />
          </mxGeometry>
        </mxCell>
        <mxCell id="9E0mSSQlA55NUxvHlf5K-3" value="" style="edgeStyle=elbowEdgeStyle;rounded=0;orthogonalLoop=1;jettySize=auto;html=1;labelBackgroundColor=none;fontFamily=Verdana;fontSize=11;fontColor=none;endArrow=open;endFill=0;strokeColor=#FF3333;strokeWidth=3;fillColor=#0D4E6E;entryX=-0.043;entryY=0.401;entryDx=0;entryDy=0;exitX=1;exitY=0.75;exitDx=0;exitDy=0;entryPerimeter=0;" edge="1" parent="Zjn0NVzMZ8w1wKH9n_04-1" source="9E0mSSQlA55NUxvHlf5K-0" target="cEU_Xj_qlOn2lcmnm1g4-2">
          <mxGeometry relative="1" as="geometry" />
        </mxCell>
        <mxCell id="9E0mSSQlA55NUxvHlf5K-6" value="&lt;span&gt;producer1.error&lt;/span&gt;" style="edgeLabel;html=1;align=left;verticalAlign=middle;resizable=0;points=[];fontSize=7;fontFamily=Verdana;fontColor=#FF3333;labelBackgroundColor=none;fontStyle=2" vertex="1" connectable="0" parent="9E0mSSQlA55NUxvHlf5K-3">
          <mxGeometry x="-0.1416" y="-4" relative="1" as="geometry">
            <mxPoint x="-55" y="3" as="offset" />
          </mxGeometry>
        </mxCell>
        <mxCell id="9E0mSSQlA55NUxvHlf5K-0" value="&lt;div&gt;&lt;font style=&quot;font-size: 11px ; font-weight: normal&quot;&gt;Producer1&lt;/font&gt;&lt;/div&gt;" style="rounded=1;whiteSpace=wrap;html=1;strokeWidth=2;strokeColor=#666666;fillColor=#82B366;fontSize=12;fontStyle=1;fontFamily=Verdana;verticalAlign=middle;align=center;fontColor=#ffffff;" vertex="1" parent="Zjn0NVzMZ8w1wKH9n_04-1">
          <mxGeometry x="200" y="829.5" width="100" height="20" as="geometry" />
        </mxCell>
        <mxCell id="9E0mSSQlA55NUxvHlf5K-4" value="" style="edgeStyle=elbowEdgeStyle;rounded=0;orthogonalLoop=1;jettySize=auto;html=1;labelBackgroundColor=none;fontFamily=Verdana;fontSize=11;fontColor=#FF3333;endArrow=open;endFill=0;strokeColor=#FF3333;strokeWidth=3;fillColor=#0D4E6E;entryX=0.003;entryY=0.63;entryDx=0;entryDy=0;exitX=1;exitY=0.25;exitDx=0;exitDy=0;entryPerimeter=0;align=center;" edge="1" parent="Zjn0NVzMZ8w1wKH9n_04-1" source="9E0mSSQlA55NUxvHlf5K-2" target="cEU_Xj_qlOn2lcmnm1g4-2">
          <mxGeometry relative="1" as="geometry" />
        </mxCell>
        <mxCell id="9E0mSSQlA55NUxvHlf5K-7" value="&lt;span style=&quot;font-style: italic&quot;&gt;producer2.info&lt;br&gt;&lt;/span&gt;" style="edgeLabel;html=1;align=left;verticalAlign=middle;resizable=0;points=[];fontSize=7;fontFamily=Verdana;fontColor=#FF3333;labelBackgroundColor=none;" vertex="1" connectable="0" parent="9E0mSSQlA55NUxvHlf5K-4">
          <mxGeometry x="-0.1132" y="5" relative="1" as="geometry">
            <mxPoint x="-55" as="offset" />
          </mxGeometry>
        </mxCell>
        <mxCell id="9E0mSSQlA55NUxvHlf5K-2" value="&lt;div&gt;&lt;font style=&quot;font-size: 11px ; font-weight: normal&quot;&gt;Producer2&lt;/font&gt;&lt;/div&gt;" style="rounded=1;whiteSpace=wrap;html=1;strokeWidth=2;strokeColor=#999999;fillColor=#10739E;fontColor=#ffffff;fontSize=12;fontStyle=1;fontFamily=Verdana;verticalAlign=middle;align=center;" vertex="1" parent="Zjn0NVzMZ8w1wKH9n_04-1">
          <mxGeometry x="200" y="906" width="100" height="20" as="geometry" />
        </mxCell>
        <mxCell id="9E0mSSQlA55NUxvHlf5K-8" value="" style="edgeStyle=elbowEdgeStyle;rounded=0;orthogonalLoop=1;jettySize=auto;html=1;labelBackgroundColor=none;fontFamily=Verdana;fontSize=11;fontColor=none;endArrow=open;endFill=0;strokeColor=#3399FF;strokeWidth=3;fillColor=#0D4E6E;exitX=1;exitY=0.25;exitDx=0;exitDy=0;" edge="1" parent="Zjn0NVzMZ8w1wKH9n_04-1" source="9E0mSSQlA55NUxvHlf5K-0">
          <mxGeometry relative="1" as="geometry">
            <mxPoint x="310" y="854.5" as="sourcePoint" />
            <mxPoint x="430" y="857" as="targetPoint" />
          </mxGeometry>
        </mxCell>
        <mxCell id="9E0mSSQlA55NUxvHlf5K-9" value="producer1.info" style="edgeLabel;html=1;align=left;verticalAlign=middle;resizable=0;points=[];fontSize=7;fontFamily=Verdana;fontColor=#3399FF;labelBackgroundColor=none;fontStyle=2" vertex="1" connectable="0" parent="9E0mSSQlA55NUxvHlf5K-8">
          <mxGeometry x="-0.1416" y="-4" relative="1" as="geometry">
            <mxPoint x="5" y="7" as="offset" />
          </mxGeometry>
        </mxCell>
        <mxCell id="9E0mSSQlA55NUxvHlf5K-10" value="" style="edgeStyle=elbowEdgeStyle;rounded=0;orthogonalLoop=1;jettySize=auto;html=1;labelBackgroundColor=none;fontFamily=Verdana;fontSize=11;fontColor=none;endArrow=open;endFill=0;strokeColor=#3399FF;strokeWidth=3;fillColor=#0D4E6E;exitX=1;exitY=0.75;exitDx=0;exitDy=0;entryX=0.271;entryY=0.95;entryDx=0;entryDy=0;entryPerimeter=0;" edge="1" parent="Zjn0NVzMZ8w1wKH9n_04-1" source="9E0mSSQlA55NUxvHlf5K-2" target="cEU_Xj_qlOn2lcmnm1g4-2">
          <mxGeometry relative="1" as="geometry">
            <mxPoint x="310" y="844.5" as="sourcePoint" />
            <mxPoint x="440" y="867" as="targetPoint" />
          </mxGeometry>
        </mxCell>
        <mxCell id="9E0mSSQlA55NUxvHlf5K-11" value="producer2.error" style="edgeLabel;html=1;align=left;verticalAlign=middle;resizable=0;points=[];fontSize=7;fontFamily=Verdana;fontColor=#3399FF;labelBackgroundColor=none;fontStyle=2" vertex="1" connectable="0" parent="9E0mSSQlA55NUxvHlf5K-10">
          <mxGeometry x="-0.1416" y="-4" relative="1" as="geometry">
            <mxPoint x="-4" y="-12" as="offset" />
          </mxGeometry>
        </mxCell>
        <mxCell id="9E0mSSQlA55NUxvHlf5K-12" value="&lt;div&gt;&lt;font style=&quot;font-size: 11px ; font-weight: normal&quot;&gt;Producer1&lt;/font&gt;&lt;/div&gt;" style="rounded=1;whiteSpace=wrap;html=1;strokeWidth=2;strokeColor=#666666;fillColor=#82B366;fontSize=12;fontStyle=1;fontFamily=Verdana;verticalAlign=middle;align=center;fontColor=#ffffff;" vertex="1" parent="Zjn0NVzMZ8w1wKH9n_04-1">
          <mxGeometry x="200" y="504.5" width="100" height="20" as="geometry" />
        </mxCell>
        <mxCell id="9E0mSSQlA55NUxvHlf5K-13" value="RoutingKey=wechat" style="edgeStyle=orthogonalEdgeStyle;curved=1;rounded=0;orthogonalLoop=1;jettySize=auto;html=1;exitX=1;exitY=0.5;exitDx=0;exitDy=0;entryX=0;entryY=0.5;entryDx=0;entryDy=0;fontFamily=Verdana;fontSize=6;fontColor=#4D4D4D;endArrow=open;endFill=0;strokeColor=#82b366;strokeWidth=3;fillColor=#d5e8d4;labelBackgroundColor=none;fontStyle=2;gradientColor=#97d077;" edge="1" parent="Zjn0NVzMZ8w1wKH9n_04-1" source="9E0mSSQlA55NUxvHlf5K-12" target="bxoCQ-I3rHgEAsj8swqi-3">
          <mxGeometry x="0.003" y="-5" relative="1" as="geometry">
            <mxPoint as="offset" />
            <mxPoint x="475.99999999999955" y="524.5" as="sourcePoint" />
            <mxPoint x="666" y="605.5" as="targetPoint" />
          </mxGeometry>
        </mxCell>
        <mxCell id="9E0mSSQlA55NUxvHlf5K-14" value="&lt;div&gt;&lt;font style=&quot;font-size: 11px ; font-weight: normal&quot;&gt;Producer&lt;/font&gt;&lt;/div&gt;" style="rounded=1;whiteSpace=wrap;html=1;strokeWidth=2;strokeColor=#666666;fillColor=#999999;fontSize=12;fontStyle=1;fontFamily=Verdana;verticalAlign=middle;align=center;fontColor=#ffffff;" vertex="1" parent="Zjn0NVzMZ8w1wKH9n_04-1">
          <mxGeometry x="200" y="184.5" width="100" height="20" as="geometry" />
        </mxCell>
        <mxCell id="9E0mSSQlA55NUxvHlf5K-15" value="Publish" style="edgeStyle=orthogonalEdgeStyle;curved=1;rounded=0;orthogonalLoop=1;jettySize=auto;html=1;entryX=0;entryY=0.5;entryDx=0;entryDy=0;fontFamily=Verdana;fontSize=6;fontColor=#4D4D4D;endArrow=open;endFill=0;strokeColor=#999999;strokeWidth=3;fillColor=#0D4E6E;exitX=1;exitY=0.5;exitDx=0;exitDy=0;labelBackgroundColor=none;fontStyle=2" edge="1" parent="Zjn0NVzMZ8w1wKH9n_04-1" source="9E0mSSQlA55NUxvHlf5K-14" target="FwyX75T9QJ3T9Jq4nIdr-1">
          <mxGeometry relative="1" as="geometry">
            <mxPoint x="480" y="204" as="sourcePoint" />
            <mxPoint x="663" y="123.5" as="targetPoint" />
          </mxGeometry>
        </mxCell>
        <mxCell id="9E0mSSQlA55NUxvHlf5K-17" value="&lt;font style=&quot;font-size: 7px;&quot;&gt;Exchange&lt;/font&gt;" style="text;html=1;resizable=0;autosize=1;align=center;verticalAlign=middle;points=[];fillColor=none;strokeColor=none;rounded=0;labelBackgroundColor=none;fontFamily=Verdana;fontSize=7;fontColor=#666666;fontStyle=1" vertex="1" parent="Zjn0NVzMZ8w1wKH9n_04-1">
          <mxGeometry x="416" y="475.5" width="50" height="10" as="geometry" />
        </mxCell>
        <mxCell id="9E0mSSQlA55NUxvHlf5K-19" value="&lt;font style=&quot;font-size: 7px;&quot;&gt;Exchange&lt;/font&gt;" style="text;html=1;resizable=0;autosize=1;align=center;verticalAlign=middle;points=[];fillColor=none;strokeColor=none;rounded=0;labelBackgroundColor=none;fontFamily=Verdana;fontSize=7;fontColor=#666666;fontStyle=1" vertex="1" parent="Zjn0NVzMZ8w1wKH9n_04-1">
          <mxGeometry x="420" y="155" width="50" height="10" as="geometry" />
        </mxCell>
      </root>
    </mxGraphModel>
  </diagram>
  <diagram id="5ykx_wPtgf7N7Slye3C-" name="Tr-MQ">
    <mxGraphModel dx="1422" dy="762" grid="1" gridSize="10" guides="1" tooltips="1" connect="1" arrows="1" fold="1" page="1" pageScale="1" pageWidth="850" pageHeight="1100" math="0" shadow="0">
      <root>
        <mxCell id="Oc-uMNU_bIT3f0F7BZmr-0" />
        <mxCell id="Oc-uMNU_bIT3f0F7BZmr-1" parent="Oc-uMNU_bIT3f0F7BZmr-0" />
        <mxCell id="u7AlzgocJywEccp2xecs-28" value="&lt;font style=&quot;font-size: 13px&quot;&gt;MQ Service&lt;/font&gt;" style="rounded=1;whiteSpace=wrap;html=1;strokeColor=#b46504;strokeWidth=2;fillColor=#fad7ac;arcSize=3;verticalAlign=top;fontFamily=Verdana;fontStyle=1;fontSize=13;fontColor=#666666;" vertex="1" parent="Oc-uMNU_bIT3f0F7BZmr-1">
          <mxGeometry x="440" y="561" width="200" height="200" as="geometry" />
        </mxCell>
        <mxCell id="u7AlzgocJywEccp2xecs-0" value="&lt;font style=&quot;font-size: 13px&quot;&gt;VIP Service&lt;/font&gt;" style="rounded=1;whiteSpace=wrap;html=1;strokeColor=#b46504;strokeWidth=2;fillColor=#fad7ac;arcSize=3;verticalAlign=top;fontFamily=Verdana;fontStyle=1;fontSize=13;fontColor=#666666;" vertex="1" parent="Oc-uMNU_bIT3f0F7BZmr-1">
          <mxGeometry x="201" y="320" width="200" height="200" as="geometry" />
        </mxCell>
        <mxCell id="u7AlzgocJywEccp2xecs-1" value="" style="edgeStyle=elbowEdgeStyle;rounded=0;orthogonalLoop=1;jettySize=auto;html=1;labelBackgroundColor=none;fontFamily=Verdana;fontSize=6;fontColor=#666666;endArrow=open;endFill=0;strokeColor=#82B366;strokeWidth=2;fillColor=#0D4E6E;entryX=0;entryY=0.25;entryDx=0;entryDy=0;" edge="1" parent="Oc-uMNU_bIT3f0F7BZmr-1" target="u7AlzgocJywEccp2xecs-0">
          <mxGeometry relative="1" as="geometry">
            <mxPoint x="141" y="410.0000000000001" as="sourcePoint" />
            <mxPoint x="241" y="410" as="targetPoint" />
          </mxGeometry>
        </mxCell>
        <mxCell id="u7AlzgocJywEccp2xecs-2" value="&lt;div style=&quot;font-size: 13px;&quot;&gt;&lt;span style=&quot;font-size: 13px;&quot;&gt;Client&lt;/span&gt;&lt;/div&gt;" style="rounded=1;whiteSpace=wrap;html=1;strokeWidth=1;strokeColor=#4D4D4D;fillColor=#f0a30a;fontColor=#666666;fontSize=13;fontStyle=1;fontFamily=Verdana;verticalAlign=middle;align=center;arcSize=5;" vertex="1" parent="Oc-uMNU_bIT3f0F7BZmr-1">
          <mxGeometry x="41" y="400" width="100" height="40" as="geometry" />
        </mxCell>
        <mxCell id="u7AlzgocJywEccp2xecs-3" value="" style="edgeStyle=elbowEdgeStyle;rounded=0;orthogonalLoop=1;jettySize=auto;html=1;labelBackgroundColor=none;fontFamily=Verdana;fontSize=6;fontColor=#666666;endArrow=open;endFill=0;strokeColor=#82B366;strokeWidth=2;fillColor=#0D4E6E;entryX=1;entryY=0.75;entryDx=0;entryDy=0;exitX=0;exitY=0.75;exitDx=0;exitDy=0;" edge="1" parent="Oc-uMNU_bIT3f0F7BZmr-1" source="u7AlzgocJywEccp2xecs-0" target="u7AlzgocJywEccp2xecs-2">
          <mxGeometry relative="1" as="geometry" />
        </mxCell>
        <mxCell id="u7AlzgocJywEccp2xecs-4" style="edgeStyle=elbowEdgeStyle;rounded=0;orthogonalLoop=1;jettySize=auto;html=1;exitX=0;exitY=0.25;exitDx=0;exitDy=0;entryX=0;entryY=0.5;entryDx=0;entryDy=0;labelBackgroundColor=none;fontFamily=Verdana;fontSize=13;fontColor=#666666;endArrow=open;endFill=0;strokeColor=#82B366;strokeWidth=2;fillColor=#0D4E6E;" edge="1" parent="Oc-uMNU_bIT3f0F7BZmr-1" source="u7AlzgocJywEccp2xecs-0" target="u7AlzgocJywEccp2xecs-6">
          <mxGeometry relative="1" as="geometry" />
        </mxCell>
        <mxCell id="u7AlzgocJywEccp2xecs-5" value="" style="edgeStyle=elbowEdgeStyle;rounded=0;orthogonalLoop=1;jettySize=auto;html=1;labelBackgroundColor=none;fontFamily=Verdana;fontSize=13;fontColor=#666666;endArrow=open;endFill=0;strokeColor=#82B366;strokeWidth=2;fillColor=#0D4E6E;entryX=0.5;entryY=0;entryDx=0;entryDy=0;" edge="1" parent="Oc-uMNU_bIT3f0F7BZmr-1" source="u7AlzgocJywEccp2xecs-6" target="u7AlzgocJywEccp2xecs-8">
          <mxGeometry relative="1" as="geometry" />
        </mxCell>
        <mxCell id="u7AlzgocJywEccp2xecs-6" value="&lt;div style=&quot;font-size: 12px&quot;&gt;&lt;span style=&quot;font-size: 12px&quot;&gt;insertDB()&amp;nbsp; 0.01s&lt;/span&gt;&lt;/div&gt;" style="rounded=1;whiteSpace=wrap;html=1;strokeWidth=1;strokeColor=#4D4D4D;fillColor=#60a917;fontColor=#666666;fontSize=12;fontStyle=1;fontFamily=Verdana;verticalAlign=middle;align=center;" vertex="1" parent="Oc-uMNU_bIT3f0F7BZmr-1">
          <mxGeometry x="238" y="357" width="130" height="20" as="geometry" />
        </mxCell>
        <mxCell id="u7AlzgocJywEccp2xecs-7" value="" style="edgeStyle=elbowEdgeStyle;rounded=0;orthogonalLoop=1;jettySize=auto;html=1;labelBackgroundColor=none;fontFamily=Verdana;fontSize=13;fontColor=#666666;endArrow=open;endFill=0;strokeColor=#82B366;strokeWidth=2;fillColor=#0D4E6E;exitX=0.5;exitY=1;exitDx=0;exitDy=0;" edge="1" parent="Oc-uMNU_bIT3f0F7BZmr-1" source="u7AlzgocJywEccp2xecs-8" target="u7AlzgocJywEccp2xecs-10">
          <mxGeometry relative="1" as="geometry" />
        </mxCell>
        <mxCell id="u7AlzgocJywEccp2xecs-8" value="&lt;div style=&quot;font-size: 12px&quot;&gt;&lt;span style=&quot;font-size: 12px&quot;&gt;sendSms()&amp;nbsp; 1s&lt;/span&gt;&lt;/div&gt;" style="rounded=1;whiteSpace=wrap;html=1;strokeWidth=1;strokeColor=#4D4D4D;fillColor=#60a917;fontColor=#666666;fontSize=12;fontStyle=1;fontFamily=Verdana;verticalAlign=middle;align=center;" vertex="1" parent="Oc-uMNU_bIT3f0F7BZmr-1">
          <mxGeometry x="238" y="400" width="130" height="20" as="geometry" />
        </mxCell>
        <mxCell id="u7AlzgocJywEccp2xecs-9" value="" style="edgeStyle=elbowEdgeStyle;rounded=0;orthogonalLoop=1;jettySize=auto;html=1;labelBackgroundColor=none;fontFamily=Verdana;fontSize=13;fontColor=#666666;endArrow=open;endFill=0;strokeColor=#82B366;strokeWidth=2;fillColor=#0D4E6E;" edge="1" parent="Oc-uMNU_bIT3f0F7BZmr-1" source="u7AlzgocJywEccp2xecs-10" target="u7AlzgocJywEccp2xecs-12">
          <mxGeometry relative="1" as="geometry" />
        </mxCell>
        <mxCell id="u7AlzgocJywEccp2xecs-10" value="&lt;div style=&quot;font-size: 12px&quot;&gt;&lt;span style=&quot;font-size: 12px&quot;&gt;sendEmail()&amp;nbsp; 2s&lt;/span&gt;&lt;/div&gt;" style="rounded=1;whiteSpace=wrap;html=1;strokeWidth=1;strokeColor=#4D4D4D;fillColor=#60a917;fontColor=#666666;fontSize=12;fontStyle=1;fontFamily=Verdana;verticalAlign=middle;align=center;" vertex="1" parent="Oc-uMNU_bIT3f0F7BZmr-1">
          <mxGeometry x="238" y="440" width="130" height="20" as="geometry" />
        </mxCell>
        <mxCell id="u7AlzgocJywEccp2xecs-11" style="edgeStyle=elbowEdgeStyle;rounded=0;orthogonalLoop=1;jettySize=auto;html=1;exitX=0;exitY=0.5;exitDx=0;exitDy=0;labelBackgroundColor=none;fontFamily=Verdana;fontSize=13;fontColor=#666666;endArrow=open;endFill=0;strokeColor=#82B366;strokeWidth=2;fillColor=#0D4E6E;entryX=0;entryY=0.75;entryDx=0;entryDy=0;" edge="1" parent="Oc-uMNU_bIT3f0F7BZmr-1" source="u7AlzgocJywEccp2xecs-12" target="u7AlzgocJywEccp2xecs-0">
          <mxGeometry relative="1" as="geometry" />
        </mxCell>
        <mxCell id="u7AlzgocJywEccp2xecs-12" value="&lt;div style=&quot;font-size: 12px&quot;&gt;&lt;span style=&quot;font-size: 12px&quot;&gt;sendWeChat()&amp;nbsp; 3s&lt;/span&gt;&lt;/div&gt;" style="rounded=1;whiteSpace=wrap;html=1;strokeWidth=1;strokeColor=#4D4D4D;fillColor=#60a917;fontColor=#666666;fontSize=12;fontStyle=1;fontFamily=Verdana;verticalAlign=middle;align=center;" vertex="1" parent="Oc-uMNU_bIT3f0F7BZmr-1">
          <mxGeometry x="238" y="480" width="130" height="20" as="geometry" />
        </mxCell>
        <mxCell id="u7AlzgocJywEccp2xecs-14" value="&lt;font style=&quot;font-size: 13px&quot;&gt;VIP Service&lt;/font&gt;" style="rounded=1;whiteSpace=wrap;html=1;strokeColor=#b46504;strokeWidth=2;fillColor=#fad7ac;arcSize=3;verticalAlign=top;fontFamily=Verdana;fontStyle=1;fontSize=13;fontColor=#666666;" vertex="1" parent="Oc-uMNU_bIT3f0F7BZmr-1">
          <mxGeometry x="200" y="561" width="200" height="200" as="geometry" />
        </mxCell>
        <mxCell id="u7AlzgocJywEccp2xecs-15" value="" style="edgeStyle=elbowEdgeStyle;rounded=0;orthogonalLoop=1;jettySize=auto;html=1;labelBackgroundColor=none;fontFamily=Verdana;fontSize=6;fontColor=#666666;endArrow=open;endFill=0;strokeColor=#82B366;strokeWidth=2;fillColor=#0D4E6E;entryX=0;entryY=0.25;entryDx=0;entryDy=0;" edge="1" parent="Oc-uMNU_bIT3f0F7BZmr-1" target="u7AlzgocJywEccp2xecs-14">
          <mxGeometry relative="1" as="geometry">
            <mxPoint x="142" y="651" as="sourcePoint" />
            <mxPoint x="233" y="651" as="targetPoint" />
          </mxGeometry>
        </mxCell>
        <mxCell id="u7AlzgocJywEccp2xecs-16" value="&lt;div style=&quot;font-size: 13px;&quot;&gt;&lt;span style=&quot;font-size: 13px;&quot;&gt;Client&lt;/span&gt;&lt;/div&gt;" style="rounded=1;whiteSpace=wrap;html=1;strokeWidth=1;strokeColor=#4D4D4D;fillColor=#f0a30a;fontColor=#666666;fontSize=13;fontStyle=1;fontFamily=Verdana;verticalAlign=middle;align=center;arcSize=5;" vertex="1" parent="Oc-uMNU_bIT3f0F7BZmr-1">
          <mxGeometry x="41" y="641" width="100" height="40" as="geometry" />
        </mxCell>
        <mxCell id="u7AlzgocJywEccp2xecs-17" value="" style="edgeStyle=elbowEdgeStyle;rounded=0;orthogonalLoop=1;jettySize=auto;html=1;labelBackgroundColor=none;fontFamily=Verdana;fontSize=6;fontColor=#666666;endArrow=open;endFill=0;strokeColor=#82B366;strokeWidth=2;fillColor=#0D4E6E;entryX=1;entryY=0.75;entryDx=0;entryDy=0;exitX=0;exitY=0.75;exitDx=0;exitDy=0;" edge="1" parent="Oc-uMNU_bIT3f0F7BZmr-1" source="u7AlzgocJywEccp2xecs-14" target="u7AlzgocJywEccp2xecs-16">
          <mxGeometry relative="1" as="geometry" />
        </mxCell>
        <mxCell id="u7AlzgocJywEccp2xecs-18" style="edgeStyle=elbowEdgeStyle;rounded=0;orthogonalLoop=1;jettySize=auto;html=1;exitX=0;exitY=0.25;exitDx=0;exitDy=0;labelBackgroundColor=none;fontFamily=Verdana;fontSize=13;fontColor=#666666;endArrow=open;endFill=0;strokeColor=#82B366;strokeWidth=2;fillColor=#0D4E6E;entryX=0;entryY=0.25;entryDx=0;entryDy=0;" edge="1" parent="Oc-uMNU_bIT3f0F7BZmr-1" source="u7AlzgocJywEccp2xecs-14" target="u7AlzgocJywEccp2xecs-20">
          <mxGeometry relative="1" as="geometry">
            <mxPoint x="305" y="630" as="targetPoint" />
          </mxGeometry>
        </mxCell>
        <mxCell id="CKg_J_6p1vf8oDo_9uQ1-6" value="" style="edgeStyle=elbowEdgeStyle;rounded=0;orthogonalLoop=1;jettySize=auto;html=1;labelBackgroundColor=none;fontFamily=Verdana;fontSize=13;fontColor=#666666;endArrow=open;endFill=0;strokeColor=#82B366;strokeWidth=2;fillColor=#0D4E6E;" edge="1" parent="Oc-uMNU_bIT3f0F7BZmr-1" source="u7AlzgocJywEccp2xecs-20" target="u7AlzgocJywEccp2xecs-28">
          <mxGeometry relative="1" as="geometry" />
        </mxCell>
        <mxCell id="u7AlzgocJywEccp2xecs-20" value="&lt;div style=&quot;font-size: 12px&quot;&gt;&lt;span style=&quot;font-size: 12px&quot;&gt;insertDB()&amp;nbsp; 0.01s&lt;/span&gt;&lt;/div&gt;" style="rounded=1;whiteSpace=wrap;html=1;strokeWidth=1;strokeColor=#4D4D4D;fillColor=#60a917;fontColor=#666666;fontSize=12;fontStyle=1;fontFamily=Verdana;verticalAlign=middle;align=center;" vertex="1" parent="Oc-uMNU_bIT3f0F7BZmr-1">
          <mxGeometry x="236" y="635" width="130" height="52" as="geometry" />
        </mxCell>
        <mxCell id="u7AlzgocJywEccp2xecs-21" value="" style="edgeStyle=elbowEdgeStyle;rounded=0;orthogonalLoop=1;jettySize=auto;html=1;labelBackgroundColor=none;fontFamily=Verdana;fontSize=13;fontColor=#666666;endArrow=open;endFill=0;strokeColor=#82B366;strokeWidth=2;fillColor=#0D4E6E;exitX=0.5;exitY=1;exitDx=0;exitDy=0;" edge="1" parent="Oc-uMNU_bIT3f0F7BZmr-1" target="u7AlzgocJywEccp2xecs-24">
          <mxGeometry relative="1" as="geometry">
            <mxPoint x="353" y="461" as="sourcePoint" />
          </mxGeometry>
        </mxCell>
        <mxCell id="u7AlzgocJywEccp2xecs-23" value="" style="edgeStyle=elbowEdgeStyle;rounded=0;orthogonalLoop=1;jettySize=auto;html=1;labelBackgroundColor=none;fontFamily=Verdana;fontSize=13;fontColor=#666666;endArrow=open;endFill=0;strokeColor=#82B366;strokeWidth=2;fillColor=#0D4E6E;" edge="1" parent="Oc-uMNU_bIT3f0F7BZmr-1" target="u7AlzgocJywEccp2xecs-26">
          <mxGeometry relative="1" as="geometry">
            <mxPoint x="353" y="501" as="sourcePoint" />
          </mxGeometry>
        </mxCell>
        <mxCell id="u7AlzgocJywEccp2xecs-25" style="edgeStyle=elbowEdgeStyle;rounded=0;orthogonalLoop=1;jettySize=auto;html=1;exitX=0;exitY=0.75;exitDx=0;exitDy=0;labelBackgroundColor=none;fontFamily=Verdana;fontSize=13;fontColor=#666666;endArrow=open;endFill=0;strokeColor=#82B366;strokeWidth=2;fillColor=#0D4E6E;entryX=0;entryY=0.75;entryDx=0;entryDy=0;" edge="1" parent="Oc-uMNU_bIT3f0F7BZmr-1" source="u7AlzgocJywEccp2xecs-20" target="u7AlzgocJywEccp2xecs-14">
          <mxGeometry relative="1" as="geometry">
            <mxPoint x="243" y="731" as="sourcePoint" />
          </mxGeometry>
        </mxCell>
        <mxCell id="CKg_J_6p1vf8oDo_9uQ1-7" style="edgeStyle=elbowEdgeStyle;rounded=0;orthogonalLoop=1;jettySize=auto;html=1;exitX=0;exitY=0.5;exitDx=0;exitDy=0;entryX=0;entryY=0.5;entryDx=0;entryDy=0;labelBackgroundColor=none;fontFamily=Verdana;fontSize=13;fontColor=#666666;endArrow=open;endFill=0;strokeColor=#82B366;strokeWidth=2;fillColor=#0D4E6E;" edge="1" parent="Oc-uMNU_bIT3f0F7BZmr-1" source="u7AlzgocJywEccp2xecs-28" target="CKg_J_6p1vf8oDo_9uQ1-1">
          <mxGeometry relative="1" as="geometry" />
        </mxCell>
        <mxCell id="CKg_J_6p1vf8oDo_9uQ1-0" value="" style="group" vertex="1" connectable="0" parent="Oc-uMNU_bIT3f0F7BZmr-1">
          <mxGeometry x="482" y="610" width="116" height="110" as="geometry" />
        </mxCell>
        <mxCell id="CKg_J_6p1vf8oDo_9uQ1-1" value="" style="rounded=1;whiteSpace=wrap;html=1;strokeColor=#4D4D4D;strokeWidth=1;fillColor=#b1ddf0;arcSize=3;" vertex="1" parent="CKg_J_6p1vf8oDo_9uQ1-0">
          <mxGeometry y="-4" width="116" height="110" as="geometry" />
        </mxCell>
        <mxCell id="CKg_J_6p1vf8oDo_9uQ1-2" value="" style="rounded=1;whiteSpace=wrap;html=1;strokeWidth=1;strokeColor=none;" vertex="1" parent="CKg_J_6p1vf8oDo_9uQ1-0">
          <mxGeometry x="9.666666666666668" y="9.166666666666666" width="96.66666666666667" height="18.333333333333332" as="geometry" />
        </mxCell>
        <mxCell id="CKg_J_6p1vf8oDo_9uQ1-3" value="" style="rounded=1;whiteSpace=wrap;html=1;strokeWidth=1;strokeColor=none;" vertex="1" parent="CKg_J_6p1vf8oDo_9uQ1-0">
          <mxGeometry x="9.666666666666668" y="33.916666666666664" width="96.66666666666667" height="18.333333333333332" as="geometry" />
        </mxCell>
        <mxCell id="CKg_J_6p1vf8oDo_9uQ1-4" value="" style="rounded=1;whiteSpace=wrap;html=1;strokeWidth=1;strokeColor=none;" vertex="1" parent="CKg_J_6p1vf8oDo_9uQ1-0">
          <mxGeometry x="9.666666666666668" y="58.666666666666664" width="96.66666666666667" height="18.333333333333332" as="geometry" />
        </mxCell>
        <mxCell id="CKg_J_6p1vf8oDo_9uQ1-5" value="" style="rounded=1;whiteSpace=wrap;html=1;strokeWidth=1;strokeColor=#BD7000;fillColor=#f0a30a;fontColor=#000000;" vertex="1" parent="CKg_J_6p1vf8oDo_9uQ1-0">
          <mxGeometry x="9.666666666666668" y="83.41666666666666" width="96.66666666666667" height="18.333333333333332" as="geometry" />
        </mxCell>
        <mxCell id="MxgKzACN8pHEczgQ969e-0" value="&lt;div style=&quot;font-size: 12px&quot;&gt;&lt;span style=&quot;font-size: 12px&quot;&gt;sendSms()&amp;nbsp; 1s&lt;/span&gt;&lt;/div&gt;" style="rounded=1;whiteSpace=wrap;html=1;strokeWidth=1;strokeColor=#4D4D4D;fillColor=#60a917;fontColor=#666666;fontSize=12;fontStyle=1;fontFamily=Verdana;verticalAlign=middle;align=center;" vertex="1" parent="Oc-uMNU_bIT3f0F7BZmr-1">
          <mxGeometry x="681" y="580" width="130" height="50" as="geometry" />
        </mxCell>
        <mxCell id="MxgKzACN8pHEczgQ969e-1" value="&lt;div style=&quot;font-size: 12px&quot;&gt;&lt;span style=&quot;font-size: 12px&quot;&gt;sendEmail()&amp;nbsp; 2s&lt;/span&gt;&lt;/div&gt;" style="rounded=1;whiteSpace=wrap;html=1;strokeWidth=1;strokeColor=#4D4D4D;fillColor=#60a917;fontColor=#666666;fontSize=12;fontStyle=1;fontFamily=Verdana;verticalAlign=middle;align=center;" vertex="1" parent="Oc-uMNU_bIT3f0F7BZmr-1">
          <mxGeometry x="681" y="637" width="130" height="49" as="geometry" />
        </mxCell>
        <mxCell id="MxgKzACN8pHEczgQ969e-2" value="&lt;div style=&quot;font-size: 12px&quot;&gt;&lt;span style=&quot;font-size: 12px&quot;&gt;sendWeChat()&amp;nbsp; 3s&lt;/span&gt;&lt;/div&gt;" style="rounded=1;whiteSpace=wrap;html=1;strokeWidth=1;strokeColor=#4D4D4D;fillColor=#60a917;fontColor=#666666;fontSize=12;fontStyle=1;fontFamily=Verdana;verticalAlign=middle;align=center;" vertex="1" parent="Oc-uMNU_bIT3f0F7BZmr-1">
          <mxGeometry x="681" y="696" width="130" height="50" as="geometry" />
        </mxCell>
        <mxCell id="MxgKzACN8pHEczgQ969e-3" style="edgeStyle=elbowEdgeStyle;rounded=0;orthogonalLoop=1;jettySize=auto;html=1;exitX=1;exitY=0.25;exitDx=0;exitDy=0;entryX=0;entryY=0.5;entryDx=0;entryDy=0;labelBackgroundColor=none;fontFamily=Verdana;fontSize=13;fontColor=#666666;endArrow=open;endFill=0;strokeColor=#82B366;strokeWidth=2;fillColor=#0D4E6E;" edge="1" parent="Oc-uMNU_bIT3f0F7BZmr-1" source="CKg_J_6p1vf8oDo_9uQ1-1" target="MxgKzACN8pHEczgQ969e-0">
          <mxGeometry relative="1" as="geometry">
            <Array as="points">
              <mxPoint x="650" y="620" />
            </Array>
          </mxGeometry>
        </mxCell>
        <mxCell id="MxgKzACN8pHEczgQ969e-4" style="edgeStyle=elbowEdgeStyle;rounded=0;orthogonalLoop=1;jettySize=auto;html=1;exitX=1;exitY=0.75;exitDx=0;exitDy=0;entryX=0;entryY=0.5;entryDx=0;entryDy=0;labelBackgroundColor=none;fontFamily=Verdana;fontSize=13;fontColor=#666666;endArrow=open;endFill=0;strokeColor=#82B366;strokeWidth=2;fillColor=#0D4E6E;" edge="1" parent="Oc-uMNU_bIT3f0F7BZmr-1" source="CKg_J_6p1vf8oDo_9uQ1-1" target="MxgKzACN8pHEczgQ969e-2">
          <mxGeometry relative="1" as="geometry">
            <Array as="points">
              <mxPoint x="650" y="710" />
            </Array>
          </mxGeometry>
        </mxCell>
        <mxCell id="MxgKzACN8pHEczgQ969e-5" style="edgeStyle=elbowEdgeStyle;rounded=0;orthogonalLoop=1;jettySize=auto;html=1;exitX=1;exitY=0.5;exitDx=0;exitDy=0;entryX=0;entryY=0.5;entryDx=0;entryDy=0;labelBackgroundColor=none;fontFamily=Verdana;fontSize=13;fontColor=#666666;endArrow=open;endFill=0;strokeColor=#82B366;strokeWidth=2;fillColor=#0D4E6E;" edge="1" parent="Oc-uMNU_bIT3f0F7BZmr-1" source="CKg_J_6p1vf8oDo_9uQ1-1" target="MxgKzACN8pHEczgQ969e-1">
          <mxGeometry relative="1" as="geometry" />
        </mxCell>
        <mxCell id="MxgKzACN8pHEczgQ969e-6" value="&lt;font style=&quot;font-size: 13px&quot;&gt;VIP Service&lt;/font&gt;" style="rounded=1;whiteSpace=wrap;html=1;strokeColor=#b46504;strokeWidth=2;fillColor=#fad7ac;arcSize=3;verticalAlign=top;fontFamily=Verdana;fontStyle=1;fontSize=13;fontColor=#666666;" vertex="1" parent="Oc-uMNU_bIT3f0F7BZmr-1">
          <mxGeometry x="320" y="40" width="200" height="200" as="geometry" />
        </mxCell>
        <mxCell id="MxgKzACN8pHEczgQ969e-7" value="" style="edgeStyle=elbowEdgeStyle;rounded=0;orthogonalLoop=1;jettySize=auto;html=1;labelBackgroundColor=none;fontFamily=Verdana;fontSize=6;fontColor=#666666;endArrow=open;endFill=0;strokeColor=#82B366;strokeWidth=2;fillColor=#0D4E6E;entryX=0;entryY=0.25;entryDx=0;entryDy=0;" edge="1" parent="Oc-uMNU_bIT3f0F7BZmr-1" target="MxgKzACN8pHEczgQ969e-6">
          <mxGeometry relative="1" as="geometry">
            <mxPoint x="140" y="130" as="sourcePoint" />
            <mxPoint x="240" y="130" as="targetPoint" />
          </mxGeometry>
        </mxCell>
        <mxCell id="MxgKzACN8pHEczgQ969e-8" value="&lt;div style=&quot;font-size: 13px;&quot;&gt;&lt;span style=&quot;font-size: 13px;&quot;&gt;Client&lt;/span&gt;&lt;/div&gt;" style="rounded=1;whiteSpace=wrap;html=1;strokeWidth=1;strokeColor=#4D4D4D;fillColor=#f0a30a;fontColor=#666666;fontSize=13;fontStyle=1;fontFamily=Verdana;verticalAlign=middle;align=center;arcSize=5;" vertex="1" parent="Oc-uMNU_bIT3f0F7BZmr-1">
          <mxGeometry x="40" y="120" width="100" height="40" as="geometry" />
        </mxCell>
        <mxCell id="MxgKzACN8pHEczgQ969e-9" value="" style="edgeStyle=elbowEdgeStyle;rounded=0;orthogonalLoop=1;jettySize=auto;html=1;labelBackgroundColor=none;fontFamily=Verdana;fontSize=6;fontColor=#666666;endArrow=open;endFill=0;strokeColor=#82B366;strokeWidth=2;fillColor=#0D4E6E;entryX=1;entryY=0.75;entryDx=0;entryDy=0;exitX=0;exitY=0.75;exitDx=0;exitDy=0;" edge="1" parent="Oc-uMNU_bIT3f0F7BZmr-1" source="MxgKzACN8pHEczgQ969e-6" target="MxgKzACN8pHEczgQ969e-8">
          <mxGeometry relative="1" as="geometry" />
        </mxCell>
        <mxCell id="MxgKzACN8pHEczgQ969e-10" style="edgeStyle=elbowEdgeStyle;rounded=0;orthogonalLoop=1;jettySize=auto;html=1;exitX=0;exitY=0.25;exitDx=0;exitDy=0;entryX=0;entryY=0.5;entryDx=0;entryDy=0;labelBackgroundColor=none;fontFamily=Verdana;fontSize=13;fontColor=#666666;endArrow=open;endFill=0;strokeColor=#82B366;strokeWidth=2;fillColor=#0D4E6E;" edge="1" parent="Oc-uMNU_bIT3f0F7BZmr-1" source="MxgKzACN8pHEczgQ969e-6" target="MxgKzACN8pHEczgQ969e-12">
          <mxGeometry relative="1" as="geometry" />
        </mxCell>
        <mxCell id="MxgKzACN8pHEczgQ969e-11" value="" style="edgeStyle=elbowEdgeStyle;rounded=0;orthogonalLoop=1;jettySize=auto;html=1;labelBackgroundColor=none;fontFamily=Verdana;fontSize=13;fontColor=#666666;endArrow=open;endFill=0;strokeColor=#82B366;strokeWidth=2;fillColor=#0D4E6E;entryX=0.5;entryY=0;entryDx=0;entryDy=0;" edge="1" parent="Oc-uMNU_bIT3f0F7BZmr-1" source="MxgKzACN8pHEczgQ969e-12" target="MxgKzACN8pHEczgQ969e-14">
          <mxGeometry relative="1" as="geometry" />
        </mxCell>
        <mxCell id="MxgKzACN8pHEczgQ969e-12" value="&lt;div style=&quot;font-size: 12px&quot;&gt;&lt;span style=&quot;font-size: 12px&quot;&gt;insertDB()&amp;nbsp; 0.01s&lt;/span&gt;&lt;/div&gt;" style="rounded=1;whiteSpace=wrap;html=1;strokeWidth=1;strokeColor=#4D4D4D;fillColor=#60a917;fontColor=#666666;fontSize=12;fontStyle=1;fontFamily=Verdana;verticalAlign=middle;align=center;" vertex="1" parent="Oc-uMNU_bIT3f0F7BZmr-1">
          <mxGeometry x="357" y="77" width="130" height="20" as="geometry" />
        </mxCell>
        <mxCell id="MxgKzACN8pHEczgQ969e-13" value="" style="edgeStyle=elbowEdgeStyle;rounded=0;orthogonalLoop=1;jettySize=auto;html=1;labelBackgroundColor=none;fontFamily=Verdana;fontSize=13;fontColor=#666666;endArrow=open;endFill=0;strokeColor=#82B366;strokeWidth=2;fillColor=#0D4E6E;exitX=0.5;exitY=1;exitDx=0;exitDy=0;" edge="1" parent="Oc-uMNU_bIT3f0F7BZmr-1" source="MxgKzACN8pHEczgQ969e-14" target="MxgKzACN8pHEczgQ969e-16">
          <mxGeometry relative="1" as="geometry" />
        </mxCell>
        <mxCell id="MxgKzACN8pHEczgQ969e-14" value="&lt;div style=&quot;font-size: 12px&quot;&gt;&lt;span style=&quot;font-size: 12px&quot;&gt;sendSms()&amp;nbsp; 1s&lt;/span&gt;&lt;/div&gt;" style="rounded=1;whiteSpace=wrap;html=1;strokeWidth=1;strokeColor=#4D4D4D;fillColor=#60a917;fontColor=#666666;fontSize=12;fontStyle=1;fontFamily=Verdana;verticalAlign=middle;align=center;" vertex="1" parent="Oc-uMNU_bIT3f0F7BZmr-1">
          <mxGeometry x="357" y="120" width="130" height="20" as="geometry" />
        </mxCell>
        <mxCell id="MxgKzACN8pHEczgQ969e-15" value="" style="edgeStyle=elbowEdgeStyle;rounded=0;orthogonalLoop=1;jettySize=auto;html=1;labelBackgroundColor=none;fontFamily=Verdana;fontSize=13;fontColor=#666666;endArrow=open;endFill=0;strokeColor=#82B366;strokeWidth=2;fillColor=#0D4E6E;" edge="1" parent="Oc-uMNU_bIT3f0F7BZmr-1" source="MxgKzACN8pHEczgQ969e-16" target="MxgKzACN8pHEczgQ969e-18">
          <mxGeometry relative="1" as="geometry" />
        </mxCell>
        <mxCell id="MxgKzACN8pHEczgQ969e-16" value="&lt;div style=&quot;font-size: 12px&quot;&gt;&lt;span style=&quot;font-size: 12px&quot;&gt;sendEmail()&amp;nbsp; 2s&lt;/span&gt;&lt;/div&gt;" style="rounded=1;whiteSpace=wrap;html=1;strokeWidth=1;strokeColor=#4D4D4D;fillColor=#60a917;fontColor=#666666;fontSize=12;fontStyle=1;fontFamily=Verdana;verticalAlign=middle;align=center;" vertex="1" parent="Oc-uMNU_bIT3f0F7BZmr-1">
          <mxGeometry x="357" y="160" width="130" height="20" as="geometry" />
        </mxCell>
        <mxCell id="MxgKzACN8pHEczgQ969e-17" style="edgeStyle=elbowEdgeStyle;rounded=0;orthogonalLoop=1;jettySize=auto;html=1;exitX=0;exitY=0.5;exitDx=0;exitDy=0;labelBackgroundColor=none;fontFamily=Verdana;fontSize=13;fontColor=#666666;endArrow=open;endFill=0;strokeColor=#82B366;strokeWidth=2;fillColor=#0D4E6E;entryX=0;entryY=0.75;entryDx=0;entryDy=0;" edge="1" parent="Oc-uMNU_bIT3f0F7BZmr-1" source="MxgKzACN8pHEczgQ969e-18" target="MxgKzACN8pHEczgQ969e-6">
          <mxGeometry relative="1" as="geometry" />
        </mxCell>
        <mxCell id="MxgKzACN8pHEczgQ969e-18" value="&lt;div style=&quot;font-size: 12px&quot;&gt;&lt;span style=&quot;font-size: 12px&quot;&gt;sendWeChat()&amp;nbsp; 3s&lt;/span&gt;&lt;/div&gt;" style="rounded=1;whiteSpace=wrap;html=1;strokeWidth=1;strokeColor=#4D4D4D;fillColor=#60a917;fontColor=#666666;fontSize=12;fontStyle=1;fontFamily=Verdana;verticalAlign=middle;align=center;" vertex="1" parent="Oc-uMNU_bIT3f0F7BZmr-1">
          <mxGeometry x="357" y="200" width="130" height="20" as="geometry" />
        </mxCell>
      </root>
    </mxGraphModel>
  </diagram>
  <diagram id="DiDAcO8oqyYV9REHjp5S" name="RabbitMQ">
    <mxGraphModel dx="1422" dy="762" grid="1" gridSize="10" guides="1" tooltips="1" connect="1" arrows="1" fold="1" page="1" pageScale="1" pageWidth="850" pageHeight="1100" math="0" shadow="0">
      <root>
        <mxCell id="htIQi0-LDPXTs_gmI_yu-0" />
        <mxCell id="htIQi0-LDPXTs_gmI_yu-1" parent="htIQi0-LDPXTs_gmI_yu-0" />
        <mxCell id="pk54sdWlDcbNRwSq4Mix-0" value="&lt;font&gt;&lt;span&gt;BROKER (RabbitMQ)&lt;/span&gt;&lt;/font&gt;" style="rounded=1;whiteSpace=wrap;html=1;strokeColor=#999999;strokeWidth=2;fillColor=#bac8d3;arcSize=1;verticalAlign=top;fontFamily=Helvetica;fontStyle=1;fontColor=#999999;" vertex="1" parent="htIQi0-LDPXTs_gmI_yu-1">
          <mxGeometry x="242" y="120" width="398" height="320" as="geometry" />
        </mxCell>
        <mxCell id="y9wwLgFnF94JPzcXJXQW-6" value="&lt;font&gt;&lt;span&gt;Virtual Host&lt;/span&gt;&lt;/font&gt;" style="rounded=1;whiteSpace=wrap;html=1;strokeWidth=2;arcSize=1;verticalAlign=top;fontFamily=Helvetica;fontStyle=1;fillColor=#eeeeee;strokeColor=#999999;fontColor=#999999;" vertex="1" parent="htIQi0-LDPXTs_gmI_yu-1">
          <mxGeometry x="310" y="200" width="310" height="220" as="geometry" />
        </mxCell>
        <mxCell id="y9wwLgFnF94JPzcXJXQW-5" value="&lt;font&gt;&lt;span&gt;Virtual Host&lt;/span&gt;&lt;/font&gt;" style="rounded=1;whiteSpace=wrap;html=1;strokeWidth=2;arcSize=1;verticalAlign=top;fontFamily=Helvetica;fontStyle=1;fillColor=#eeeeee;strokeColor=#999999;fontColor=#999999;" vertex="1" parent="htIQi0-LDPXTs_gmI_yu-1">
          <mxGeometry x="286" y="180" width="310" height="220" as="geometry" />
        </mxCell>
        <mxCell id="DrUsRtbGBUVv1YwiEMda-11" value="" style="group;fontColor=#999999;" vertex="1" connectable="0" parent="htIQi0-LDPXTs_gmI_yu-1">
          <mxGeometry x="681" y="177.99999999999997" width="220" height="170" as="geometry" />
        </mxCell>
        <mxCell id="DrUsRtbGBUVv1YwiEMda-0" value="&lt;font style=&quot;font-size: 14px;&quot;&gt;&lt;span style=&quot;font-size: 14px;&quot;&gt;Connection&lt;/span&gt;&lt;/font&gt;" style="rounded=1;whiteSpace=wrap;html=1;strokeWidth=1;arcSize=1;verticalAlign=top;fontFamily=Helvetica;fontStyle=1;fillColor=#eeeeee;strokeColor=#666666;fontSize=14;" vertex="1" parent="DrUsRtbGBUVv1YwiEMda-11">
          <mxGeometry width="220" height="170" as="geometry" />
        </mxCell>
        <mxCell id="DrUsRtbGBUVv1YwiEMda-1" value="" style="shape=cylinder3;whiteSpace=wrap;html=1;boundedLbl=1;backgroundOutline=1;size=9.793103448275815;rounded=1;labelBackgroundColor=none;fontFamily=Verdana;fontSize=10;strokeColor=#999999;strokeWidth=1;fillColor=#D4E1F5;rotation=90;gradientColor=none;" vertex="1" parent="DrUsRtbGBUVv1YwiEMda-11">
          <mxGeometry x="47.463225806451604" y="-15.454545454545453" width="125.08064516129033" height="215.39772727272728" as="geometry" />
        </mxCell>
        <mxCell id="DrUsRtbGBUVv1YwiEMda-2" value="" style="group" vertex="1" connectable="0" parent="DrUsRtbGBUVv1YwiEMda-11">
          <mxGeometry x="21.031290322580638" y="36.189318181818095" width="169.43548387096774" height="33.32000000000009" as="geometry" />
        </mxCell>
        <mxCell id="DrUsRtbGBUVv1YwiEMda-3" value="" style="shape=cylinder3;whiteSpace=wrap;html=1;boundedLbl=1;backgroundOutline=1;size=5.385000000000105;rounded=1;labelBackgroundColor=none;fontFamily=Verdana;fontSize=10;strokeColor=#999999;strokeWidth=1;fillColor=#D4E1F5;rotation=90;gradientColor=none;" vertex="1" parent="DrUsRtbGBUVv1YwiEMda-2">
          <mxGeometry x="69.41709677419355" y="-75.58431818181813" width="30.601290322580642" height="184.48863636363635" as="geometry" />
        </mxCell>
        <mxCell id="DrUsRtbGBUVv1YwiEMda-4" value="Channel" style="text;html=1;resizable=0;autosize=1;align=center;verticalAlign=middle;points=[];fillColor=none;strokeColor=none;rounded=0;labelBackgroundColor=none;fontFamily=Verdana;fontSize=11;fontColor=#666666;fontStyle=2" vertex="1" parent="DrUsRtbGBUVv1YwiEMda-2">
          <mxGeometry x="61.915806451612916" y="8.928863636363685" width="60" height="20" as="geometry" />
        </mxCell>
        <mxCell id="DrUsRtbGBUVv1YwiEMda-5" value="" style="group" vertex="1" connectable="0" parent="DrUsRtbGBUVv1YwiEMda-11">
          <mxGeometry x="14.197096774193543" y="77.27659090909081" width="169.43548387096774" height="33.32000000000009" as="geometry" />
        </mxCell>
        <mxCell id="DrUsRtbGBUVv1YwiEMda-6" value="" style="shape=cylinder3;whiteSpace=wrap;html=1;boundedLbl=1;backgroundOutline=1;size=5.385000000000105;rounded=1;labelBackgroundColor=none;fontFamily=Verdana;fontSize=10;strokeColor=#999999;strokeWidth=1;fillColor=#D4E1F5;rotation=90;gradientColor=none;" vertex="1" parent="DrUsRtbGBUVv1YwiEMda-5">
          <mxGeometry x="69.41709677419355" y="-75.58431818181813" width="30.601290322580642" height="184.48863636363635" as="geometry" />
        </mxCell>
        <mxCell id="DrUsRtbGBUVv1YwiEMda-7" value="Channel" style="text;html=1;resizable=0;autosize=1;align=center;verticalAlign=middle;points=[];fillColor=none;strokeColor=none;rounded=0;labelBackgroundColor=none;fontFamily=Verdana;fontSize=11;fontColor=#666666;fontStyle=2" vertex="1" parent="DrUsRtbGBUVv1YwiEMda-5">
          <mxGeometry x="61.915806451612916" y="8.928863636363685" width="60" height="20" as="geometry" />
        </mxCell>
        <mxCell id="DrUsRtbGBUVv1YwiEMda-8" value="" style="group" vertex="1" connectable="0" parent="DrUsRtbGBUVv1YwiEMda-11">
          <mxGeometry x="21.031290322580638" y="117.77659090909081" width="169.43548387096774" height="33.32000000000009" as="geometry" />
        </mxCell>
        <mxCell id="DrUsRtbGBUVv1YwiEMda-9" value="" style="shape=cylinder3;whiteSpace=wrap;html=1;boundedLbl=1;backgroundOutline=1;size=5.385000000000105;rounded=1;labelBackgroundColor=none;fontFamily=Verdana;fontSize=10;strokeColor=#999999;strokeWidth=1;fillColor=#D4E1F5;rotation=90;gradientColor=none;" vertex="1" parent="DrUsRtbGBUVv1YwiEMda-8">
          <mxGeometry x="69.41709677419355" y="-75.58431818181813" width="30.601290322580642" height="184.48863636363635" as="geometry" />
        </mxCell>
        <mxCell id="DrUsRtbGBUVv1YwiEMda-10" value="Channel" style="text;html=1;resizable=0;autosize=1;align=center;verticalAlign=middle;points=[];fillColor=none;strokeColor=none;rounded=0;labelBackgroundColor=none;fontFamily=Verdana;fontSize=11;fontColor=#666666;fontStyle=2" vertex="1" parent="DrUsRtbGBUVv1YwiEMda-8">
          <mxGeometry x="61.915806451612916" y="8.928863636363685" width="60" height="20" as="geometry" />
        </mxCell>
        <mxCell id="pk54sdWlDcbNRwSq4Mix-23" value="&lt;font&gt;&lt;span&gt;Virtual Host&lt;/span&gt;&lt;/font&gt;" style="rounded=1;whiteSpace=wrap;html=1;strokeWidth=2;arcSize=1;verticalAlign=top;fontFamily=Helvetica;fontStyle=1;fillColor=#eeeeee;strokeColor=#999999;fontColor=#999999;" vertex="1" parent="htIQi0-LDPXTs_gmI_yu-1">
          <mxGeometry x="262" y="163" width="310" height="220" as="geometry" />
        </mxCell>
        <mxCell id="3vVYN9bJuJwj9sGCq01E-15" value="" style="edgeStyle=elbowEdgeStyle;rounded=0;orthogonalLoop=1;jettySize=auto;html=1;labelBackgroundColor=none;fontFamily=Verdana;fontSize=13;fontColor=#666666;endArrow=open;endFill=0;strokeColor=#82B366;strokeWidth=2;fillColor=#0D4E6E;" edge="1" parent="htIQi0-LDPXTs_gmI_yu-1" source="pk54sdWlDcbNRwSq4Mix-3" target="pk54sdWlDcbNRwSq4Mix-6">
          <mxGeometry relative="1" as="geometry" />
        </mxCell>
        <mxCell id="pk54sdWlDcbNRwSq4Mix-3" value="&lt;div style=&quot;font-size: 12px;&quot;&gt;&lt;span style=&quot;font-size: 12px;&quot;&gt;PRODUCER&lt;/span&gt;&lt;/div&gt;" style="rounded=1;whiteSpace=wrap;html=1;strokeWidth=2;strokeColor=#999999;fillColor=#f0a30a;fontColor=#666666;fontSize=12;fontStyle=1;fontFamily=Verdana;verticalAlign=middle;align=center;" vertex="1" parent="htIQi0-LDPXTs_gmI_yu-1">
          <mxGeometry x="40" y="242" width="100" height="60" as="geometry" />
        </mxCell>
        <mxCell id="pk54sdWlDcbNRwSq4Mix-4" value="&lt;div style=&quot;font-size: 12px&quot;&gt;&lt;span style=&quot;font-size: 12px&quot;&gt;CONSUMER&lt;/span&gt;&lt;/div&gt;" style="rounded=1;whiteSpace=wrap;html=1;strokeWidth=2;strokeColor=#999999;fillColor=#97D077;fontColor=#666666;fontSize=12;fontStyle=1;fontFamily=Verdana;verticalAlign=middle;align=center;" vertex="1" parent="htIQi0-LDPXTs_gmI_yu-1">
          <mxGeometry x="941" y="242" width="100" height="60" as="geometry" />
        </mxCell>
        <mxCell id="pk54sdWlDcbNRwSq4Mix-5" value="" style="group;strokeColor=none;" vertex="1" connectable="0" parent="htIQi0-LDPXTs_gmI_yu-1">
          <mxGeometry x="282" y="247" width="50" height="50" as="geometry" />
        </mxCell>
        <mxCell id="pk54sdWlDcbNRwSq4Mix-6" value="" style="ellipse;whiteSpace=wrap;html=1;aspect=fixed;strokeColor=#10739e;fillColor=#b1ddf0;strokeWidth=2;" vertex="1" parent="pk54sdWlDcbNRwSq4Mix-5">
          <mxGeometry width="50" height="50" as="geometry" />
        </mxCell>
        <mxCell id="pk54sdWlDcbNRwSq4Mix-7" value="" style="group" vertex="1" connectable="0" parent="pk54sdWlDcbNRwSq4Mix-5">
          <mxGeometry x="12.5" y="17.8125" width="25" height="14.375" as="geometry" />
        </mxCell>
        <mxCell id="pk54sdWlDcbNRwSq4Mix-8" value="" style="html=1;shadow=0;dashed=0;align=center;verticalAlign=middle;shape=mxgraph.arrows2.arrow;dy=0.56;dx=7.44;notch=0;strokeColor=none;strokeWidth=3;fillColor=#0D4E6E;" vertex="1" parent="pk54sdWlDcbNRwSq4Mix-7">
          <mxGeometry width="25" height="6.875" as="geometry" />
        </mxCell>
        <mxCell id="pk54sdWlDcbNRwSq4Mix-9" value="" style="html=1;shadow=0;dashed=0;align=center;verticalAlign=middle;shape=mxgraph.arrows2.arrow;dy=0.56;dx=7.44;notch=0;strokeColor=none;strokeWidth=3;fillColor=#0D4E6E;rotation=-180;" vertex="1" parent="pk54sdWlDcbNRwSq4Mix-7">
          <mxGeometry y="7.5" width="25" height="6.875" as="geometry" />
        </mxCell>
        <mxCell id="pk54sdWlDcbNRwSq4Mix-18" value="Exchange" style="text;html=1;resizable=0;autosize=1;align=center;verticalAlign=middle;points=[];fillColor=none;strokeColor=none;rounded=0;labelBackgroundColor=none;fontFamily=Verdana;fontSize=9;fontColor=#4D4D4D;fontStyle=1" vertex="1" parent="htIQi0-LDPXTs_gmI_yu-1">
          <mxGeometry x="277" y="227" width="60" height="20" as="geometry" />
        </mxCell>
        <mxCell id="3vVYN9bJuJwj9sGCq01E-0" value="" style="group" vertex="1" connectable="0" parent="htIQi0-LDPXTs_gmI_yu-1">
          <mxGeometry x="389" y="257" width="160" height="30" as="geometry" />
        </mxCell>
        <mxCell id="3vVYN9bJuJwj9sGCq01E-1" value="" style="rounded=1;whiteSpace=wrap;html=1;strokeColor=#4D4D4D;strokeWidth=1;fillColor=#b1ddf0;arcSize=3;" vertex="1" parent="3vVYN9bJuJwj9sGCq01E-0">
          <mxGeometry width="160" height="30" as="geometry" />
        </mxCell>
        <mxCell id="3vVYN9bJuJwj9sGCq01E-2" value="" style="rounded=1;whiteSpace=wrap;html=1;strokeWidth=1;strokeColor=#BD7000;fillColor=#f0a30a;fontColor=#000000;" vertex="1" parent="3vVYN9bJuJwj9sGCq01E-0">
          <mxGeometry x="4.756756756756757" y="3.3333333333333335" width="8.64864864864865" height="23.333333333333332" as="geometry" />
        </mxCell>
        <mxCell id="3vVYN9bJuJwj9sGCq01E-3" value="" style="rounded=1;whiteSpace=wrap;html=1;strokeWidth=1;strokeColor=#BD7000;fillColor=#f0a30a;fontColor=#000000;" vertex="1" parent="3vVYN9bJuJwj9sGCq01E-0">
          <mxGeometry x="17.2972972972973" y="3.3333333333333335" width="8.64864864864865" height="23.333333333333332" as="geometry" />
        </mxCell>
        <mxCell id="3vVYN9bJuJwj9sGCq01E-4" value="" style="rounded=1;whiteSpace=wrap;html=1;strokeWidth=1;strokeColor=none;" vertex="1" parent="3vVYN9bJuJwj9sGCq01E-0">
          <mxGeometry x="30.270270270270274" y="3.3333333333333335" width="8.64864864864865" height="23.333333333333332" as="geometry" />
        </mxCell>
        <mxCell id="3vVYN9bJuJwj9sGCq01E-5" value="" style="rounded=1;whiteSpace=wrap;html=1;strokeWidth=1;strokeColor=none;" vertex="1" parent="3vVYN9bJuJwj9sGCq01E-0">
          <mxGeometry x="43.24324324324325" y="3.3333333333333335" width="8.64864864864865" height="23.333333333333332" as="geometry" />
        </mxCell>
        <mxCell id="3vVYN9bJuJwj9sGCq01E-6" value="" style="rounded=1;whiteSpace=wrap;html=1;strokeWidth=1;strokeColor=none;" vertex="1" parent="3vVYN9bJuJwj9sGCq01E-0">
          <mxGeometry x="69.1891891891892" y="3.3333333333333335" width="8.64864864864865" height="23.333333333333332" as="geometry" />
        </mxCell>
        <mxCell id="3vVYN9bJuJwj9sGCq01E-7" value="" style="rounded=1;whiteSpace=wrap;html=1;strokeWidth=1;strokeColor=none;" vertex="1" parent="3vVYN9bJuJwj9sGCq01E-0">
          <mxGeometry x="56.216216216216225" y="3.3333333333333335" width="8.64864864864865" height="23.333333333333332" as="geometry" />
        </mxCell>
        <mxCell id="3vVYN9bJuJwj9sGCq01E-8" value="" style="rounded=1;whiteSpace=wrap;html=1;strokeWidth=1;strokeColor=none;" vertex="1" parent="3vVYN9bJuJwj9sGCq01E-0">
          <mxGeometry x="82.16216216216218" y="3.3333333333333335" width="8.64864864864865" height="23.333333333333332" as="geometry" />
        </mxCell>
        <mxCell id="3vVYN9bJuJwj9sGCq01E-9" value="" style="rounded=1;whiteSpace=wrap;html=1;strokeWidth=1;strokeColor=none;" vertex="1" parent="3vVYN9bJuJwj9sGCq01E-0">
          <mxGeometry x="94.70270270270271" y="3.3333333333333335" width="8.64864864864865" height="23.333333333333332" as="geometry" />
        </mxCell>
        <mxCell id="3vVYN9bJuJwj9sGCq01E-10" value="" style="rounded=1;whiteSpace=wrap;html=1;strokeWidth=1;strokeColor=none;" vertex="1" parent="3vVYN9bJuJwj9sGCq01E-0">
          <mxGeometry x="107.67567567567569" y="3.3333333333333335" width="8.64864864864865" height="23.333333333333332" as="geometry" />
        </mxCell>
        <mxCell id="3vVYN9bJuJwj9sGCq01E-11" value="" style="rounded=1;whiteSpace=wrap;html=1;strokeWidth=1;strokeColor=none;" vertex="1" parent="3vVYN9bJuJwj9sGCq01E-0">
          <mxGeometry x="120.64864864864865" y="3.3333333333333335" width="8.64864864864865" height="23.333333333333332" as="geometry" />
        </mxCell>
        <mxCell id="3vVYN9bJuJwj9sGCq01E-12" value="" style="rounded=1;whiteSpace=wrap;html=1;strokeWidth=1;strokeColor=none;" vertex="1" parent="3vVYN9bJuJwj9sGCq01E-0">
          <mxGeometry x="146.5945945945946" y="3.3333333333333335" width="8.64864864864865" height="23.333333333333332" as="geometry" />
        </mxCell>
        <mxCell id="3vVYN9bJuJwj9sGCq01E-13" value="" style="rounded=1;whiteSpace=wrap;html=1;strokeWidth=1;strokeColor=none;" vertex="1" parent="3vVYN9bJuJwj9sGCq01E-0">
          <mxGeometry x="133.62162162162164" y="3.3333333333333335" width="8.64864864864865" height="23.333333333333332" as="geometry" />
        </mxCell>
        <mxCell id="DrUsRtbGBUVv1YwiEMda-14" value="Queue" style="text;html=1;resizable=0;autosize=1;align=center;verticalAlign=middle;points=[];fillColor=none;strokeColor=none;rounded=0;labelBackgroundColor=none;fontFamily=Verdana;fontSize=9;fontColor=#4D4D4D;fontStyle=1" vertex="1" parent="3vVYN9bJuJwj9sGCq01E-0">
          <mxGeometry x="44.69999999999999" y="5" width="50" height="20" as="geometry" />
        </mxCell>
        <mxCell id="3vVYN9bJuJwj9sGCq01E-16" value="Binding&lt;br style=&quot;font-size: 10px;&quot;&gt;" style="edgeStyle=elbowEdgeStyle;rounded=0;orthogonalLoop=1;jettySize=auto;html=1;labelBackgroundColor=none;fontFamily=Verdana;fontSize=10;fontColor=#666666;endArrow=open;endFill=0;strokeColor=#314354;strokeWidth=3;fillColor=#647687;entryX=0;entryY=0.5;entryDx=0;entryDy=0;exitX=1;exitY=0.5;exitDx=0;exitDy=0;fontStyle=2" edge="1" parent="htIQi0-LDPXTs_gmI_yu-1" source="pk54sdWlDcbNRwSq4Mix-6" target="3vVYN9bJuJwj9sGCq01E-1">
          <mxGeometry x="-0.0175" y="12" relative="1" as="geometry">
            <mxPoint as="offset" />
          </mxGeometry>
        </mxCell>
        <mxCell id="DrUsRtbGBUVv1YwiEMda-12" style="edgeStyle=elbowEdgeStyle;rounded=0;orthogonalLoop=1;jettySize=auto;html=1;exitX=1;exitY=0.5;exitDx=0;exitDy=0;labelBackgroundColor=none;fontFamily=Verdana;fontSize=14;fontColor=#666666;endArrow=open;endFill=0;strokeColor=#82B366;strokeWidth=3;fillColor=#0D4E6E;entryX=0.5;entryY=1;entryDx=0;entryDy=0;entryPerimeter=0;" edge="1" parent="htIQi0-LDPXTs_gmI_yu-1" source="3vVYN9bJuJwj9sGCq01E-1" target="DrUsRtbGBUVv1YwiEMda-6">
          <mxGeometry relative="1" as="geometry">
            <mxPoint x="721" y="407" as="targetPoint" />
          </mxGeometry>
        </mxCell>
        <mxCell id="DrUsRtbGBUVv1YwiEMda-13" style="edgeStyle=elbowEdgeStyle;rounded=0;orthogonalLoop=1;jettySize=auto;html=1;exitX=0.5;exitY=0;exitDx=0;exitDy=0;exitPerimeter=0;labelBackgroundColor=none;fontFamily=Verdana;fontSize=14;fontColor=#666666;endArrow=open;endFill=0;strokeColor=#82B366;strokeWidth=3;fillColor=#0D4E6E;" edge="1" parent="htIQi0-LDPXTs_gmI_yu-1" source="DrUsRtbGBUVv1YwiEMda-6" target="pk54sdWlDcbNRwSq4Mix-4">
          <mxGeometry relative="1" as="geometry" />
        </mxCell>
        <mxCell id="y9wwLgFnF94JPzcXJXQW-0" value="&lt;font&gt;&lt;i&gt;&lt;span style=&quot;font-size: 8px&quot;&gt;Message&lt;br&gt;&lt;/span&gt;&lt;br&gt;&lt;br&gt;&lt;/i&gt;&lt;/font&gt;" style="shape=message;html=1;whiteSpace=wrap;html=1;outlineConnect=0;rounded=1;fontFamily=Verdana;fontSize=12;fontColor=#666666;strokeColor=#999999;strokeWidth=1;fillColor=#FFD966;" vertex="1" parent="htIQi0-LDPXTs_gmI_yu-1">
          <mxGeometry x="171" y="263.5" width="34" height="15" as="geometry" />
        </mxCell>
        <mxCell id="y9wwLgFnF94JPzcXJXQW-7" value="" style="group" vertex="1" connectable="0" parent="htIQi0-LDPXTs_gmI_yu-1">
          <mxGeometry x="389" y="302" width="160" height="30" as="geometry" />
        </mxCell>
        <mxCell id="y9wwLgFnF94JPzcXJXQW-8" value="" style="rounded=1;whiteSpace=wrap;html=1;strokeColor=#4D4D4D;strokeWidth=1;fillColor=#b1ddf0;arcSize=3;" vertex="1" parent="y9wwLgFnF94JPzcXJXQW-7">
          <mxGeometry width="160" height="30" as="geometry" />
        </mxCell>
        <mxCell id="y9wwLgFnF94JPzcXJXQW-9" value="" style="rounded=1;whiteSpace=wrap;html=1;strokeWidth=1;strokeColor=#BD7000;fillColor=#f0a30a;fontColor=#000000;" vertex="1" parent="y9wwLgFnF94JPzcXJXQW-7">
          <mxGeometry x="4.756756756756757" y="3.3333333333333335" width="8.64864864864865" height="23.333333333333332" as="geometry" />
        </mxCell>
        <mxCell id="y9wwLgFnF94JPzcXJXQW-10" value="" style="rounded=1;whiteSpace=wrap;html=1;strokeWidth=1;strokeColor=#BD7000;fillColor=#f0a30a;fontColor=#000000;" vertex="1" parent="y9wwLgFnF94JPzcXJXQW-7">
          <mxGeometry x="17.2972972972973" y="3.3333333333333335" width="8.64864864864865" height="23.333333333333332" as="geometry" />
        </mxCell>
        <mxCell id="y9wwLgFnF94JPzcXJXQW-11" value="" style="rounded=1;whiteSpace=wrap;html=1;strokeWidth=1;strokeColor=none;" vertex="1" parent="y9wwLgFnF94JPzcXJXQW-7">
          <mxGeometry x="30.270270270270274" y="3.3333333333333335" width="8.64864864864865" height="23.333333333333332" as="geometry" />
        </mxCell>
        <mxCell id="y9wwLgFnF94JPzcXJXQW-12" value="" style="rounded=1;whiteSpace=wrap;html=1;strokeWidth=1;strokeColor=none;" vertex="1" parent="y9wwLgFnF94JPzcXJXQW-7">
          <mxGeometry x="43.24324324324325" y="3.3333333333333335" width="8.64864864864865" height="23.333333333333332" as="geometry" />
        </mxCell>
        <mxCell id="y9wwLgFnF94JPzcXJXQW-13" value="" style="rounded=1;whiteSpace=wrap;html=1;strokeWidth=1;strokeColor=none;" vertex="1" parent="y9wwLgFnF94JPzcXJXQW-7">
          <mxGeometry x="69.1891891891892" y="3.3333333333333335" width="8.64864864864865" height="23.333333333333332" as="geometry" />
        </mxCell>
        <mxCell id="y9wwLgFnF94JPzcXJXQW-14" value="" style="rounded=1;whiteSpace=wrap;html=1;strokeWidth=1;strokeColor=none;" vertex="1" parent="y9wwLgFnF94JPzcXJXQW-7">
          <mxGeometry x="56.216216216216225" y="3.3333333333333335" width="8.64864864864865" height="23.333333333333332" as="geometry" />
        </mxCell>
        <mxCell id="y9wwLgFnF94JPzcXJXQW-15" value="" style="rounded=1;whiteSpace=wrap;html=1;strokeWidth=1;strokeColor=none;" vertex="1" parent="y9wwLgFnF94JPzcXJXQW-7">
          <mxGeometry x="82.16216216216218" y="3.3333333333333335" width="8.64864864864865" height="23.333333333333332" as="geometry" />
        </mxCell>
        <mxCell id="y9wwLgFnF94JPzcXJXQW-16" value="" style="rounded=1;whiteSpace=wrap;html=1;strokeWidth=1;strokeColor=none;" vertex="1" parent="y9wwLgFnF94JPzcXJXQW-7">
          <mxGeometry x="94.70270270270271" y="3.3333333333333335" width="8.64864864864865" height="23.333333333333332" as="geometry" />
        </mxCell>
        <mxCell id="y9wwLgFnF94JPzcXJXQW-17" value="" style="rounded=1;whiteSpace=wrap;html=1;strokeWidth=1;strokeColor=none;" vertex="1" parent="y9wwLgFnF94JPzcXJXQW-7">
          <mxGeometry x="107.67567567567569" y="3.3333333333333335" width="8.64864864864865" height="23.333333333333332" as="geometry" />
        </mxCell>
        <mxCell id="y9wwLgFnF94JPzcXJXQW-18" value="" style="rounded=1;whiteSpace=wrap;html=1;strokeWidth=1;strokeColor=none;" vertex="1" parent="y9wwLgFnF94JPzcXJXQW-7">
          <mxGeometry x="120.64864864864865" y="3.3333333333333335" width="8.64864864864865" height="23.333333333333332" as="geometry" />
        </mxCell>
        <mxCell id="y9wwLgFnF94JPzcXJXQW-19" value="" style="rounded=1;whiteSpace=wrap;html=1;strokeWidth=1;strokeColor=none;" vertex="1" parent="y9wwLgFnF94JPzcXJXQW-7">
          <mxGeometry x="146.5945945945946" y="3.3333333333333335" width="8.64864864864865" height="23.333333333333332" as="geometry" />
        </mxCell>
        <mxCell id="y9wwLgFnF94JPzcXJXQW-20" value="" style="rounded=1;whiteSpace=wrap;html=1;strokeWidth=1;strokeColor=none;" vertex="1" parent="y9wwLgFnF94JPzcXJXQW-7">
          <mxGeometry x="133.62162162162164" y="3.3333333333333335" width="8.64864864864865" height="23.333333333333332" as="geometry" />
        </mxCell>
        <mxCell id="y9wwLgFnF94JPzcXJXQW-21" value="Queue" style="text;html=1;resizable=0;autosize=1;align=center;verticalAlign=middle;points=[];fillColor=none;strokeColor=none;rounded=0;labelBackgroundColor=none;fontFamily=Verdana;fontSize=9;fontColor=#4D4D4D;fontStyle=1" vertex="1" parent="y9wwLgFnF94JPzcXJXQW-7">
          <mxGeometry x="44.69999999999999" y="5" width="50" height="20" as="geometry" />
        </mxCell>
        <mxCell id="y9wwLgFnF94JPzcXJXQW-22" value="" style="group" vertex="1" connectable="0" parent="htIQi0-LDPXTs_gmI_yu-1">
          <mxGeometry x="389" y="212" width="160" height="30" as="geometry" />
        </mxCell>
        <mxCell id="y9wwLgFnF94JPzcXJXQW-23" value="" style="rounded=1;whiteSpace=wrap;html=1;strokeColor=#4D4D4D;strokeWidth=1;fillColor=#b1ddf0;arcSize=3;" vertex="1" parent="y9wwLgFnF94JPzcXJXQW-22">
          <mxGeometry width="160" height="30" as="geometry" />
        </mxCell>
        <mxCell id="y9wwLgFnF94JPzcXJXQW-24" value="" style="rounded=1;whiteSpace=wrap;html=1;strokeWidth=1;strokeColor=#BD7000;fillColor=#f0a30a;fontColor=#000000;" vertex="1" parent="y9wwLgFnF94JPzcXJXQW-22">
          <mxGeometry x="4.756756756756757" y="3.3333333333333335" width="8.64864864864865" height="23.333333333333332" as="geometry" />
        </mxCell>
        <mxCell id="y9wwLgFnF94JPzcXJXQW-25" value="" style="rounded=1;whiteSpace=wrap;html=1;strokeWidth=1;strokeColor=#BD7000;fillColor=#f0a30a;fontColor=#000000;" vertex="1" parent="y9wwLgFnF94JPzcXJXQW-22">
          <mxGeometry x="17.2972972972973" y="3.3333333333333335" width="8.64864864864865" height="23.333333333333332" as="geometry" />
        </mxCell>
        <mxCell id="y9wwLgFnF94JPzcXJXQW-26" value="" style="rounded=1;whiteSpace=wrap;html=1;strokeWidth=1;strokeColor=none;" vertex="1" parent="y9wwLgFnF94JPzcXJXQW-22">
          <mxGeometry x="30.270270270270274" y="3.3333333333333335" width="8.64864864864865" height="23.333333333333332" as="geometry" />
        </mxCell>
        <mxCell id="y9wwLgFnF94JPzcXJXQW-27" value="" style="rounded=1;whiteSpace=wrap;html=1;strokeWidth=1;strokeColor=none;" vertex="1" parent="y9wwLgFnF94JPzcXJXQW-22">
          <mxGeometry x="43.24324324324325" y="3.3333333333333335" width="8.64864864864865" height="23.333333333333332" as="geometry" />
        </mxCell>
        <mxCell id="y9wwLgFnF94JPzcXJXQW-28" value="" style="rounded=1;whiteSpace=wrap;html=1;strokeWidth=1;strokeColor=none;" vertex="1" parent="y9wwLgFnF94JPzcXJXQW-22">
          <mxGeometry x="69.1891891891892" y="3.3333333333333335" width="8.64864864864865" height="23.333333333333332" as="geometry" />
        </mxCell>
        <mxCell id="y9wwLgFnF94JPzcXJXQW-29" value="" style="rounded=1;whiteSpace=wrap;html=1;strokeWidth=1;strokeColor=none;" vertex="1" parent="y9wwLgFnF94JPzcXJXQW-22">
          <mxGeometry x="56.216216216216225" y="3.3333333333333335" width="8.64864864864865" height="23.333333333333332" as="geometry" />
        </mxCell>
        <mxCell id="y9wwLgFnF94JPzcXJXQW-30" value="" style="rounded=1;whiteSpace=wrap;html=1;strokeWidth=1;strokeColor=none;" vertex="1" parent="y9wwLgFnF94JPzcXJXQW-22">
          <mxGeometry x="82.16216216216218" y="3.3333333333333335" width="8.64864864864865" height="23.333333333333332" as="geometry" />
        </mxCell>
        <mxCell id="y9wwLgFnF94JPzcXJXQW-31" value="" style="rounded=1;whiteSpace=wrap;html=1;strokeWidth=1;strokeColor=none;" vertex="1" parent="y9wwLgFnF94JPzcXJXQW-22">
          <mxGeometry x="94.70270270270271" y="3.3333333333333335" width="8.64864864864865" height="23.333333333333332" as="geometry" />
        </mxCell>
        <mxCell id="y9wwLgFnF94JPzcXJXQW-32" value="" style="rounded=1;whiteSpace=wrap;html=1;strokeWidth=1;strokeColor=none;" vertex="1" parent="y9wwLgFnF94JPzcXJXQW-22">
          <mxGeometry x="107.67567567567569" y="3.3333333333333335" width="8.64864864864865" height="23.333333333333332" as="geometry" />
        </mxCell>
        <mxCell id="y9wwLgFnF94JPzcXJXQW-33" value="" style="rounded=1;whiteSpace=wrap;html=1;strokeWidth=1;strokeColor=none;" vertex="1" parent="y9wwLgFnF94JPzcXJXQW-22">
          <mxGeometry x="120.64864864864865" y="3.3333333333333335" width="8.64864864864865" height="23.333333333333332" as="geometry" />
        </mxCell>
        <mxCell id="y9wwLgFnF94JPzcXJXQW-34" value="" style="rounded=1;whiteSpace=wrap;html=1;strokeWidth=1;strokeColor=none;" vertex="1" parent="y9wwLgFnF94JPzcXJXQW-22">
          <mxGeometry x="146.5945945945946" y="3.3333333333333335" width="8.64864864864865" height="23.333333333333332" as="geometry" />
        </mxCell>
        <mxCell id="y9wwLgFnF94JPzcXJXQW-35" value="" style="rounded=1;whiteSpace=wrap;html=1;strokeWidth=1;strokeColor=none;" vertex="1" parent="y9wwLgFnF94JPzcXJXQW-22">
          <mxGeometry x="133.62162162162164" y="3.3333333333333335" width="8.64864864864865" height="23.333333333333332" as="geometry" />
        </mxCell>
        <mxCell id="y9wwLgFnF94JPzcXJXQW-36" value="Queue" style="text;html=1;resizable=0;autosize=1;align=center;verticalAlign=middle;points=[];fillColor=none;strokeColor=none;rounded=0;labelBackgroundColor=none;fontFamily=Verdana;fontSize=9;fontColor=#4D4D4D;fontStyle=1" vertex="1" parent="y9wwLgFnF94JPzcXJXQW-22">
          <mxGeometry x="44.69999999999999" y="5" width="50" height="20" as="geometry" />
        </mxCell>
        <mxCell id="y9wwLgFnF94JPzcXJXQW-37" value="" style="edgeStyle=orthogonalEdgeStyle;rounded=0;orthogonalLoop=1;jettySize=auto;html=1;labelBackgroundColor=none;fontFamily=Verdana;fontSize=10;fontColor=#666666;endArrow=open;endFill=0;strokeColor=#999999;strokeWidth=2;fillColor=#647687;entryX=0;entryY=0.5;entryDx=0;entryDy=0;exitX=1;exitY=1;exitDx=0;exitDy=0;fontStyle=2;curved=1;" edge="1" parent="htIQi0-LDPXTs_gmI_yu-1" source="pk54sdWlDcbNRwSq4Mix-6" target="y9wwLgFnF94JPzcXJXQW-8">
          <mxGeometry x="0.8035" y="17" relative="1" as="geometry">
            <mxPoint x="342" y="282" as="sourcePoint" />
            <mxPoint x="399" y="282" as="targetPoint" />
            <mxPoint as="offset" />
            <Array as="points">
              <mxPoint x="360" y="290" />
              <mxPoint x="360" y="317" />
            </Array>
          </mxGeometry>
        </mxCell>
        <mxCell id="y9wwLgFnF94JPzcXJXQW-38" value="" style="edgeStyle=orthogonalEdgeStyle;rounded=0;orthogonalLoop=1;jettySize=auto;html=1;labelBackgroundColor=none;fontFamily=Verdana;fontSize=10;fontColor=#666666;endArrow=open;endFill=0;strokeColor=#999999;strokeWidth=2;fillColor=#647687;entryX=0;entryY=0.5;entryDx=0;entryDy=0;exitX=1;exitY=0;exitDx=0;exitDy=0;fontStyle=2;curved=1;" edge="1" parent="htIQi0-LDPXTs_gmI_yu-1" source="pk54sdWlDcbNRwSq4Mix-6" target="y9wwLgFnF94JPzcXJXQW-23">
          <mxGeometry x="0.0526" y="15" relative="1" as="geometry">
            <mxPoint x="340" y="291" as="sourcePoint" />
            <mxPoint x="399" y="327" as="targetPoint" />
            <mxPoint as="offset" />
          </mxGeometry>
        </mxCell>
      </root>
    </mxGraphModel>
  </diagram>
</mxfile>
